<svg width="327" height="48" viewBox="0 0 327 48" fill="none" xmlns="http://www.w3.org/2000/svg">
<path d="M265.37 26.59C265.37 27.0833 265.393 27.5967 265.44 28.13C265.487 28.6567 265.553 29.1867 265.64 29.72C265.733 30.2533 265.85 30.7767 265.99 31.29C266.13 31.8033 266.29 32.2833 266.47 32.73C266.543 32.93 266.547 33.0833 266.48 33.19C266.42 33.2967 266.337 33.3833 266.23 33.45L265.42 33.91C265.14 33.3367 264.9 32.7433 264.7 32.13C264.507 31.5233 264.347 30.9133 264.22 30.3C264.093 29.6867 264 29.08 263.94 28.48C263.88 27.88 263.85 27.3033 263.85 26.75C263.85 25.8167 263.903 24.91 264.01 24.03C264.117 23.1433 264.31 22.25 264.59 21.35C264.877 20.45 265.267 19.5233 265.76 18.57C266.253 17.61 266.89 16.59 267.67 15.51L268.38 15.98C268.467 16.0467 268.53 16.1333 268.57 16.24C268.61 16.3467 268.567 16.4967 268.44 16.69C267.947 17.45 267.51 18.21 267.13 18.97C266.75 19.7233 266.43 20.5 266.17 21.3C265.91 22.1 265.71 22.9367 265.57 23.81C265.437 24.6767 265.37 25.6033 265.37 26.59ZM270.866 28.78C271.119 29.1333 271.422 29.3867 271.776 29.54C272.136 29.6867 272.496 29.76 272.856 29.76C273.202 29.76 273.529 29.6867 273.836 29.54C274.142 29.3933 274.422 29.1967 274.676 28.95C274.929 28.6967 275.152 28.4033 275.346 28.07C275.546 27.73 275.716 27.37 275.856 26.99C275.996 26.6033 276.099 26.2067 276.166 25.8C276.239 25.3867 276.276 24.98 276.276 24.58C276.276 23.7867 276.132 23.1833 275.846 22.77C275.566 22.3567 275.166 22.15 274.646 22.15C274.326 22.15 274.002 22.25 273.676 22.45C273.349 22.65 273.032 22.93 272.726 23.29C272.419 23.6433 272.132 24.0667 271.866 24.56C271.606 25.0467 271.379 25.58 271.186 26.16L270.866 28.78ZM271.516 23.44C271.769 23.0267 272.039 22.6533 272.326 22.32C272.619 21.9867 272.926 21.7033 273.246 21.47C273.566 21.23 273.899 21.0467 274.246 20.92C274.592 20.7867 274.946 20.72 275.306 20.72C276.172 20.72 276.846 21.0333 277.326 21.66C277.806 22.2867 278.046 23.2033 278.046 24.41C278.046 24.9567 277.989 25.5033 277.876 26.05C277.762 26.5967 277.599 27.12 277.386 27.62C277.179 28.1133 276.926 28.5767 276.626 29.01C276.332 29.4367 276.002 29.81 275.636 30.13C275.276 30.4433 274.882 30.69 274.456 30.87C274.029 31.05 273.582 31.14 273.116 31.14C272.576 31.14 272.089 31.0267 271.656 30.8C271.222 30.5733 270.862 30.25 270.576 29.83L270.436 30.48C270.382 30.6533 270.316 30.7833 270.236 30.87C270.156 30.9567 270.012 31 269.806 31H268.866L270.646 16.27H272.386L271.516 23.44ZM282.602 20.87L281.382 31H279.632L280.852 20.87H282.602ZM283.282 17.69C283.282 17.8633 283.246 18.0267 283.172 18.18C283.106 18.3267 283.012 18.46 282.892 18.58C282.779 18.6933 282.646 18.7833 282.492 18.85C282.346 18.9167 282.192 18.95 282.032 18.95C281.879 18.95 281.729 18.9167 281.582 18.85C281.436 18.7833 281.306 18.6933 281.192 18.58C281.086 18.46 280.999 18.3267 280.932 18.18C280.866 18.0267 280.832 17.8633 280.832 17.69C280.832 17.5167 280.866 17.3533 280.932 17.2C280.999 17.0467 281.089 16.9133 281.202 16.8C281.316 16.68 281.446 16.5867 281.592 16.52C281.739 16.4467 281.889 16.41 282.042 16.41C282.202 16.41 282.356 16.4433 282.502 16.51C282.656 16.5767 282.789 16.67 282.902 16.79C283.016 16.9033 283.106 17.04 283.172 17.2C283.246 17.3533 283.282 17.5167 283.282 17.69ZM286.792 23.43C287.332 22.5367 287.942 21.8633 288.622 21.41C289.302 20.95 290.002 20.72 290.722 20.72C291.148 20.72 291.522 20.8067 291.842 20.98C292.168 21.1467 292.432 21.3933 292.632 21.72C292.838 22.0467 292.978 22.45 293.052 22.93C293.125 23.4033 293.125 23.9433 293.052 24.55L292.292 31H290.522L291.282 24.55C291.375 23.75 291.325 23.16 291.132 22.78C290.938 22.3933 290.582 22.2 290.062 22.2C289.742 22.2 289.415 22.2867 289.082 22.46C288.755 22.6333 288.438 22.88 288.132 23.2C287.825 23.52 287.538 23.9067 287.272 24.36C287.012 24.8067 286.788 25.3067 286.602 25.86L286.022 31H284.242L285.462 20.86H286.342C286.742 20.86 286.942 21.06 286.942 21.46L286.792 23.43ZM301.887 22.11C301.74 22.0767 301.594 22.0567 301.447 22.05C301.307 22.0367 301.167 22.03 301.027 22.03C300.627 22.03 300.24 22.0967 299.867 22.23C299.494 22.3567 299.144 22.5367 298.817 22.77C298.49 23.0033 298.194 23.2833 297.927 23.61C297.66 23.93 297.43 24.2833 297.237 24.67C297.05 25.0567 296.904 25.47 296.797 25.91C296.69 26.3433 296.637 26.79 296.637 27.25C296.637 28.8567 297.15 29.66 298.177 29.66C298.504 29.66 298.824 29.56 299.137 29.36C299.45 29.1533 299.747 28.87 300.027 28.51C300.314 28.1433 300.577 27.7133 300.817 27.22C301.057 26.72 301.27 26.1733 301.457 25.58L301.887 22.11ZM301.207 28.33C300.967 28.7567 300.707 29.1433 300.427 29.49C300.154 29.8367 299.86 30.1333 299.547 30.38C299.24 30.62 298.914 30.8067 298.567 30.94C298.227 31.0733 297.874 31.14 297.507 31.14C297.107 31.14 296.744 31.0633 296.417 30.91C296.09 30.75 295.81 30.52 295.577 30.22C295.35 29.9133 295.174 29.54 295.047 29.1C294.92 28.6533 294.857 28.1433 294.857 27.57C294.857 26.97 294.93 26.3867 295.077 25.82C295.23 25.2467 295.444 24.7067 295.717 24.2C295.997 23.6933 296.33 23.23 296.717 22.81C297.104 22.3833 297.534 22.0167 298.007 21.71C298.487 21.3967 299 21.1567 299.547 20.99C300.094 20.8167 300.667 20.73 301.267 20.73C301.7 20.73 302.12 20.7667 302.527 20.84C302.94 20.9067 303.347 21.0267 303.747 21.2L302.537 31H301.617C301.384 31 301.224 30.94 301.137 30.82C301.057 30.7 301.017 30.5533 301.017 30.38L301.207 28.33ZM307.802 23.69C308.069 23.1233 308.355 22.6333 308.662 22.22C308.975 21.8 309.302 21.4733 309.642 21.24C309.982 21 310.332 20.8567 310.692 20.81C311.052 20.7567 311.419 20.81 311.792 20.97L311.472 22.68C310.605 22.3333 309.839 22.46 309.172 23.06C308.512 23.66 307.975 24.7433 307.562 26.31L307.002 31H305.262L306.482 20.86H307.362C307.769 20.86 307.972 21.06 307.972 21.46L307.802 23.69ZM321.528 20.87L314.688 34.02C314.614 34.16 314.528 34.2633 314.428 34.33C314.334 34.3967 314.214 34.43 314.068 34.43H312.758L314.958 30.4L312.328 20.87H313.798C313.944 20.87 314.051 20.9067 314.118 20.98C314.184 21.0467 314.234 21.1333 314.268 21.24L315.898 27.62C315.931 27.76 315.958 27.9 315.978 28.04C315.998 28.18 316.014 28.32 316.028 28.46C316.088 28.32 316.148 28.18 316.208 28.04C316.268 27.8933 316.331 27.75 316.398 27.61L319.598 21.22C319.651 21.1133 319.724 21.03 319.818 20.97C319.918 20.9033 320.018 20.87 320.118 20.87H321.528ZM323.982 22.83C323.982 22.3433 323.959 21.8333 323.912 21.3C323.865 20.7667 323.792 20.2333 323.692 19.7C323.599 19.1667 323.482 18.6433 323.342 18.13C323.209 17.6167 323.052 17.1367 322.872 16.69C322.799 16.4967 322.792 16.3467 322.852 16.24C322.912 16.1333 322.995 16.0467 323.102 15.98L323.932 15.51C324.205 16.09 324.439 16.6833 324.632 17.29C324.832 17.8967 324.992 18.5067 325.112 19.12C325.239 19.7333 325.332 20.34 325.392 20.94C325.452 21.54 325.482 22.12 325.482 22.68C325.482 23.6133 325.429 24.5233 325.322 25.41C325.215 26.29 325.022 27.18 324.742 28.08C324.462 28.98 324.075 29.9067 323.582 30.86C323.089 31.8133 322.452 32.83 321.672 33.91L320.962 33.45C320.915 33.4167 320.875 33.38 320.842 33.34C320.809 33.3 320.785 33.25 320.772 33.19C320.759 33.1367 320.762 33.07 320.782 32.99C320.802 32.9167 320.845 32.83 320.912 32.73C321.399 31.97 321.832 31.2033 322.212 30.43C322.592 29.6567 322.912 28.8633 323.172 28.05C323.439 27.23 323.639 26.39 323.772 25.53C323.912 24.6633 323.982 23.7633 323.982 22.83Z" fill="black"/>
<rect x="1" y="1" width="231" height="46" rx="3" fill="#F1F1F1"/>
<path d="M28.324 31.044V33H18.904V31.044H22.504V20.22C22.504 19.836 22.516 19.444 22.54 19.044L19.768 21.384C19.648 21.48 19.524 21.544 19.396 21.576C19.276 21.6 19.16 21.6 19.048 21.576C18.944 21.552 18.848 21.516 18.76 21.468C18.68 21.412 18.616 21.352 18.568 21.288L17.764 20.16L22.972 15.684H25.072V31.044H28.324Z" fill="black"/>
<path d="M74.324 31.044V33H64.904V31.044H68.504V20.22C68.504 19.836 68.516 19.444 68.54 19.044L65.768 21.384C65.648 21.48 65.524 21.544 65.396 21.576C65.276 21.6 65.16 21.6 65.048 21.576C64.944 21.552 64.848 21.516 64.76 21.468C64.68 21.412 64.616 21.352 64.568 21.288L63.764 20.16L68.972 15.684H71.072V31.044H74.324Z" fill="black"/>
<path d="M121.26 24.36C121.26 25.872 121.096 27.18 120.768 28.284C120.448 29.388 120.004 30.304 119.436 31.032C118.868 31.76 118.2 32.3 117.432 32.652C116.664 33.004 115.836 33.18 114.948 33.18C114.06 33.18 113.232 33.004 112.464 32.652C111.696 32.3 111.028 31.76 110.46 31.032C109.9 30.304 109.46 29.388 109.14 28.284C108.82 27.18 108.66 25.872 108.66 24.36C108.66 22.848 108.82 21.54 109.14 20.436C109.46 19.324 109.9 18.408 110.46 17.688C111.028 16.96 111.696 16.42 112.464 16.068C113.232 15.708 114.06 15.528 114.948 15.528C115.836 15.528 116.664 15.708 117.432 16.068C118.2 16.42 118.868 16.96 119.436 17.688C120.004 18.408 120.448 19.324 120.768 20.436C121.096 21.54 121.26 22.848 121.26 24.36ZM118.596 24.36C118.596 23.08 118.492 22.016 118.284 21.168C118.084 20.312 117.816 19.628 117.48 19.116C117.144 18.604 116.756 18.24 116.316 18.024C115.876 17.808 115.42 17.7 114.948 17.7C114.468 17.7 114.008 17.808 113.568 18.024C113.136 18.24 112.752 18.604 112.416 19.116C112.08 19.628 111.812 20.312 111.612 21.168C111.412 22.016 111.312 23.08 111.312 24.36C111.312 25.64 111.412 26.708 111.612 27.564C111.812 28.412 112.08 29.092 112.416 29.604C112.752 30.116 113.136 30.48 113.568 30.696C114.008 30.912 114.468 31.02 114.948 31.02C115.42 31.02 115.876 30.912 116.316 30.696C116.756 30.48 117.144 30.116 117.48 29.604C117.816 29.092 118.084 28.412 118.284 27.564C118.492 26.708 118.596 25.64 118.596 24.36Z" fill="black"/>
<path d="M166.324 31.044V33H156.904V31.044H160.504V20.22C160.504 19.836 160.516 19.444 160.54 19.044L157.768 21.384C157.648 21.48 157.524 21.544 157.396 21.576C157.276 21.6 157.16 21.6 157.048 21.576C156.944 21.552 156.848 21.516 156.76 21.468C156.68 21.412 156.616 21.352 156.568 21.288L155.764 20.16L160.972 15.684H163.072V31.044H166.324Z" fill="black"/>
<path d="M212.324 31.044V33H202.904V31.044H206.504V20.22C206.504 19.836 206.516 19.444 206.54 19.044L203.768 21.384C203.648 21.48 203.524 21.544 203.396 21.576C203.276 21.6 203.16 21.6 203.048 21.576C202.944 21.552 202.848 21.516 202.76 21.468C202.68 21.412 202.616 21.352 202.568 21.288L201.764 20.16L206.972 15.684H209.072V31.044H212.324Z" fill="black"/>
<line x1="47" x2="47" y2="48" stroke="black" stroke-width="2"/>
<line x1="93" x2="93" y2="48" stroke="black" stroke-width="2"/>
<line x1="139" x2="139" y2="48" stroke="black" stroke-width="2"/>
<line x1="185" x2="185" y2="48" stroke="black" stroke-width="2"/>
<rect x="1" y="1" width="231" height="46" rx="3" stroke="black" stroke-width="2"/>
<rect x="1" y="1" width="231" height="46" rx="3" stroke="black" stroke-opacity="0.2" stroke-width="2"/>
</svg>
