<svg width="605" height="29" viewBox="0 0 605 29" fill="none" xmlns="http://www.w3.org/2000/svg">
<path d="M532.37 15.59C532.37 16.0833 532.393 16.5967 532.44 17.13C532.487 17.6567 532.553 18.1867 532.64 18.72C532.733 19.2533 532.85 19.7767 532.99 20.29C533.13 20.8033 533.29 21.2833 533.47 21.73C533.543 21.93 533.547 22.0833 533.48 22.19C533.42 22.2967 533.337 22.3833 533.23 22.45L532.42 22.91C532.14 22.3367 531.9 21.7433 531.7 21.13C531.507 20.5233 531.347 19.9133 531.22 19.3C531.093 18.6867 531 18.08 530.94 17.48C530.88 16.88 530.85 16.3033 530.85 15.75C530.85 14.8167 530.903 13.91 531.01 13.03C531.117 12.1433 531.31 11.25 531.59 10.35C531.877 9.45 532.267 8.52333 532.76 7.57C533.253 6.61 533.89 5.59 534.67 4.51L535.38 4.98C535.467 5.04667 535.53 5.13333 535.57 5.24C535.61 5.34667 535.567 5.49667 535.44 5.69C534.947 6.45 534.51 7.21 534.13 7.97C533.75 8.72333 533.43 9.5 533.17 10.3C532.91 11.1 532.71 11.9367 532.57 12.81C532.437 13.6767 532.37 14.6033 532.37 15.59ZM542.488 12.08C542.235 11.72 541.928 11.47 541.568 11.33C541.215 11.1833 540.855 11.11 540.488 11.11C539.962 11.11 539.488 11.2667 539.068 11.58C538.648 11.8933 538.288 12.3 537.988 12.8C537.695 13.2933 537.468 13.8467 537.308 14.46C537.148 15.0733 537.068 15.6767 537.068 16.27C537.068 17.0633 537.208 17.67 537.488 18.09C537.775 18.5033 538.182 18.71 538.708 18.71C539.028 18.71 539.352 18.61 539.678 18.41C540.005 18.21 540.318 17.9333 540.618 17.58C540.925 17.22 541.208 16.7967 541.468 16.31C541.735 15.8233 541.965 15.29 542.158 14.71L542.488 12.08ZM545.068 5.27L543.258 20H542.328C542.095 20 541.938 19.94 541.858 19.82C541.778 19.7 541.738 19.5533 541.738 19.38L541.928 17.25C541.675 17.69 541.398 18.0867 541.098 18.44C540.798 18.7933 540.482 19.0967 540.148 19.35C539.822 19.6033 539.478 19.8 539.118 19.94C538.765 20.0733 538.405 20.14 538.038 20.14C537.172 20.14 536.498 19.8267 536.018 19.2C535.538 18.5667 535.298 17.65 535.298 16.45C535.298 15.9033 535.355 15.3567 535.468 14.81C535.582 14.2633 535.742 13.74 535.948 13.24C536.162 12.74 536.415 12.2767 536.708 11.85C537.008 11.4167 537.342 11.0433 537.708 10.73C538.075 10.4167 538.468 10.17 538.888 9.99C539.315 9.81 539.762 9.72 540.228 9.72C540.728 9.72 541.182 9.82 541.588 10.02C542.002 10.2133 542.352 10.49 542.638 10.85L543.328 5.27H545.068ZM551.174 11.01C550.754 11.01 550.368 11.0967 550.014 11.27C549.661 11.4433 549.348 11.6833 549.074 11.99C548.801 12.29 548.568 12.6467 548.374 13.06C548.181 13.4667 548.031 13.9067 547.924 14.38C548.951 14.2533 549.774 14.11 550.394 13.95C551.014 13.7833 551.491 13.6067 551.824 13.42C552.158 13.2267 552.378 13.02 552.484 12.8C552.591 12.58 552.644 12.35 552.644 12.11C552.644 11.99 552.618 11.8667 552.564 11.74C552.511 11.6067 552.424 11.4867 552.304 11.38C552.191 11.2733 552.041 11.1867 551.854 11.12C551.668 11.0467 551.441 11.01 551.174 11.01ZM553.994 18.13C553.654 18.4833 553.321 18.7867 552.994 19.04C552.668 19.2867 552.334 19.4933 551.994 19.66C551.661 19.8267 551.308 19.9467 550.934 20.02C550.568 20.1 550.171 20.14 549.744 20.14C549.164 20.14 548.644 20.0433 548.184 19.85C547.724 19.6567 547.334 19.3833 547.014 19.03C546.694 18.67 546.448 18.2367 546.274 17.73C546.101 17.2233 546.014 16.6567 546.014 16.03C546.014 15.51 546.068 14.9933 546.174 14.48C546.288 13.96 546.448 13.4667 546.654 13C546.868 12.5333 547.124 12.1 547.424 11.7C547.731 11.3 548.078 10.9567 548.464 10.67C548.858 10.3767 549.288 10.1467 549.754 9.98C550.228 9.81333 550.734 9.73 551.274 9.73C551.788 9.73 552.231 9.80333 552.604 9.95C552.978 10.0967 553.284 10.2833 553.524 10.51C553.764 10.7367 553.941 10.9867 554.054 11.26C554.174 11.5333 554.234 11.7933 554.234 12.04C554.234 12.48 554.144 12.8867 553.964 13.26C553.784 13.6267 553.454 13.96 552.974 14.26C552.494 14.5533 551.834 14.81 550.994 15.03C550.154 15.25 549.074 15.4267 547.754 15.56C547.754 15.6333 547.751 15.7067 547.744 15.78C547.744 15.8467 547.744 15.9167 547.744 15.99C547.744 16.8833 547.938 17.5667 548.324 18.04C548.718 18.5067 549.308 18.74 550.094 18.74C550.414 18.74 550.698 18.7067 550.944 18.64C551.198 18.5733 551.421 18.4933 551.614 18.4C551.814 18.3 551.988 18.1933 552.134 18.08C552.288 17.96 552.424 17.8533 552.544 17.76C552.671 17.66 552.788 17.5767 552.894 17.51C553.001 17.4433 553.108 17.41 553.214 17.41C553.341 17.41 553.454 17.4667 553.554 17.58L553.994 18.13ZM563.246 18.18C562.899 18.56 562.569 18.8767 562.256 19.13C561.942 19.3833 561.629 19.5867 561.316 19.74C561.002 19.8867 560.676 19.99 560.336 20.05C560.002 20.11 559.642 20.14 559.256 20.14C558.669 20.14 558.149 20.04 557.696 19.84C557.249 19.64 556.872 19.36 556.566 19C556.266 18.6333 556.036 18.1967 555.876 17.69C555.722 17.1767 555.646 16.6133 555.646 16C555.646 15.18 555.772 14.3933 556.026 13.64C556.286 12.8867 556.646 12.22 557.106 11.64C557.566 11.06 558.112 10.5967 558.746 10.25C559.386 9.90333 560.082 9.73 560.836 9.73C561.509 9.73 562.072 9.85 562.526 10.09C562.979 10.3233 563.376 10.6667 563.716 11.12L563.156 11.79C563.109 11.8433 563.056 11.8867 562.996 11.92C562.942 11.9533 562.879 11.97 562.806 11.97C562.712 11.97 562.619 11.93 562.526 11.85C562.439 11.7633 562.322 11.67 562.176 11.57C562.029 11.4633 561.846 11.37 561.626 11.29C561.412 11.2033 561.136 11.16 560.796 11.16C560.336 11.16 559.902 11.2867 559.496 11.54C559.089 11.7867 558.732 12.1267 558.426 12.56C558.119 12.9933 557.876 13.5067 557.696 14.1C557.522 14.6933 557.436 15.33 557.436 16.01C557.436 16.4233 557.482 16.8 557.576 17.14C557.669 17.4733 557.809 17.76 557.996 18C558.182 18.2333 558.409 18.4167 558.676 18.55C558.949 18.6767 559.266 18.74 559.626 18.74C560.072 18.74 560.446 18.6733 560.746 18.54C561.052 18.4067 561.309 18.2633 561.516 18.11C561.722 17.95 561.896 17.8033 562.036 17.67C562.182 17.5367 562.326 17.47 562.466 17.47C562.592 17.47 562.706 17.5267 562.806 17.64L563.246 18.18ZM567.908 9.87L566.688 20H564.938L566.158 9.87H567.908ZM568.588 6.69C568.588 6.86333 568.551 7.02667 568.478 7.18C568.411 7.32667 568.318 7.46 568.198 7.58C568.084 7.69333 567.951 7.78333 567.798 7.85C567.651 7.91667 567.498 7.95 567.338 7.95C567.184 7.95 567.034 7.91667 566.888 7.85C566.741 7.78333 566.611 7.69333 566.498 7.58C566.391 7.46 566.304 7.32667 566.238 7.18C566.171 7.02667 566.138 6.86333 566.138 6.69C566.138 6.51667 566.171 6.35333 566.238 6.2C566.304 6.04667 566.394 5.91333 566.508 5.8C566.621 5.68 566.751 5.58667 566.898 5.52C567.044 5.44667 567.194 5.41 567.348 5.41C567.508 5.41 567.661 5.44333 567.808 5.51C567.961 5.57667 568.094 5.67 568.208 5.79C568.321 5.90333 568.411 6.04 568.478 6.2C568.551 6.35333 568.588 6.51667 568.588 6.69ZM569.547 20L570.767 9.86H571.647C572.054 9.86 572.257 10.06 572.257 10.46L572.117 12.26C572.617 11.4267 573.164 10.7967 573.757 10.37C574.357 9.93667 574.984 9.72 575.637 9.72C576.324 9.72 576.83 9.95667 577.157 10.43C577.484 10.8967 577.647 11.5667 577.647 12.44C578.147 11.5133 578.71 10.83 579.337 10.39C579.97 9.94333 580.637 9.72 581.337 9.72C582.204 9.72 582.817 10.0533 583.177 10.72C583.537 11.3867 583.644 12.33 583.497 13.55L582.737 20H580.977L581.747 13.55C581.84 12.7567 581.814 12.1667 581.667 11.78C581.527 11.3933 581.207 11.2 580.707 11.2C580.42 11.2 580.134 11.2733 579.847 11.42C579.567 11.56 579.294 11.77 579.027 12.05C578.76 12.3233 578.51 12.6667 578.277 13.08C578.05 13.4867 577.847 13.9567 577.667 14.49V14.5L577.017 20H575.257L576.017 13.55C576.117 12.7567 576.104 12.1667 575.977 11.78C575.85 11.3933 575.537 11.2 575.037 11.2C574.717 11.2 574.407 11.28 574.107 11.44C573.814 11.6 573.534 11.8333 573.267 12.14C573.007 12.44 572.764 12.81 572.537 13.25C572.31 13.6833 572.104 14.1733 571.917 14.72L571.287 20H569.547ZM592.329 11.11C592.183 11.0767 592.036 11.0567 591.889 11.05C591.749 11.0367 591.609 11.03 591.469 11.03C591.069 11.03 590.683 11.0967 590.309 11.23C589.936 11.3567 589.586 11.5367 589.259 11.77C588.933 12.0033 588.636 12.2833 588.369 12.61C588.103 12.93 587.873 13.2833 587.679 13.67C587.493 14.0567 587.346 14.47 587.239 14.91C587.133 15.3433 587.079 15.79 587.079 16.25C587.079 17.8567 587.593 18.66 588.619 18.66C588.946 18.66 589.266 18.56 589.579 18.36C589.893 18.1533 590.189 17.87 590.469 17.51C590.756 17.1433 591.019 16.7133 591.259 16.22C591.499 15.72 591.713 15.1733 591.899 14.58L592.329 11.11ZM591.649 17.33C591.409 17.7567 591.149 18.1433 590.869 18.49C590.596 18.8367 590.303 19.1333 589.989 19.38C589.683 19.62 589.356 19.8067 589.009 19.94C588.669 20.0733 588.316 20.14 587.949 20.14C587.549 20.14 587.186 20.0633 586.859 19.91C586.533 19.75 586.253 19.52 586.019 19.22C585.793 18.9133 585.616 18.54 585.489 18.1C585.363 17.6533 585.299 17.1433 585.299 16.57C585.299 15.97 585.373 15.3867 585.519 14.82C585.673 14.2467 585.886 13.7067 586.159 13.2C586.439 12.6933 586.773 12.23 587.159 11.81C587.546 11.3833 587.976 11.0167 588.449 10.71C588.929 10.3967 589.443 10.1567 589.989 9.99C590.536 9.81667 591.109 9.73 591.709 9.73C592.143 9.73 592.563 9.76667 592.969 9.84C593.383 9.90667 593.789 10.0267 594.189 10.2L592.979 20H592.059C591.826 20 591.666 19.94 591.579 19.82C591.499 19.7 591.459 19.5533 591.459 19.38L591.649 17.33ZM595.754 20L597.544 5.27H599.294L597.504 20H595.754ZM602.566 11.83C602.566 11.3433 602.543 10.8333 602.496 10.3C602.45 9.76667 602.376 9.23333 602.276 8.7C602.183 8.16667 602.066 7.64333 601.926 7.13C601.793 6.61667 601.636 6.13667 601.456 5.69C601.383 5.49667 601.376 5.34667 601.436 5.24C601.496 5.13333 601.58 5.04667 601.686 4.98L602.516 4.51C602.79 5.09 603.023 5.68333 603.216 6.29C603.416 6.89667 603.576 7.50667 603.696 8.12C603.823 8.73333 603.916 9.34 603.976 9.94C604.036 10.54 604.066 11.12 604.066 11.68C604.066 12.6133 604.013 13.5233 603.906 14.41C603.8 15.29 603.606 16.18 603.326 17.08C603.046 17.98 602.66 18.9067 602.166 19.86C601.673 20.8133 601.036 21.83 600.256 22.91L599.546 22.45C599.5 22.4167 599.46 22.38 599.426 22.34C599.393 22.3 599.37 22.25 599.356 22.19C599.343 22.1367 599.346 22.07 599.366 21.99C599.386 21.9167 599.43 21.83 599.496 21.73C599.983 20.97 600.416 20.2033 600.796 19.43C601.176 18.6567 601.496 17.8633 601.756 17.05C602.023 16.23 602.223 15.39 602.356 14.53C602.496 13.6633 602.566 12.7633 602.566 11.83Z" fill="black"/>
<path d="M11.808 21.564C12.088 21.564 12.308 21.648 12.468 21.816C12.628 21.976 12.708 22.184 12.708 22.44V24H1.02V23.124C1.02 22.948 1.056 22.764 1.128 22.572C1.2 22.38 1.316 22.204 1.476 22.044L6.852 16.656C7.308 16.2 7.712 15.764 8.064 15.348C8.424 14.932 8.728 14.516 8.976 14.1C9.232 13.684 9.424 13.264 9.552 12.84C9.688 12.408 9.756 11.956 9.756 11.484C9.756 11.028 9.684 10.628 9.54 10.284C9.404 9.932 9.212 9.644 8.964 9.42C8.724 9.188 8.432 9.016 8.088 8.904C7.752 8.784 7.38 8.724 6.972 8.724C6.58 8.724 6.216 8.78 5.88 8.892C5.552 9.004 5.256 9.16 4.992 9.36C4.736 9.56 4.52 9.8 4.344 10.08C4.176 10.352 4.052 10.652 3.972 10.98C3.852 11.308 3.696 11.528 3.504 11.64C3.32 11.752 3.048 11.776 2.688 11.712L1.332 11.472C1.452 10.656 1.676 9.94 2.004 9.324C2.34 8.708 2.76 8.196 3.264 7.788C3.768 7.372 4.344 7.06 4.992 6.852C5.648 6.636 6.356 6.528 7.116 6.528C7.884 6.528 8.588 6.644 9.228 6.876C9.876 7.1 10.432 7.424 10.896 7.848C11.368 8.264 11.736 8.772 12 9.372C12.264 9.972 12.396 10.648 12.396 11.4C12.396 12.04 12.3 12.632 12.108 13.176C11.924 13.72 11.672 14.24 11.352 14.736C11.032 15.232 10.656 15.716 10.224 16.188C9.8 16.652 9.352 17.124 8.88 17.604L4.704 21.876C5.048 21.78 5.392 21.704 5.736 21.648C6.088 21.592 6.42 21.564 6.732 21.564H11.808ZM18.6859 9.888V7.488C18.6859 7.312 18.6899 7.124 18.6979 6.924C18.7139 6.716 18.7379 6.5 18.7699 6.276L16.1179 9.888H18.6859ZM21.4459 9.888V10.836C21.4459 10.924 21.4139 11.004 21.3499 11.076C21.2859 11.148 21.1979 11.184 21.0859 11.184H20.2459V13.2H18.6859V11.184H15.1219C14.9539 11.184 14.8219 11.148 14.7259 11.076C14.6299 10.996 14.5699 10.9 14.5459 10.788L14.3899 9.984L18.4579 4.38H20.2459V9.888H21.4459ZM41.0421 16.92H36.2781V21.948H34.1781V16.92H29.4381V14.976H34.1781V9.96H36.2781V14.976H41.0421V16.92ZM60.2205 21.564C60.5005 21.564 60.7205 21.648 60.8805 21.816C61.0405 21.976 61.1205 22.184 61.1205 22.44V24H49.4325V23.124C49.4325 22.948 49.4685 22.764 49.5405 22.572C49.6125 22.38 49.7285 22.204 49.8885 22.044L55.2645 16.656C55.7205 16.2 56.1245 15.764 56.4765 15.348C56.8365 14.932 57.1405 14.516 57.3885 14.1C57.6445 13.684 57.8365 13.264 57.9645 12.84C58.1005 12.408 58.1685 11.956 58.1685 11.484C58.1685 11.028 58.0965 10.628 57.9525 10.284C57.8165 9.932 57.6245 9.644 57.3765 9.42C57.1365 9.188 56.8445 9.016 56.5005 8.904C56.1645 8.784 55.7925 8.724 55.3845 8.724C54.9925 8.724 54.6285 8.78 54.2925 8.892C53.9645 9.004 53.6685 9.16 53.4045 9.36C53.1485 9.56 52.9325 9.8 52.7565 10.08C52.5885 10.352 52.4645 10.652 52.3845 10.98C52.2645 11.308 52.1085 11.528 51.9165 11.64C51.7325 11.752 51.4605 11.776 51.1005 11.712L49.7445 11.472C49.8645 10.656 50.0885 9.94 50.4165 9.324C50.7525 8.708 51.1725 8.196 51.6765 7.788C52.1805 7.372 52.7565 7.06 53.4045 6.852C54.0605 6.636 54.7685 6.528 55.5285 6.528C56.2965 6.528 57.0005 6.644 57.6405 6.876C58.2885 7.1 58.8445 7.424 59.3085 7.848C59.7805 8.264 60.1485 8.772 60.4125 9.372C60.6765 9.972 60.8085 10.648 60.8085 11.4C60.8085 12.04 60.7125 12.632 60.5205 13.176C60.3365 13.72 60.0845 14.24 59.7645 14.736C59.4445 15.232 59.0685 15.716 58.6365 16.188C58.2125 16.652 57.7645 17.124 57.2925 17.604L53.1165 21.876C53.4605 21.78 53.8045 21.704 54.1485 21.648C54.5005 21.592 54.8325 21.564 55.1445 21.564H60.2205ZM63.4504 6.9C63.5144 6.46 63.6344 6.076 63.8104 5.748C63.9944 5.42 64.2224 5.148 64.4944 4.932C64.7664 4.716 65.0744 4.556 65.4184 4.452C65.7704 4.34 66.1464 4.284 66.5464 4.284C66.9784 4.284 67.3664 4.348 67.7104 4.476C68.0544 4.596 68.3464 4.76 68.5864 4.968C68.8264 5.176 69.0104 5.42 69.1384 5.7C69.2664 5.972 69.3304 6.26 69.3304 6.564C69.3304 7.58 68.8784 8.276 67.9744 8.652C68.4784 8.804 68.8584 9.032 69.1144 9.336C69.3784 9.632 69.5104 10.024 69.5104 10.512C69.5104 10.984 69.4224 11.396 69.2464 11.748C69.0704 12.092 68.8384 12.38 68.5504 12.612C68.2624 12.836 67.9304 13.008 67.5544 13.128C67.1864 13.24 66.8104 13.296 66.4264 13.296C65.9864 13.296 65.5944 13.252 65.2504 13.164C64.9144 13.076 64.6144 12.936 64.3504 12.744C64.0944 12.552 63.8744 12.308 63.6904 12.012C63.5064 11.708 63.3464 11.348 63.2104 10.932L64.0144 10.584C64.2224 10.496 64.4144 10.476 64.5904 10.524C64.7744 10.564 64.9024 10.66 64.9744 10.812C65.0144 10.9 65.0664 11 65.1304 11.112C65.1944 11.216 65.2784 11.316 65.3824 11.412C65.4864 11.508 65.6144 11.588 65.7664 11.652C65.9264 11.716 66.1144 11.748 66.3304 11.748C66.5464 11.748 66.7344 11.716 66.8944 11.652C67.0544 11.588 67.1904 11.504 67.3024 11.4C67.4144 11.288 67.4984 11.164 67.5544 11.028C67.6104 10.884 67.6384 10.736 67.6384 10.584C67.6384 10.36 67.6064 10.172 67.5424 10.02C67.4784 9.86 67.3744 9.732 67.2304 9.636C67.0864 9.532 66.8944 9.46 66.6544 9.42C66.4144 9.372 66.1184 9.348 65.7664 9.348V8.112C66.1024 8.104 66.3824 8.072 66.6064 8.016C66.8384 7.96 67.0224 7.88 67.1584 7.776C67.3024 7.672 67.4024 7.548 67.4584 7.404C67.5144 7.252 67.5424 7.084 67.5424 6.9C67.5424 6.556 67.4464 6.292 67.2544 6.108C67.0624 5.916 66.7944 5.82 66.4504 5.82C66.1144 5.82 65.8504 5.9 65.6584 6.06C65.4664 6.212 65.3264 6.42 65.2384 6.684C65.1504 6.868 65.0504 6.988 64.9384 7.044C64.8344 7.1 64.6584 7.108 64.4104 7.068L63.4504 6.9ZM89.4546 16.92H84.6906V21.948H82.5906V16.92H77.8506V14.976H82.5906V9.96H84.6906V14.976H89.4546V16.92ZM110.085 15.36C110.085 16.872 109.921 18.18 109.593 19.284C109.273 20.388 108.829 21.304 108.261 22.032C107.693 22.76 107.025 23.3 106.257 23.652C105.489 24.004 104.661 24.18 103.773 24.18C102.885 24.18 102.057 24.004 101.289 23.652C100.521 23.3 99.853 22.76 99.285 22.032C98.725 21.304 98.285 20.388 97.965 19.284C97.645 18.18 97.485 16.872 97.485 15.36C97.485 13.848 97.645 12.54 97.965 11.436C98.285 10.324 98.725 9.408 99.285 8.688C99.853 7.96 100.521 7.42 101.289 7.068C102.057 6.708 102.885 6.528 103.773 6.528C104.661 6.528 105.489 6.708 106.257 7.068C107.025 7.42 107.693 7.96 108.261 8.688C108.829 9.408 109.273 10.324 109.593 11.436C109.921 12.54 110.085 13.848 110.085 15.36ZM107.421 15.36C107.421 14.08 107.317 13.016 107.109 12.168C106.909 11.312 106.641 10.628 106.305 10.116C105.969 9.604 105.581 9.24 105.141 9.024C104.701 8.808 104.245 8.7 103.773 8.7C103.293 8.7 102.833 8.808 102.393 9.024C101.961 9.24 101.577 9.604 101.241 10.116C100.905 10.628 100.637 11.312 100.437 12.168C100.237 13.016 100.137 14.08 100.137 15.36C100.137 16.64 100.237 17.708 100.437 18.564C100.637 19.412 100.905 20.092 101.241 20.604C101.577 21.116 101.961 21.48 102.393 21.696C102.833 21.912 103.293 22.02 103.773 22.02C104.245 22.02 104.701 21.912 105.141 21.696C105.581 21.48 105.969 21.116 106.305 20.604C106.641 20.092 106.909 19.412 107.109 18.564C107.317 17.708 107.421 16.64 107.421 15.36ZM129.731 16.92H124.967V21.948H122.867V16.92H118.127V14.976H122.867V9.96H124.967V14.976H129.731V16.92ZM148.91 21.564C149.19 21.564 149.41 21.648 149.57 21.816C149.73 21.976 149.81 22.184 149.81 22.44V24H138.122V23.124C138.122 22.948 138.158 22.764 138.23 22.572C138.302 22.38 138.418 22.204 138.578 22.044L143.954 16.656C144.41 16.2 144.814 15.764 145.166 15.348C145.526 14.932 145.83 14.516 146.078 14.1C146.334 13.684 146.526 13.264 146.654 12.84C146.79 12.408 146.858 11.956 146.858 11.484C146.858 11.028 146.786 10.628 146.642 10.284C146.506 9.932 146.314 9.644 146.066 9.42C145.826 9.188 145.534 9.016 145.19 8.904C144.854 8.784 144.482 8.724 144.074 8.724C143.682 8.724 143.318 8.78 142.982 8.892C142.654 9.004 142.358 9.16 142.094 9.36C141.838 9.56 141.622 9.8 141.446 10.08C141.278 10.352 141.154 10.652 141.074 10.98C140.954 11.308 140.798 11.528 140.606 11.64C140.422 11.752 140.15 11.776 139.79 11.712L138.434 11.472C138.554 10.656 138.778 9.94 139.106 9.324C139.442 8.708 139.862 8.196 140.366 7.788C140.87 7.372 141.446 7.06 142.094 6.852C142.75 6.636 143.458 6.528 144.218 6.528C144.986 6.528 145.69 6.644 146.33 6.876C146.978 7.1 147.534 7.424 147.998 7.848C148.47 8.264 148.838 8.772 149.102 9.372C149.366 9.972 149.498 10.648 149.498 11.4C149.498 12.04 149.402 12.632 149.21 13.176C149.026 13.72 148.774 14.24 148.454 14.736C148.134 15.232 147.758 15.716 147.326 16.188C146.902 16.652 146.454 17.124 145.982 17.604L141.806 21.876C142.15 21.78 142.494 21.704 142.838 21.648C143.19 21.592 143.522 21.564 143.834 21.564H148.91ZM157.636 11.496C157.836 11.496 157.988 11.552 158.092 11.664C158.204 11.768 158.26 11.912 158.26 12.096V13.2H151.936V12.588C151.936 12.468 151.96 12.34 152.008 12.204C152.056 12.068 152.136 11.944 152.248 11.832L154.828 9.288C155.02 9.104 155.196 8.912 155.356 8.712C155.524 8.512 155.668 8.312 155.788 8.112C155.908 7.904 156.004 7.7 156.076 7.5C156.148 7.292 156.184 7.092 156.184 6.9C156.184 6.556 156.084 6.284 155.884 6.084C155.684 5.884 155.428 5.784 155.116 5.784C154.804 5.784 154.552 5.864 154.36 6.024C154.168 6.184 154.02 6.408 153.916 6.696C153.82 6.856 153.712 6.968 153.592 7.032C153.472 7.096 153.288 7.108 153.04 7.068L152.008 6.9C152.136 6.02 152.488 5.364 153.064 4.932C153.64 4.5 154.356 4.284 155.212 4.284C155.652 4.284 156.048 4.348 156.4 4.476C156.76 4.604 157.06 4.78 157.3 5.004C157.548 5.228 157.736 5.496 157.864 5.808C158 6.12 158.068 6.46 158.068 6.828C158.068 7.156 158.016 7.456 157.912 7.728C157.816 8 157.684 8.264 157.516 8.52C157.348 8.768 157.156 9.008 156.94 9.24C156.724 9.472 156.5 9.708 156.268 9.948L154.552 11.688C154.76 11.624 154.96 11.576 155.152 11.544C155.352 11.512 155.54 11.496 155.716 11.496H157.636ZM178.144 16.92H173.38V21.948H171.28V16.92H166.54V14.976H171.28V9.96H173.38V14.976H178.144V16.92ZM197.322 21.564C197.602 21.564 197.822 21.648 197.982 21.816C198.142 21.976 198.222 22.184 198.222 22.44V24H186.534V23.124C186.534 22.948 186.57 22.764 186.642 22.572C186.714 22.38 186.83 22.204 186.99 22.044L192.366 16.656C192.822 16.2 193.226 15.764 193.578 15.348C193.938 14.932 194.242 14.516 194.49 14.1C194.746 13.684 194.938 13.264 195.066 12.84C195.202 12.408 195.27 11.956 195.27 11.484C195.27 11.028 195.198 10.628 195.054 10.284C194.918 9.932 194.726 9.644 194.478 9.42C194.238 9.188 193.946 9.016 193.602 8.904C193.266 8.784 192.894 8.724 192.486 8.724C192.094 8.724 191.73 8.78 191.394 8.892C191.066 9.004 190.77 9.16 190.506 9.36C190.25 9.56 190.034 9.8 189.858 10.08C189.69 10.352 189.566 10.652 189.486 10.98C189.366 11.308 189.21 11.528 189.018 11.64C188.834 11.752 188.562 11.776 188.202 11.712L186.846 11.472C186.966 10.656 187.19 9.94 187.518 9.324C187.854 8.708 188.274 8.196 188.778 7.788C189.282 7.372 189.858 7.06 190.506 6.852C191.162 6.636 191.87 6.528 192.63 6.528C193.398 6.528 194.102 6.644 194.742 6.876C195.39 7.1 195.946 7.424 196.41 7.848C196.882 8.264 197.25 8.772 197.514 9.372C197.778 9.972 197.91 10.648 197.91 11.4C197.91 12.04 197.814 12.632 197.622 13.176C197.438 13.72 197.186 14.24 196.866 14.736C196.546 15.232 196.17 15.716 195.738 16.188C195.314 16.652 194.866 17.124 194.394 17.604L190.218 21.876C190.562 21.78 190.906 21.704 191.25 21.648C191.602 21.592 191.934 21.564 192.246 21.564H197.322ZM206.408 11.988V13.2H201.38V11.988H203.084V7.236L203.144 6.672L202.052 7.548C201.964 7.612 201.876 7.652 201.788 7.668C201.708 7.684 201.632 7.684 201.56 7.668C201.488 7.652 201.42 7.624 201.356 7.584C201.3 7.544 201.256 7.504 201.224 7.464L200.66 6.672L203.396 4.356H204.944V11.988H206.408ZM226.556 16.92H221.792V21.948H219.692V16.92H214.952V14.976H219.692V9.96H221.792V14.976H226.556V16.92ZM245.735 21.564C246.015 21.564 246.235 21.648 246.395 21.816C246.555 21.976 246.635 22.184 246.635 22.44V24H234.947V23.124C234.947 22.948 234.983 22.764 235.055 22.572C235.127 22.38 235.243 22.204 235.403 22.044L240.779 16.656C241.235 16.2 241.639 15.764 241.991 15.348C242.351 14.932 242.655 14.516 242.903 14.1C243.159 13.684 243.351 13.264 243.479 12.84C243.615 12.408 243.683 11.956 243.683 11.484C243.683 11.028 243.611 10.628 243.467 10.284C243.331 9.932 243.139 9.644 242.891 9.42C242.651 9.188 242.359 9.016 242.015 8.904C241.679 8.784 241.307 8.724 240.899 8.724C240.507 8.724 240.143 8.78 239.807 8.892C239.479 9.004 239.183 9.16 238.919 9.36C238.663 9.56 238.447 9.8 238.271 10.08C238.103 10.352 237.979 10.652 237.899 10.98C237.779 11.308 237.623 11.528 237.431 11.64C237.247 11.752 236.975 11.776 236.615 11.712L235.259 11.472C235.379 10.656 235.603 9.94 235.931 9.324C236.267 8.708 236.687 8.196 237.191 7.788C237.695 7.372 238.271 7.06 238.919 6.852C239.575 6.636 240.283 6.528 241.043 6.528C241.811 6.528 242.515 6.644 243.155 6.876C243.803 7.1 244.359 7.424 244.823 7.848C245.295 8.264 245.663 8.772 245.927 9.372C246.191 9.972 246.323 10.648 246.323 11.4C246.323 12.04 246.227 12.632 246.035 13.176C245.851 13.72 245.599 14.24 245.279 14.736C244.959 15.232 244.583 15.716 244.151 16.188C243.727 16.652 243.279 17.124 242.807 17.604L238.631 21.876C238.975 21.78 239.319 21.704 239.663 21.648C240.015 21.592 240.347 21.564 240.659 21.564H245.735ZM255.325 8.796C255.325 9.564 255.237 10.232 255.061 10.8C254.885 11.36 254.645 11.828 254.341 12.204C254.037 12.572 253.677 12.848 253.261 13.032C252.853 13.208 252.417 13.296 251.953 13.296C251.489 13.296 251.053 13.208 250.645 13.032C250.245 12.848 249.893 12.572 249.589 12.204C249.293 11.828 249.057 11.36 248.881 10.8C248.713 10.232 248.629 9.564 248.629 8.796C248.629 8.02 248.713 7.352 248.881 6.792C249.057 6.224 249.293 5.756 249.589 5.388C249.893 5.012 250.245 4.736 250.645 4.56C251.053 4.376 251.489 4.284 251.953 4.284C252.417 4.284 252.853 4.376 253.261 4.56C253.677 4.736 254.037 5.012 254.341 5.388C254.645 5.756 254.885 6.224 255.061 6.792C255.237 7.352 255.325 8.02 255.325 8.796ZM253.453 8.796C253.453 8.18 253.413 7.676 253.333 7.284C253.261 6.892 253.157 6.588 253.021 6.372C252.893 6.148 252.737 5.996 252.553 5.916C252.369 5.828 252.169 5.784 251.953 5.784C251.737 5.784 251.537 5.828 251.353 5.916C251.177 5.996 251.025 6.148 250.897 6.372C250.777 6.588 250.681 6.892 250.609 7.284C250.537 7.676 250.501 8.18 250.501 8.796C250.501 9.404 250.537 9.904 250.609 10.296C250.689 10.68 250.793 10.984 250.921 11.208C251.057 11.424 251.213 11.576 251.389 11.664C251.565 11.744 251.753 11.784 251.953 11.784C252.153 11.784 252.341 11.744 252.517 11.664C252.701 11.576 252.861 11.424 252.997 11.208C253.141 10.984 253.253 10.68 253.333 10.296C253.413 9.904 253.453 9.404 253.453 8.796ZM263.917 17.016H274.405V18.972H263.917V17.016ZM263.917 12.888H274.405V14.832H263.917V12.888ZM294.663 22.044V24H285.243V22.044H288.843V11.22C288.843 10.836 288.855 10.444 288.879 10.044L286.107 12.384C285.987 12.48 285.863 12.544 285.735 12.576C285.615 12.6 285.499 12.6 285.387 12.576C285.283 12.552 285.187 12.516 285.099 12.468C285.019 12.412 284.955 12.352 284.907 12.288L284.103 11.16L289.311 6.684H291.411V22.044H294.663ZM303.317 22.056C303.837 22.056 304.313 21.972 304.745 21.804C305.177 21.628 305.545 21.388 305.849 21.084C306.161 20.78 306.401 20.42 306.569 20.004C306.737 19.588 306.821 19.136 306.821 18.648C306.821 18.12 306.737 17.648 306.569 17.232C306.409 16.808 306.177 16.452 305.873 16.164C305.577 15.876 305.217 15.656 304.793 15.504C304.377 15.344 303.917 15.264 303.413 15.264C302.893 15.264 302.421 15.352 301.997 15.528C301.581 15.704 301.225 15.944 300.929 16.248C300.633 16.552 300.405 16.908 300.245 17.316C300.085 17.724 300.005 18.156 300.005 18.612C300.005 19.124 300.077 19.592 300.221 20.016C300.365 20.44 300.577 20.804 300.857 21.108C301.137 21.404 301.481 21.636 301.889 21.804C302.305 21.972 302.781 22.056 303.317 22.056ZM302.369 13.08C302.241 13.24 302.117 13.392 301.997 13.536C301.885 13.68 301.773 13.824 301.661 13.968C302.029 13.76 302.433 13.596 302.873 13.476C303.313 13.356 303.785 13.296 304.289 13.296C304.961 13.296 305.605 13.408 306.221 13.632C306.837 13.848 307.377 14.176 307.841 14.616C308.313 15.048 308.689 15.588 308.969 16.236C309.249 16.876 309.389 17.616 309.389 18.456C309.389 19.256 309.241 20.004 308.945 20.7C308.657 21.396 308.249 22.004 307.721 22.524C307.193 23.036 306.557 23.444 305.813 23.748C305.077 24.044 304.261 24.192 303.365 24.192C302.469 24.192 301.661 24.048 300.941 23.76C300.221 23.472 299.605 23.068 299.093 22.548C298.589 22.02 298.201 21.388 297.929 20.652C297.657 19.916 297.521 19.096 297.521 18.192C297.521 17.408 297.689 16.588 298.025 15.732C298.361 14.876 298.881 13.976 299.585 13.032L303.833 7.332C303.961 7.164 304.145 7.02 304.385 6.9C304.633 6.78 304.909 6.72 305.213 6.72H307.493L302.369 13.08ZM329.288 16.92H324.524V21.948H322.424V16.92H317.684V14.976H322.424V9.96H324.524V14.976H329.288V16.92ZM343.618 22.152C344.138 22.152 344.602 22.08 345.01 21.936C345.418 21.784 345.758 21.576 346.03 21.312C346.31 21.04 346.522 20.72 346.666 20.352C346.81 19.984 346.882 19.584 346.882 19.152C346.882 18.624 346.798 18.168 346.63 17.784C346.47 17.4 346.242 17.084 345.946 16.836C345.658 16.58 345.314 16.392 344.914 16.272C344.514 16.144 344.082 16.08 343.618 16.08C343.154 16.08 342.722 16.144 342.322 16.272C341.922 16.392 341.574 16.58 341.278 16.836C340.99 17.084 340.762 17.4 340.594 17.784C340.434 18.168 340.354 18.624 340.354 19.152C340.354 19.584 340.426 19.984 340.57 20.352C340.714 20.72 340.922 21.04 341.194 21.312C341.474 21.576 341.818 21.784 342.226 21.936C342.634 22.08 343.098 22.152 343.618 22.152ZM343.618 8.508C343.146 8.508 342.73 8.58 342.37 8.724C342.018 8.868 341.726 9.06 341.494 9.3C341.262 9.54 341.086 9.824 340.966 10.152C340.854 10.472 340.798 10.812 340.798 11.172C340.798 11.532 340.846 11.884 340.942 12.228C341.046 12.572 341.206 12.88 341.422 13.152C341.646 13.416 341.938 13.628 342.298 13.788C342.658 13.948 343.098 14.028 343.618 14.028C344.138 14.028 344.578 13.948 344.938 13.788C345.298 13.628 345.586 13.416 345.802 13.152C346.026 12.88 346.186 12.572 346.282 12.228C346.386 11.884 346.438 11.532 346.438 11.172C346.438 10.812 346.378 10.472 346.258 10.152C346.146 9.824 345.97 9.54 345.73 9.3C345.498 9.06 345.206 8.868 344.854 8.724C344.502 8.58 344.09 8.508 343.618 8.508ZM346.342 14.988C347.406 15.316 348.202 15.836 348.73 16.548C349.266 17.26 349.534 18.144 349.534 19.2C349.534 19.96 349.39 20.648 349.102 21.264C348.814 21.88 348.41 22.404 347.89 22.836C347.37 23.268 346.746 23.604 346.018 23.844C345.298 24.076 344.498 24.192 343.618 24.192C342.738 24.192 341.934 24.076 341.206 23.844C340.486 23.604 339.866 23.268 339.346 22.836C338.826 22.404 338.422 21.88 338.134 21.264C337.846 20.648 337.702 19.96 337.702 19.2C337.702 18.144 337.966 17.26 338.494 16.548C339.03 15.836 339.83 15.316 340.894 14.988C340.03 14.644 339.378 14.144 338.938 13.488C338.506 12.832 338.29 12.044 338.29 11.124C338.29 10.476 338.418 9.872 338.674 9.312C338.93 8.752 339.29 8.268 339.754 7.86C340.226 7.444 340.79 7.12 341.446 6.888C342.102 6.648 342.826 6.528 343.618 6.528C344.41 6.528 345.13 6.648 345.778 6.888C346.434 7.12 346.994 7.444 347.458 7.86C347.93 8.268 348.294 8.752 348.55 9.312C348.814 9.872 348.946 10.476 348.946 11.124C348.946 12.044 348.726 12.832 348.286 13.488C347.854 14.144 347.206 14.644 346.342 14.988ZM369.565 16.92H364.801V21.948H362.701V16.92H357.961V14.976H362.701V9.96H364.801V14.976H369.565V16.92ZM388.743 21.564C389.023 21.564 389.243 21.648 389.403 21.816C389.563 21.976 389.643 22.184 389.643 22.44V24H377.955V23.124C377.955 22.948 377.991 22.764 378.063 22.572C378.135 22.38 378.251 22.204 378.411 22.044L383.787 16.656C384.243 16.2 384.647 15.764 384.999 15.348C385.359 14.932 385.663 14.516 385.911 14.1C386.167 13.684 386.359 13.264 386.487 12.84C386.623 12.408 386.691 11.956 386.691 11.484C386.691 11.028 386.619 10.628 386.475 10.284C386.339 9.932 386.147 9.644 385.899 9.42C385.659 9.188 385.367 9.016 385.023 8.904C384.687 8.784 384.315 8.724 383.907 8.724C383.515 8.724 383.151 8.78 382.815 8.892C382.487 9.004 382.191 9.16 381.927 9.36C381.671 9.56 381.455 9.8 381.279 10.08C381.111 10.352 380.987 10.652 380.907 10.98C380.787 11.308 380.631 11.528 380.439 11.64C380.255 11.752 379.983 11.776 379.623 11.712L378.267 11.472C378.387 10.656 378.611 9.94 378.939 9.324C379.275 8.708 379.695 8.196 380.199 7.788C380.703 7.372 381.279 7.06 381.927 6.852C382.583 6.636 383.291 6.528 384.051 6.528C384.819 6.528 385.523 6.644 386.163 6.876C386.811 7.1 387.367 7.424 387.831 7.848C388.303 8.264 388.671 8.772 388.935 9.372C389.199 9.972 389.331 10.648 389.331 11.4C389.331 12.04 389.235 12.632 389.043 13.176C388.859 13.72 388.607 14.24 388.287 14.736C387.967 15.232 387.591 15.716 387.159 16.188C386.735 16.652 386.287 17.124 385.815 17.604L381.639 21.876C381.983 21.78 382.327 21.704 382.671 21.648C383.023 21.592 383.355 21.564 383.667 21.564H388.743ZM409.841 16.92H405.077V21.948H402.977V16.92H398.237V14.976H402.977V9.96H405.077V14.976H409.841V16.92ZM429.536 22.044V24H420.116V22.044H423.716V11.22C423.716 10.836 423.728 10.444 423.752 10.044L420.98 12.384C420.86 12.48 420.736 12.544 420.608 12.576C420.488 12.6 420.372 12.6 420.26 12.576C420.156 12.552 420.06 12.516 419.972 12.468C419.892 12.412 419.828 12.352 419.78 12.288L418.976 11.16L424.184 6.684H426.284V22.044H429.536ZM439.066 17.016H449.554V18.972H439.066V17.016ZM439.066 12.888H449.554V14.832H439.066V12.888ZM469.297 21.564C469.577 21.564 469.797 21.648 469.957 21.816C470.117 21.976 470.197 22.184 470.197 22.44V24H458.509V23.124C458.509 22.948 458.545 22.764 458.617 22.572C458.689 22.38 458.805 22.204 458.965 22.044L464.341 16.656C464.797 16.2 465.201 15.764 465.553 15.348C465.913 14.932 466.217 14.516 466.465 14.1C466.721 13.684 466.913 13.264 467.041 12.84C467.177 12.408 467.245 11.956 467.245 11.484C467.245 11.028 467.173 10.628 467.029 10.284C466.893 9.932 466.701 9.644 466.453 9.42C466.213 9.188 465.921 9.016 465.577 8.904C465.241 8.784 464.869 8.724 464.461 8.724C464.069 8.724 463.705 8.78 463.369 8.892C463.041 9.004 462.745 9.16 462.481 9.36C462.225 9.56 462.009 9.8 461.833 10.08C461.665 10.352 461.541 10.652 461.461 10.98C461.341 11.308 461.185 11.528 460.993 11.64C460.809 11.752 460.537 11.776 460.177 11.712L458.821 11.472C458.941 10.656 459.165 9.94 459.493 9.324C459.829 8.708 460.249 8.196 460.753 7.788C461.257 7.372 461.833 7.06 462.481 6.852C463.137 6.636 463.845 6.528 464.605 6.528C465.373 6.528 466.077 6.644 466.717 6.876C467.365 7.1 467.921 7.424 468.385 7.848C468.857 8.264 469.225 8.772 469.489 9.372C469.753 9.972 469.885 10.648 469.885 11.4C469.885 12.04 469.789 12.632 469.597 13.176C469.413 13.72 469.161 14.24 468.841 14.736C468.521 15.232 468.145 15.716 467.713 16.188C467.289 16.652 466.841 17.124 466.369 17.604L462.193 21.876C462.537 21.78 462.881 21.704 463.225 21.648C463.577 21.592 463.909 21.564 464.221 21.564H469.297ZM484.575 6.72V7.86C484.575 8.196 484.539 8.468 484.467 8.676C484.395 8.884 484.323 9.06 484.251 9.204L477.423 23.1C477.303 23.356 477.131 23.572 476.907 23.748C476.691 23.916 476.403 24 476.043 24H474.183L481.143 10.332C481.271 10.084 481.399 9.86 481.527 9.66C481.655 9.46 481.799 9.268 481.959 9.084H473.331C473.171 9.084 473.031 9.024 472.911 8.904C472.791 8.776 472.731 8.632 472.731 8.472V6.72H484.575ZM492.425 25.5V26.712H487.397V25.5H489.101V20.748L489.161 20.184L488.069 21.06C487.981 21.124 487.893 21.164 487.805 21.18C487.725 21.196 487.649 21.196 487.577 21.18C487.505 21.164 487.437 21.136 487.373 21.096C487.317 21.056 487.273 21.016 487.241 20.976L486.677 20.184L489.413 17.868H490.961V25.5H492.425ZM501.064 22.308C501.064 23.076 500.976 23.74 500.8 24.3C500.624 24.868 500.384 25.336 500.08 25.704C499.776 26.08 499.416 26.356 499 26.532C498.592 26.716 498.156 26.808 497.692 26.808C497.228 26.808 496.792 26.716 496.384 26.532C495.984 26.356 495.632 26.08 495.328 25.704C495.032 25.336 494.796 24.868 494.62 24.3C494.452 23.74 494.368 23.076 494.368 22.308C494.368 21.532 494.452 20.864 494.62 20.304C494.796 19.736 495.032 19.268 495.328 18.9C495.632 18.524 495.984 18.248 496.384 18.072C496.792 17.888 497.228 17.796 497.692 17.796C498.156 17.796 498.592 17.888 499 18.072C499.416 18.248 499.776 18.524 500.08 18.9C500.384 19.268 500.624 19.736 500.8 20.304C500.976 20.864 501.064 21.532 501.064 22.308ZM499.192 22.308C499.192 21.692 499.152 21.188 499.072 20.796C499 20.404 498.896 20.1 498.76 19.884C498.632 19.66 498.476 19.508 498.292 19.428C498.108 19.34 497.908 19.296 497.692 19.296C497.476 19.296 497.276 19.34 497.092 19.428C496.916 19.508 496.764 19.66 496.636 19.884C496.516 20.1 496.42 20.404 496.348 20.796C496.276 21.188 496.24 21.692 496.24 22.308C496.24 22.916 496.276 23.416 496.348 23.808C496.428 24.192 496.532 24.492 496.66 24.708C496.796 24.932 496.952 25.084 497.128 25.164C497.304 25.252 497.492 25.296 497.692 25.296C497.892 25.296 498.08 25.252 498.256 25.164C498.44 25.084 498.6 24.932 498.736 24.708C498.88 24.492 498.992 24.192 499.072 23.808C499.152 23.416 499.192 22.916 499.192 22.308Z" fill="black"/>
</svg>
