<svg width="36" height="36" viewBox="0 0 36 36" fill="none" xmlns="http://www.w3.org/2000/svg">
<path fill-rule="evenodd" clip-rule="evenodd" d="M18 3.60001C18.4774 3.60001 18.9352 3.78965 19.2728 4.12721C19.6104 4.46478 19.8 4.92262 19.8 5.40001V7.20001C19.8 7.6774 19.6104 8.13523 19.2728 8.4728C18.9352 8.81036 18.4774 9.00001 18 9.00001C17.5226 9.00001 17.0648 8.81036 16.7272 8.4728C16.3896 8.13523 16.2 7.6774 16.2 7.20001V5.40001C16.2 4.92262 16.3896 4.46478 16.7272 4.12721C17.0648 3.78965 17.5226 3.60001 18 3.60001ZM25.2 18C25.2 19.9096 24.4414 21.7409 23.0912 23.0912C21.7409 24.4414 19.9096 25.2 18 25.2C16.0904 25.2 14.2591 24.4414 12.9088 23.0912C11.5586 21.7409 10.8 19.9096 10.8 18C10.8 16.0904 11.5586 14.2591 12.9088 12.9088C14.2591 11.5586 16.0904 10.8 18 10.8C19.9096 10.8 21.7409 11.5586 23.0912 12.9088C24.4414 14.2591 25.2 16.0904 25.2 18ZM24.3648 26.91L25.6374 28.1826C25.9769 28.5105 26.4316 28.6919 26.9035 28.6878C27.3755 28.6837 27.8269 28.4944 28.1607 28.1607C28.4944 27.8269 28.6837 27.3755 28.6878 26.9035C28.6919 26.4316 28.5105 25.9769 28.1826 25.6374L26.91 24.3648C26.5705 24.0369 26.1158 23.8555 25.6439 23.8596C25.1719 23.8637 24.7205 24.053 24.3867 24.3867C24.053 24.7205 23.8637 25.1719 23.8596 25.6439C23.8555 26.1158 24.0369 26.5705 24.3648 26.91ZM28.1808 7.81741C28.5182 8.15496 28.7078 8.61271 28.7078 9.09001C28.7078 9.5673 28.5182 10.0251 28.1808 10.3626L26.91 11.6352C26.744 11.8071 26.5453 11.9443 26.3257 12.0386C26.1061 12.1329 25.8699 12.1826 25.6309 12.1847C25.3919 12.1867 25.1549 12.1412 24.9337 12.0507C24.7125 11.9602 24.5115 11.8265 24.3425 11.6575C24.1735 11.4885 24.0398 11.2875 23.9493 11.0663C23.8588 10.8451 23.8133 10.6081 23.8153 10.3691C23.8174 10.1301 23.8671 9.89389 23.9614 9.67428C24.0558 9.45467 24.1929 9.25605 24.3648 9.09001L25.6374 7.81741C25.9749 7.47996 26.4327 7.29039 26.91 7.29039C27.3873 7.29039 27.845 7.47996 28.1826 7.81741H28.1808ZM30.6 19.8C31.0774 19.8 31.5352 19.6104 31.8728 19.2728C32.2104 18.9352 32.4 18.4774 32.4 18C32.4 17.5226 32.2104 17.0648 31.8728 16.7272C31.5352 16.3896 31.0774 16.2 30.6 16.2H28.8C28.3226 16.2 27.8648 16.3896 27.5272 16.7272C27.1896 17.0648 27 17.5226 27 18C27 18.4774 27.1896 18.9352 27.5272 19.2728C27.8648 19.6104 28.3226 19.8 28.8 19.8H30.6ZM18 27C18.4774 27 18.9352 27.1896 19.2728 27.5272C19.6104 27.8648 19.8 28.3226 19.8 28.8V30.6C19.8 31.0774 19.6104 31.5352 19.2728 31.8728C18.9352 32.2104 18.4774 32.4 18 32.4C17.5226 32.4 17.0648 32.2104 16.7272 31.8728C16.3896 31.5352 16.2 31.0774 16.2 30.6V28.8C16.2 28.3226 16.3896 27.8648 16.7272 27.5272C17.0648 27.1896 17.5226 27 18 27ZM9.09 11.6352C9.25712 11.8024 9.45554 11.9351 9.67394 12.0257C9.89234 12.1162 10.1264 12.1629 10.3629 12.163C10.5993 12.1631 10.8334 12.1166 11.0519 12.0262C11.2703 11.9358 11.4689 11.8032 11.6361 11.6361C11.8033 11.469 11.936 11.2706 12.0266 11.0522C12.1171 10.8338 12.1638 10.5997 12.1639 10.3632C12.1639 10.1268 12.1175 9.89269 12.0271 9.67422C11.9367 9.45576 11.8041 9.25724 11.637 9.09001L10.3626 7.81741C10.0231 7.48952 9.56843 7.30809 9.09648 7.31219C8.62452 7.31629 8.17306 7.5056 7.83933 7.83933C7.50559 8.17307 7.31629 8.62453 7.31219 9.09648C7.30809 9.56844 7.48952 10.0231 7.8174 10.3626L9.09 11.6352ZM11.6352 26.91L10.3626 28.1826C10.0231 28.5105 9.56843 28.6919 9.09648 28.6878C8.62452 28.6837 8.17306 28.4944 7.83933 28.1607C7.50559 27.8269 7.31629 27.3755 7.31219 26.9035C7.30809 26.4316 7.48952 25.9769 7.8174 25.6374L9.09 24.3648C9.42948 24.0369 9.88417 23.8555 10.3561 23.8596C10.8281 23.8637 11.2795 24.053 11.6133 24.3867C11.947 24.7205 12.1363 25.1719 12.1404 25.6439C12.1445 26.1158 11.9631 26.5705 11.6352 26.91ZM7.2 19.8C7.67739 19.8 8.13523 19.6104 8.47279 19.2728C8.81036 18.9352 9 18.4774 9 18C9 17.5226 8.81036 17.0648 8.47279 16.7272C8.13523 16.3896 7.67739 16.2 7.2 16.2H5.4C4.92261 16.2 4.46477 16.3896 4.12721 16.7272C3.78964 17.0648 3.6 17.5226 3.6 18C3.6 18.4774 3.78964 18.9352 4.12721 19.2728C4.46477 19.6104 4.92261 19.8 5.4 19.8H7.2Z" fill="black"/>
</svg>
