<svg width="341" height="98" viewBox="0 0 341 98" fill="none" xmlns="http://www.w3.org/2000/svg">
<path d="M21.324 21.044V23H11.904V21.044H15.504V10.22C15.504 9.836 15.516 9.444 15.54 9.044L12.768 11.384C12.648 11.48 12.524 11.544 12.396 11.576C12.276 11.6 12.16 11.6 12.048 11.576C11.944 11.552 11.848 11.516 11.76 11.468C11.68 11.412 11.616 11.352 11.568 11.288L10.764 10.16L15.972 5.684H18.072V21.044H21.324ZM42.3984 14.36C42.3984 15.872 42.2344 17.18 41.9064 18.284C41.5864 19.388 41.1424 20.304 40.5744 21.032C40.0064 21.76 39.3384 22.3 38.5704 22.652C37.8024 23.004 36.9744 23.18 36.0864 23.18C35.1984 23.18 34.3704 23.004 33.6024 22.652C32.8344 22.3 32.1664 21.76 31.5984 21.032C31.0384 20.304 30.5984 19.388 30.2784 18.284C29.9584 17.18 29.7984 15.872 29.7984 14.36C29.7984 12.848 29.9584 11.54 30.2784 10.436C30.5984 9.324 31.0384 8.408 31.5984 7.688C32.1664 6.96 32.8344 6.42 33.6024 6.068C34.3704 5.708 35.1984 5.528 36.0864 5.528C36.9744 5.528 37.8024 5.708 38.5704 6.068C39.3384 6.42 40.0064 6.96 40.5744 7.688C41.1424 8.408 41.5864 9.324 41.9064 10.436C42.2344 11.54 42.3984 12.848 42.3984 14.36ZM39.7344 14.36C39.7344 13.08 39.6304 12.016 39.4224 11.168C39.2224 10.312 38.9544 9.628 38.6184 9.116C38.2824 8.604 37.8944 8.24 37.4544 8.024C37.0144 7.808 36.5584 7.7 36.0864 7.7C35.6064 7.7 35.1464 7.808 34.7064 8.024C34.2744 8.24 33.8904 8.604 33.5544 9.116C33.2184 9.628 32.9504 10.312 32.7504 11.168C32.5504 12.016 32.4504 13.08 32.4504 14.36C32.4504 15.64 32.5504 16.708 32.7504 17.564C32.9504 18.412 33.2184 19.092 33.5544 19.604C33.8904 20.116 34.2744 20.48 34.7064 20.696C35.1464 20.912 35.6064 21.02 36.0864 21.02C36.5584 21.02 37.0144 20.912 37.4544 20.696C37.8944 20.48 38.2824 20.116 38.6184 19.604C38.9544 19.092 39.2224 18.412 39.4224 17.564C39.6304 16.708 39.7344 15.64 39.7344 14.36ZM62.5369 14.36C62.5369 15.872 62.3729 17.18 62.0449 18.284C61.7249 19.388 61.2809 20.304 60.7129 21.032C60.1449 21.76 59.4769 22.3 58.7089 22.652C57.9409 23.004 57.1129 23.18 56.2249 23.18C55.3369 23.18 54.5089 23.004 53.7409 22.652C52.9729 22.3 52.3049 21.76 51.7369 21.032C51.1769 20.304 50.7369 19.388 50.4169 18.284C50.0969 17.18 49.9369 15.872 49.9369 14.36C49.9369 12.848 50.0969 11.54 50.4169 10.436C50.7369 9.324 51.1769 8.408 51.7369 7.688C52.3049 6.96 52.9729 6.42 53.7409 6.068C54.5089 5.708 55.3369 5.528 56.2249 5.528C57.1129 5.528 57.9409 5.708 58.7089 6.068C59.4769 6.42 60.1449 6.96 60.7129 7.688C61.2809 8.408 61.7249 9.324 62.0449 10.436C62.3729 11.54 62.5369 12.848 62.5369 14.36ZM59.8729 14.36C59.8729 13.08 59.7689 12.016 59.5609 11.168C59.3609 10.312 59.0929 9.628 58.7569 9.116C58.4209 8.604 58.0329 8.24 57.5929 8.024C57.1529 7.808 56.6969 7.7 56.2249 7.7C55.7449 7.7 55.2849 7.808 54.8449 8.024C54.4129 8.24 54.0289 8.604 53.6929 9.116C53.3569 9.628 53.0889 10.312 52.8889 11.168C52.6889 12.016 52.5889 13.08 52.5889 14.36C52.5889 15.64 52.6889 16.708 52.8889 17.564C53.0889 18.412 53.3569 19.092 53.6929 19.604C54.0289 20.116 54.4129 20.48 54.8449 20.696C55.2849 20.912 55.7449 21.02 56.2249 21.02C56.6969 21.02 57.1529 20.912 57.5929 20.696C58.0329 20.48 58.4209 20.116 58.7569 19.604C59.0929 19.092 59.3609 18.412 59.5609 17.564C59.7689 16.708 59.8729 15.64 59.8729 14.36Z" fill="black"/>
<path d="M1 23V31.5H71.5V23" stroke="black" stroke-width="2" stroke-linecap="round" stroke-linejoin="round" stroke-dasharray="4 4"/>
<path d="M36.2929 63.7071C36.6834 64.0976 37.3166 64.0976 37.7071 63.7071L44.0711 57.3431C44.4616 56.9526 44.4616 56.3195 44.0711 55.9289C43.6805 55.5384 43.0474 55.5384 42.6569 55.9289L37 61.5858L31.3431 55.9289C30.9526 55.5384 30.3195 55.5384 29.9289 55.9289C29.5384 56.3195 29.5384 56.9526 29.9289 57.3431L36.2929 63.7071ZM36 39L36 63L38 63L38 39L36 39Z" fill="black"/>
<path d="M38.544 86.46V80.784C38.544 80.248 38.58 79.656 38.652 79.008L33.264 86.46H38.544ZM43.308 86.46V88.176C43.308 88.336 43.256 88.476 43.152 88.596C43.048 88.708 42.9 88.764 42.708 88.764H41.124V93H38.544V88.764H31.224C31.024 88.764 30.848 88.704 30.696 88.584C30.544 88.456 30.448 88.3 30.408 88.116L30.096 86.616L38.316 75.636H41.124V86.46H43.308Z" fill="black"/>
<path d="M155.324 21.044V23H145.904V21.044H149.504V10.22C149.504 9.836 149.516 9.444 149.54 9.044L146.768 11.384C146.648 11.48 146.524 11.544 146.396 11.576C146.276 11.6 146.16 11.6 146.048 11.576C145.944 11.552 145.848 11.516 145.76 11.468C145.68 11.412 145.616 11.352 145.568 11.288L144.764 10.16L149.972 5.684H152.072V21.044H155.324ZM175.462 21.044V23H166.042V21.044H169.642V10.22C169.642 9.836 169.654 9.444 169.678 9.044L166.906 11.384C166.786 11.48 166.662 11.544 166.534 11.576C166.414 11.6 166.298 11.6 166.186 11.576C166.082 11.552 165.986 11.516 165.898 11.468C165.818 11.412 165.754 11.352 165.706 11.288L164.902 10.16L170.11 5.684H172.21V21.044H175.462ZM195.601 21.044V23H186.181V21.044H189.781V10.22C189.781 9.836 189.793 9.444 189.817 9.044L187.045 11.384C186.925 11.48 186.801 11.544 186.673 11.576C186.553 11.6 186.437 11.6 186.325 11.576C186.221 11.552 186.125 11.516 186.037 11.468C185.957 11.412 185.893 11.352 185.845 11.288L185.041 10.16L190.249 5.684H192.349V21.044H195.601Z" fill="black"/>
<path d="M135 23V31.5H205.5V23" stroke="black" stroke-width="2" stroke-linecap="round" stroke-linejoin="round" stroke-dasharray="4 4"/>
<path d="M170.293 63.7071C170.683 64.0976 171.317 64.0976 171.707 63.7071L178.071 57.3431C178.462 56.9526 178.462 56.3195 178.071 55.9289C177.681 55.5384 177.047 55.5384 176.657 55.9289L171 61.5858L165.343 55.9289C164.953 55.5384 164.319 55.5384 163.929 55.9289C163.538 56.3195 163.538 56.9526 163.929 57.3431L170.293 63.7071ZM170 39L170 63L172 63L172 39L170 39Z" fill="black"/>
<path d="M177.104 75.648V76.932C177.104 77.316 177.064 77.628 176.984 77.868C176.904 78.1 176.824 78.296 176.744 78.456L170.168 91.992C170.032 92.272 169.84 92.512 169.592 92.712C169.344 92.904 169.012 93 168.596 93H166.448L173.156 79.74C173.308 79.468 173.456 79.22 173.6 78.996C173.752 78.764 173.92 78.544 174.104 78.336H165.8C165.616 78.336 165.456 78.268 165.32 78.132C165.184 77.996 165.116 77.836 165.116 77.652V75.648H177.104Z" fill="black"/>
<path d="M290.26 14.36C290.26 15.872 290.096 17.18 289.768 18.284C289.448 19.388 289.004 20.304 288.436 21.032C287.868 21.76 287.2 22.3 286.432 22.652C285.664 23.004 284.836 23.18 283.948 23.18C283.06 23.18 282.232 23.004 281.464 22.652C280.696 22.3 280.028 21.76 279.46 21.032C278.9 20.304 278.46 19.388 278.14 18.284C277.82 17.18 277.66 15.872 277.66 14.36C277.66 12.848 277.82 11.54 278.14 10.436C278.46 9.324 278.9 8.408 279.46 7.688C280.028 6.96 280.696 6.42 281.464 6.068C282.232 5.708 283.06 5.528 283.948 5.528C284.836 5.528 285.664 5.708 286.432 6.068C287.2 6.42 287.868 6.96 288.436 7.688C289.004 8.408 289.448 9.324 289.768 10.436C290.096 11.54 290.26 12.848 290.26 14.36ZM287.596 14.36C287.596 13.08 287.492 12.016 287.284 11.168C287.084 10.312 286.816 9.628 286.48 9.116C286.144 8.604 285.756 8.24 285.316 8.024C284.876 7.808 284.42 7.7 283.948 7.7C283.468 7.7 283.008 7.808 282.568 8.024C282.136 8.24 281.752 8.604 281.416 9.116C281.08 9.628 280.812 10.312 280.612 11.168C280.412 12.016 280.312 13.08 280.312 14.36C280.312 15.64 280.412 16.708 280.612 17.564C280.812 18.412 281.08 19.092 281.416 19.604C281.752 20.116 282.136 20.48 282.568 20.696C283.008 20.912 283.468 21.02 283.948 21.02C284.42 21.02 284.876 20.912 285.316 20.696C285.756 20.48 286.144 20.116 286.48 19.604C286.816 19.092 287.084 18.412 287.284 17.564C287.492 16.708 287.596 15.64 287.596 14.36ZM309.462 21.044V23H300.042V21.044H303.642V10.22C303.642 9.836 303.654 9.444 303.678 9.044L300.906 11.384C300.786 11.48 300.662 11.544 300.534 11.576C300.414 11.6 300.298 11.6 300.186 11.576C300.082 11.552 299.986 11.516 299.898 11.468C299.818 11.412 299.754 11.352 299.706 11.288L298.902 10.16L304.11 5.684H306.21V21.044H309.462ZM330.537 14.36C330.537 15.872 330.373 17.18 330.045 18.284C329.725 19.388 329.281 20.304 328.713 21.032C328.145 21.76 327.477 22.3 326.709 22.652C325.941 23.004 325.113 23.18 324.225 23.18C323.337 23.18 322.509 23.004 321.741 22.652C320.973 22.3 320.305 21.76 319.737 21.032C319.177 20.304 318.737 19.388 318.417 18.284C318.097 17.18 317.937 15.872 317.937 14.36C317.937 12.848 318.097 11.54 318.417 10.436C318.737 9.324 319.177 8.408 319.737 7.688C320.305 6.96 320.973 6.42 321.741 6.068C322.509 5.708 323.337 5.528 324.225 5.528C325.113 5.528 325.941 5.708 326.709 6.068C327.477 6.42 328.145 6.96 328.713 7.688C329.281 8.408 329.725 9.324 330.045 10.436C330.373 11.54 330.537 12.848 330.537 14.36ZM327.873 14.36C327.873 13.08 327.769 12.016 327.561 11.168C327.361 10.312 327.093 9.628 326.757 9.116C326.421 8.604 326.033 8.24 325.593 8.024C325.153 7.808 324.697 7.7 324.225 7.7C323.745 7.7 323.285 7.808 322.845 8.024C322.413 8.24 322.029 8.604 321.693 9.116C321.357 9.628 321.089 10.312 320.889 11.168C320.689 12.016 320.589 13.08 320.589 14.36C320.589 15.64 320.689 16.708 320.889 17.564C321.089 18.412 321.357 19.092 321.693 19.604C322.029 20.116 322.413 20.48 322.845 20.696C323.285 20.912 323.745 21.02 324.225 21.02C324.697 21.02 325.153 20.912 325.593 20.696C326.033 20.48 326.421 20.116 326.757 19.604C327.093 19.092 327.361 18.412 327.561 17.564C327.769 16.708 327.873 15.64 327.873 14.36Z" fill="black"/>
<path d="M269 23V31.5H339.5V23" stroke="black" stroke-width="2" stroke-linecap="round" stroke-linejoin="round" stroke-dasharray="4 4"/>
<path d="M304.293 63.7071C304.683 64.0976 305.317 64.0976 305.707 63.7071L312.071 57.3431C312.462 56.9526 312.462 56.3195 312.071 55.9289C311.681 55.5384 311.047 55.5384 310.657 55.9289L305 61.5858L299.343 55.9289C298.953 55.5384 298.319 55.5384 297.929 55.9289C297.538 56.3195 297.538 56.9526 297.929 57.3431L304.293 63.7071ZM304 39L304 63L306 63L306 39L304 39Z" fill="black"/>
<path d="M309.772 90.24C310.092 90.24 310.344 90.332 310.528 90.516C310.72 90.692 310.816 90.928 310.816 91.224V93H298.912V92.016C298.912 91.816 298.952 91.608 299.032 91.392C299.12 91.168 299.256 90.968 299.44 90.792L304.708 85.512C305.148 85.064 305.54 84.636 305.884 84.228C306.236 83.82 306.528 83.416 306.76 83.016C306.992 82.616 307.168 82.212 307.288 81.804C307.416 81.388 307.48 80.952 307.48 80.496C307.48 80.08 307.42 79.716 307.3 79.404C307.18 79.084 307.008 78.816 306.784 78.6C306.568 78.384 306.304 78.224 305.992 78.12C305.688 78.008 305.344 77.952 304.96 77.952C304.608 77.952 304.28 78.004 303.976 78.108C303.68 78.204 303.416 78.344 303.184 78.528C302.952 78.704 302.756 78.912 302.596 79.152C302.436 79.392 302.316 79.656 302.236 79.944C302.1 80.312 301.924 80.556 301.708 80.676C301.492 80.796 301.18 80.824 300.772 80.76L299.212 80.484C299.332 79.652 299.564 78.924 299.908 78.3C300.252 77.668 300.68 77.144 301.192 76.728C301.712 76.304 302.304 75.988 302.968 75.78C303.64 75.564 304.36 75.456 305.128 75.456C305.928 75.456 306.66 75.576 307.324 75.816C307.988 76.048 308.556 76.38 309.028 76.812C309.5 77.244 309.868 77.764 310.132 78.372C310.396 78.98 310.528 79.656 310.528 80.4C310.528 81.04 310.432 81.632 310.24 82.176C310.056 82.72 309.804 83.24 309.484 83.736C309.172 84.232 308.804 84.712 308.38 85.176C307.956 85.64 307.512 86.112 307.048 86.592L303.136 90.588C303.512 90.476 303.884 90.392 304.252 90.336C304.628 90.272 304.984 90.24 305.32 90.24H309.772ZM316.05 94.2C316.45 94.2 316.726 94.092 316.878 93.876C317.038 93.66 317.118 93.396 317.118 93.084C317.118 92.676 317.03 92.384 316.854 92.208C316.686 92.032 316.418 91.944 316.05 91.944C315.69 91.944 315.422 92.032 315.246 92.208C315.07 92.384 314.982 92.676 314.982 93.084C314.982 93.396 315.062 93.66 315.222 93.876C315.382 94.092 315.658 94.2 316.05 94.2ZM316.05 88.272C315.882 88.272 315.738 88.3 315.618 88.356C315.498 88.412 315.398 88.484 315.318 88.572C315.246 88.66 315.19 88.76 315.15 88.872C315.118 88.984 315.102 89.096 315.102 89.208C315.102 89.584 315.174 89.864 315.318 90.048C315.47 90.224 315.714 90.312 316.05 90.312C316.706 90.312 317.034 89.944 317.034 89.208C317.034 89.096 317.014 88.984 316.974 88.872C316.934 88.76 316.874 88.66 316.794 88.572C316.714 88.484 316.61 88.412 316.482 88.356C316.362 88.3 316.218 88.272 316.05 88.272ZM317.85 91.08C318.362 91.28 318.722 91.56 318.93 91.92C319.146 92.272 319.254 92.676 319.254 93.132C319.254 93.532 319.178 93.896 319.026 94.224C318.874 94.56 318.654 94.844 318.366 95.076C318.086 95.308 317.75 95.488 317.358 95.616C316.966 95.744 316.53 95.808 316.05 95.808C315.578 95.808 315.142 95.744 314.742 95.616C314.35 95.488 314.014 95.308 313.734 95.076C313.454 94.844 313.234 94.56 313.074 94.224C312.922 93.896 312.846 93.532 312.846 93.132C312.846 92.676 312.95 92.272 313.158 91.92C313.374 91.56 313.742 91.28 314.262 91.08C313.878 90.896 313.594 90.644 313.41 90.324C313.226 89.996 313.134 89.612 313.134 89.172C313.134 88.828 313.206 88.508 313.35 88.212C313.502 87.908 313.706 87.648 313.962 87.432C314.226 87.208 314.534 87.036 314.886 86.916C315.246 86.788 315.634 86.724 316.05 86.724C316.474 86.724 316.862 86.788 317.214 86.916C317.574 87.036 317.882 87.208 318.138 87.432C318.402 87.648 318.606 87.908 318.75 88.212C318.894 88.508 318.966 88.828 318.966 89.172C318.966 89.612 318.874 89.996 318.69 90.324C318.506 90.644 318.226 90.896 317.85 91.08Z" fill="black"/>
</svg>
