<svg width="309" height="131" viewBox="0 0 309 131" fill="none" xmlns="http://www.w3.org/2000/svg">
<path d="M210.8 16.61C211.36 16.61 211.853 16.5433 212.28 16.41C212.713 16.27 213.073 16.0767 213.36 15.83C213.653 15.5767 213.873 15.2767 214.02 14.93C214.167 14.5833 214.24 14.2 214.24 13.78C214.24 12.9267 213.96 12.2833 213.4 11.85C212.84 11.4167 212 11.2 210.88 11.2H208.76V16.61H210.8ZM217.42 24H215.7C215.347 24 215.087 23.8633 214.92 23.59L211.2 18.47C211.087 18.31 210.963 18.1967 210.83 18.13C210.703 18.0567 210.503 18.02 210.23 18.02H208.76V24H206.83V9.67H210.88C211.787 9.67 212.57 9.76333 213.23 9.95C213.89 10.13 214.433 10.3933 214.86 10.74C215.293 11.0867 215.613 11.5067 215.82 12C216.027 12.4867 216.13 13.0333 216.13 13.64C216.13 14.1467 216.05 14.62 215.89 15.06C215.73 15.5 215.497 15.8967 215.19 16.25C214.89 16.5967 214.52 16.8933 214.08 17.14C213.647 17.3867 213.153 17.5733 212.6 17.7C212.847 17.84 213.06 18.0433 213.24 18.31L217.42 24ZM225.185 17.83C225.185 17.4167 225.125 17.04 225.005 16.7C224.891 16.3533 224.721 16.0567 224.495 15.81C224.275 15.5567 224.005 15.3633 223.685 15.23C223.365 15.09 223.001 15.02 222.595 15.02C221.741 15.02 221.065 15.27 220.565 15.77C220.071 16.2633 219.765 16.95 219.645 17.83H225.185ZM226.625 22.58C226.405 22.8467 226.141 23.08 225.835 23.28C225.528 23.4733 225.198 23.6333 224.845 23.76C224.498 23.8867 224.138 23.98 223.765 24.04C223.391 24.1067 223.021 24.14 222.655 24.14C221.955 24.14 221.308 24.0233 220.715 23.79C220.128 23.55 219.618 23.2033 219.185 22.75C218.758 22.29 218.425 21.7233 218.185 21.05C217.945 20.3767 217.825 19.6033 217.825 18.73C217.825 18.0233 217.931 17.3633 218.145 16.75C218.365 16.1367 218.678 15.6067 219.085 15.16C219.491 14.7067 219.988 14.3533 220.575 14.1C221.161 13.84 221.821 13.71 222.555 13.71C223.161 13.71 223.721 13.8133 224.235 14.02C224.755 14.22 225.201 14.5133 225.575 14.9C225.955 15.28 226.251 15.7533 226.465 16.32C226.678 16.88 226.785 17.52 226.785 18.24C226.785 18.52 226.755 18.7067 226.695 18.8C226.635 18.8933 226.521 18.94 226.355 18.94H219.585C219.605 19.58 219.691 20.1367 219.845 20.61C220.005 21.0833 220.225 21.48 220.505 21.8C220.785 22.1133 221.118 22.35 221.505 22.51C221.891 22.6633 222.325 22.74 222.805 22.74C223.251 22.74 223.635 22.69 223.955 22.59C224.281 22.4833 224.561 22.37 224.795 22.25C225.028 22.13 225.221 22.02 225.375 21.92C225.535 21.8133 225.671 21.76 225.785 21.76C225.931 21.76 226.045 21.8167 226.125 21.93L226.625 22.58ZM229.071 24V13.87H230.141C230.394 13.87 230.551 13.9933 230.611 14.24L230.741 15.28C231.114 14.82 231.534 14.4433 232.001 14.15C232.468 13.8567 233.008 13.71 233.621 13.71C234.301 13.71 234.851 13.9 235.271 14.28C235.698 14.66 236.004 15.1733 236.191 15.82C236.338 15.4533 236.524 15.1367 236.751 14.87C236.984 14.6033 237.244 14.3833 237.531 14.21C237.818 14.0367 238.121 13.91 238.441 13.83C238.768 13.75 239.098 13.71 239.431 13.71C239.964 13.71 240.438 13.7967 240.851 13.97C241.271 14.1367 241.624 14.3833 241.911 14.71C242.204 15.0367 242.428 15.44 242.581 15.92C242.734 16.3933 242.811 16.9367 242.811 17.55V24H241.021V17.55C241.021 16.7567 240.848 16.1567 240.501 15.75C240.154 15.3367 239.654 15.13 239.001 15.13C238.708 15.13 238.428 15.1833 238.161 15.29C237.901 15.39 237.671 15.54 237.471 15.74C237.271 15.94 237.111 16.1933 236.991 16.5C236.878 16.8 236.821 17.15 236.821 17.55V24H235.031V17.55C235.031 16.7367 234.868 16.13 234.541 15.73C234.214 15.33 233.738 15.13 233.111 15.13C232.671 15.13 232.264 15.25 231.891 15.49C231.518 15.7233 231.174 16.0433 230.861 16.45V24H229.071ZM251.106 19.44C250.286 19.4667 249.586 19.5333 249.006 19.64C248.433 19.74 247.963 19.8733 247.596 20.04C247.236 20.2067 246.973 20.4033 246.806 20.63C246.646 20.8567 246.566 21.11 246.566 21.39C246.566 21.6567 246.61 21.8867 246.696 22.08C246.783 22.2733 246.9 22.4333 247.046 22.56C247.2 22.68 247.376 22.77 247.576 22.83C247.783 22.8833 248.003 22.91 248.236 22.91C248.55 22.91 248.836 22.88 249.096 22.82C249.356 22.7533 249.6 22.66 249.826 22.54C250.06 22.42 250.28 22.2767 250.486 22.11C250.7 21.9433 250.906 21.7533 251.106 21.54V19.44ZM245.356 15.3C245.916 14.76 246.52 14.3567 247.166 14.09C247.813 13.8233 248.53 13.69 249.316 13.69C249.883 13.69 250.386 13.7833 250.826 13.97C251.266 14.1567 251.636 14.4167 251.936 14.75C252.236 15.0833 252.463 15.4867 252.616 15.96C252.77 16.4333 252.846 16.9533 252.846 17.52V24H252.056C251.883 24 251.75 23.9733 251.656 23.92C251.563 23.86 251.49 23.7467 251.436 23.58L251.236 22.62C250.97 22.8667 250.71 23.0867 250.456 23.28C250.203 23.4667 249.936 23.6267 249.656 23.76C249.376 23.8867 249.076 23.9833 248.756 24.05C248.443 24.1233 248.093 24.16 247.706 24.16C247.313 24.16 246.943 24.1067 246.596 24C246.25 23.8867 245.946 23.72 245.686 23.5C245.433 23.28 245.23 23.0033 245.076 22.67C244.93 22.33 244.856 21.93 244.856 21.47C244.856 21.07 244.966 20.6867 245.186 20.32C245.406 19.9467 245.763 19.6167 246.256 19.33C246.75 19.0433 247.393 18.81 248.186 18.63C248.98 18.4433 249.953 18.3367 251.106 18.31V17.52C251.106 16.7333 250.936 16.14 250.596 15.74C250.256 15.3333 249.76 15.13 249.106 15.13C248.666 15.13 248.296 15.1867 247.996 15.3C247.703 15.4067 247.446 15.53 247.226 15.67C247.013 15.8033 246.826 15.9267 246.666 16.04C246.513 16.1467 246.36 16.2 246.206 16.2C246.086 16.2 245.983 16.17 245.896 16.11C245.81 16.0433 245.736 15.9633 245.676 15.87L245.356 15.3ZM257.538 13.87V24H255.758V13.87H257.538ZM257.918 10.69C257.918 10.8633 257.881 11.0267 257.808 11.18C257.741 11.3267 257.648 11.46 257.528 11.58C257.414 11.6933 257.278 11.7833 257.118 11.85C256.964 11.9167 256.801 11.95 256.628 11.95C256.454 11.95 256.291 11.9167 256.138 11.85C255.991 11.7833 255.861 11.6933 255.748 11.58C255.634 11.46 255.544 11.3267 255.478 11.18C255.411 11.0267 255.378 10.8633 255.378 10.69C255.378 10.5167 255.411 10.3533 255.478 10.2C255.544 10.04 255.634 9.90333 255.748 9.79C255.861 9.67 255.991 9.57667 256.138 9.51C256.291 9.44333 256.454 9.41 256.628 9.41C256.801 9.41 256.964 9.44333 257.118 9.51C257.278 9.57667 257.414 9.67 257.528 9.79C257.648 9.90333 257.741 10.04 257.808 10.2C257.881 10.3533 257.918 10.5167 257.918 10.69ZM262.242 15.34C262.462 15.0933 262.696 14.87 262.942 14.67C263.189 14.47 263.449 14.3 263.722 14.16C264.002 14.0133 264.296 13.9033 264.602 13.83C264.916 13.75 265.252 13.71 265.612 13.71C266.166 13.71 266.652 13.8033 267.072 13.99C267.499 14.17 267.852 14.43 268.132 14.77C268.419 15.1033 268.636 15.5067 268.782 15.98C268.929 16.4533 269.002 16.9767 269.002 17.55V24H267.212V17.55C267.212 16.7833 267.036 16.19 266.682 15.77C266.336 15.3433 265.806 15.13 265.092 15.13C264.566 15.13 264.072 15.2567 263.612 15.51C263.159 15.7633 262.739 16.1067 262.352 16.54V24H260.562V13.87H261.632C261.886 13.87 262.042 13.9933 262.102 14.24L262.242 15.34ZM278.415 16.28C278.081 15.8333 277.721 15.5233 277.335 15.35C276.948 15.17 276.515 15.08 276.035 15.08C275.095 15.08 274.371 15.4167 273.865 16.09C273.358 16.7633 273.105 17.7233 273.105 18.97C273.105 19.63 273.161 20.1967 273.275 20.67C273.388 21.1367 273.555 21.5233 273.775 21.83C273.995 22.13 274.265 22.35 274.585 22.49C274.905 22.63 275.268 22.7 275.675 22.7C276.261 22.7 276.771 22.5667 277.205 22.3C277.645 22.0333 278.048 21.6567 278.415 21.17V16.28ZM280.195 9.27V24H279.135C278.881 24 278.721 23.8767 278.655 23.63L278.495 22.4C278.061 22.92 277.568 23.34 277.015 23.66C276.461 23.98 275.821 24.14 275.095 24.14C274.515 24.14 273.988 24.03 273.515 23.81C273.041 23.5833 272.638 23.2533 272.305 22.82C271.971 22.3867 271.715 21.8467 271.535 21.2C271.355 20.5533 271.265 19.81 271.265 18.97C271.265 18.2233 271.365 17.53 271.565 16.89C271.765 16.2433 272.051 15.6833 272.425 15.21C272.798 14.7367 273.255 14.3667 273.795 14.1C274.341 13.8267 274.955 13.69 275.635 13.69C276.255 13.69 276.785 13.7967 277.225 14.01C277.671 14.2167 278.068 14.5067 278.415 14.88V9.27H280.195ZM289.886 17.83C289.886 17.4167 289.826 17.04 289.706 16.7C289.593 16.3533 289.423 16.0567 289.196 15.81C288.976 15.5567 288.706 15.3633 288.386 15.23C288.066 15.09 287.703 15.02 287.296 15.02C286.443 15.02 285.766 15.27 285.266 15.77C284.773 16.2633 284.466 16.95 284.346 17.83H289.886ZM291.326 22.58C291.106 22.8467 290.843 23.08 290.536 23.28C290.229 23.4733 289.899 23.6333 289.546 23.76C289.199 23.8867 288.839 23.98 288.466 24.04C288.093 24.1067 287.723 24.14 287.356 24.14C286.656 24.14 286.009 24.0233 285.416 23.79C284.829 23.55 284.319 23.2033 283.886 22.75C283.459 22.29 283.126 21.7233 282.886 21.05C282.646 20.3767 282.526 19.6033 282.526 18.73C282.526 18.0233 282.633 17.3633 282.846 16.75C283.066 16.1367 283.379 15.6067 283.786 15.16C284.193 14.7067 284.689 14.3533 285.276 14.1C285.863 13.84 286.523 13.71 287.256 13.71C287.863 13.71 288.423 13.8133 288.936 14.02C289.456 14.22 289.903 14.5133 290.276 14.9C290.656 15.28 290.953 15.7533 291.166 16.32C291.379 16.88 291.486 17.52 291.486 18.24C291.486 18.52 291.456 18.7067 291.396 18.8C291.336 18.8933 291.223 18.94 291.056 18.94H284.286C284.306 19.58 284.393 20.1367 284.546 20.61C284.706 21.0833 284.926 21.48 285.206 21.8C285.486 22.1133 285.819 22.35 286.206 22.51C286.593 22.6633 287.026 22.74 287.506 22.74C287.953 22.74 288.336 22.69 288.656 22.59C288.983 22.4833 289.263 22.37 289.496 22.25C289.729 22.13 289.923 22.02 290.076 21.92C290.236 21.8133 290.373 21.76 290.486 21.76C290.633 21.76 290.746 21.8167 290.826 21.93L291.326 22.58ZM295.463 15.9C295.783 15.2067 296.176 14.6667 296.643 14.28C297.109 13.8867 297.679 13.69 298.353 13.69C298.566 13.69 298.769 13.7133 298.963 13.76C299.163 13.8067 299.339 13.88 299.493 13.98L299.363 15.31C299.323 15.4767 299.223 15.56 299.063 15.56C298.969 15.56 298.833 15.54 298.653 15.5C298.473 15.46 298.269 15.44 298.043 15.44C297.723 15.44 297.436 15.4867 297.183 15.58C296.936 15.6733 296.713 15.8133 296.513 16C296.319 16.18 296.143 16.4067 295.983 16.68C295.829 16.9467 295.689 17.2533 295.563 17.6V24H293.773V13.87H294.793C294.986 13.87 295.119 13.9067 295.193 13.98C295.266 14.0533 295.316 14.18 295.343 14.36L295.463 15.9ZM306.999 15.54C306.919 15.6867 306.796 15.76 306.629 15.76C306.529 15.76 306.416 15.7233 306.289 15.65C306.162 15.5767 306.006 15.4967 305.819 15.41C305.639 15.3167 305.422 15.2333 305.169 15.16C304.916 15.08 304.616 15.04 304.269 15.04C303.969 15.04 303.699 15.08 303.459 15.16C303.219 15.2333 303.012 15.3367 302.839 15.47C302.672 15.6033 302.542 15.76 302.449 15.94C302.362 16.1133 302.319 16.3033 302.319 16.51C302.319 16.77 302.392 16.9867 302.539 17.16C302.692 17.3333 302.892 17.4833 303.139 17.61C303.386 17.7367 303.666 17.85 303.979 17.95C304.292 18.0433 304.612 18.1467 304.939 18.26C305.272 18.3667 305.596 18.4867 305.909 18.62C306.222 18.7533 306.502 18.92 306.749 19.12C306.996 19.32 307.192 19.5667 307.339 19.86C307.492 20.1467 307.569 20.4933 307.569 20.9C307.569 21.3667 307.486 21.8 307.319 22.2C307.152 22.5933 306.906 22.9367 306.579 23.23C306.252 23.5167 305.852 23.7433 305.379 23.91C304.906 24.0767 304.359 24.16 303.739 24.16C303.032 24.16 302.392 24.0467 301.819 23.82C301.246 23.5867 300.759 23.29 300.359 22.93L300.779 22.25C300.832 22.1633 300.896 22.0967 300.969 22.05C301.042 22.0033 301.136 21.98 301.249 21.98C301.369 21.98 301.496 22.0267 301.629 22.12C301.762 22.2133 301.922 22.3167 302.109 22.43C302.302 22.5433 302.536 22.6467 302.809 22.74C303.082 22.8333 303.422 22.88 303.829 22.88C304.176 22.88 304.479 22.8367 304.739 22.75C304.999 22.6567 305.216 22.5333 305.389 22.38C305.562 22.2267 305.689 22.05 305.769 21.85C305.856 21.65 305.899 21.4367 305.899 21.21C305.899 20.93 305.822 20.7 305.669 20.52C305.522 20.3333 305.326 20.1767 305.079 20.05C304.832 19.9167 304.549 19.8033 304.229 19.71C303.916 19.61 303.592 19.5067 303.259 19.4C302.932 19.2933 302.609 19.1733 302.289 19.04C301.976 18.9 301.696 18.7267 301.449 18.52C301.202 18.3133 301.002 18.06 300.849 17.76C300.702 17.4533 300.629 17.0833 300.629 16.65C300.629 16.2633 300.709 15.8933 300.869 15.54C301.029 15.18 301.262 14.8667 301.569 14.6C301.876 14.3267 302.252 14.11 302.699 13.95C303.146 13.79 303.656 13.71 304.229 13.71C304.896 13.71 305.492 13.8167 306.019 14.03C306.552 14.2367 307.012 14.5233 307.399 14.89L306.999 15.54Z" fill="black"/>
<path d="M110.808 52.564C111.088 52.564 111.308 52.648 111.468 52.816C111.628 52.976 111.708 53.184 111.708 53.44V55H100.02V54.124C100.02 53.948 100.056 53.764 100.128 53.572C100.2 53.38 100.316 53.204 100.476 53.044L105.852 47.656C106.308 47.2 106.712 46.764 107.064 46.348C107.424 45.932 107.728 45.516 107.976 45.1C108.232 44.684 108.424 44.264 108.552 43.84C108.688 43.408 108.756 42.956 108.756 42.484C108.756 42.028 108.684 41.628 108.54 41.284C108.404 40.932 108.212 40.644 107.964 40.42C107.724 40.188 107.432 40.016 107.088 39.904C106.752 39.784 106.38 39.724 105.972 39.724C105.58 39.724 105.216 39.78 104.88 39.892C104.552 40.004 104.256 40.16 103.992 40.36C103.736 40.56 103.52 40.8 103.344 41.08C103.176 41.352 103.052 41.652 102.972 41.98C102.852 42.308 102.696 42.528 102.504 42.64C102.32 42.752 102.048 42.776 101.688 42.712L100.332 42.472C100.452 41.656 100.676 40.94 101.004 40.324C101.34 39.708 101.76 39.196 102.264 38.788C102.768 38.372 103.344 38.06 103.992 37.852C104.648 37.636 105.356 37.528 106.116 37.528C106.884 37.528 107.588 37.644 108.228 37.876C108.876 38.1 109.432 38.424 109.896 38.848C110.368 39.264 110.736 39.772 111 40.372C111.264 40.972 111.396 41.648 111.396 42.4C111.396 43.04 111.3 43.632 111.108 44.176C110.924 44.72 110.672 45.24 110.352 45.736C110.032 46.232 109.656 46.716 109.224 47.188C108.8 47.652 108.352 48.124 107.88 48.604L103.704 52.876C104.048 52.78 104.392 52.704 104.736 52.648C105.088 52.592 105.42 52.564 105.732 52.564H110.808Z" fill="black"/>
<path d="M18.808 87.564C19.088 87.564 19.308 87.648 19.468 87.816C19.628 87.976 19.708 88.184 19.708 88.44V90H8.02V89.124C8.02 88.948 8.056 88.764 8.128 88.572C8.2 88.38 8.316 88.204 8.476 88.044L13.852 82.656C14.308 82.2 14.712 81.764 15.064 81.348C15.424 80.932 15.728 80.516 15.976 80.1C16.232 79.684 16.424 79.264 16.552 78.84C16.688 78.408 16.756 77.956 16.756 77.484C16.756 77.028 16.684 76.628 16.54 76.284C16.404 75.932 16.212 75.644 15.964 75.42C15.724 75.188 15.432 75.016 15.088 74.904C14.752 74.784 14.38 74.724 13.972 74.724C13.58 74.724 13.216 74.78 12.88 74.892C12.552 75.004 12.256 75.16 11.992 75.36C11.736 75.56 11.52 75.8 11.344 76.08C11.176 76.352 11.052 76.652 10.972 76.98C10.852 77.308 10.696 77.528 10.504 77.64C10.32 77.752 10.048 77.776 9.688 77.712L8.332 77.472C8.452 76.656 8.676 75.94 9.004 75.324C9.34 74.708 9.76 74.196 10.264 73.788C10.768 73.372 11.344 73.06 11.992 72.852C12.648 72.636 13.356 72.528 14.116 72.528C14.884 72.528 15.588 72.644 16.228 72.876C16.876 73.1 17.432 73.424 17.896 73.848C18.368 74.264 18.736 74.772 19 75.372C19.264 75.972 19.396 76.648 19.396 77.4C19.396 78.04 19.3 78.632 19.108 79.176C18.924 79.72 18.672 80.24 18.352 80.736C18.032 81.232 17.656 81.716 17.224 82.188C16.8 82.652 16.352 83.124 15.88 83.604L11.704 87.876C12.048 87.78 12.392 87.704 12.736 87.648C13.088 87.592 13.42 87.564 13.732 87.564H18.808Z" fill="black"/>
<path d="M103.62 12.104C104.036 12.016 104.432 11.952 104.808 11.912C105.192 11.872 105.56 11.852 105.912 11.852C106.816 11.852 107.612 11.988 108.3 12.26C108.996 12.524 109.576 12.892 110.04 13.364C110.512 13.836 110.864 14.392 111.096 15.032C111.336 15.664 111.456 16.352 111.456 17.096C111.456 18.016 111.296 18.852 110.976 19.604C110.656 20.356 110.212 21 109.644 21.536C109.076 22.064 108.404 22.472 107.628 22.76C106.86 23.048 106.028 23.192 105.132 23.192C104.604 23.192 104.1 23.14 103.62 23.036C103.148 22.932 102.704 22.792 102.288 22.616C101.872 22.432 101.488 22.224 101.136 21.992C100.784 21.752 100.468 21.504 100.188 21.248L100.98 20.144C101.148 19.904 101.372 19.784 101.652 19.784C101.828 19.784 102.02 19.848 102.228 19.976C102.436 20.104 102.676 20.244 102.948 20.396C103.228 20.54 103.556 20.676 103.932 20.804C104.308 20.932 104.756 20.996 105.276 20.996C105.844 20.996 106.352 20.904 106.8 20.72C107.248 20.536 107.624 20.28 107.928 19.952C108.24 19.616 108.476 19.216 108.636 18.752C108.796 18.288 108.876 17.78 108.876 17.228C108.876 16.724 108.8 16.272 108.648 15.872C108.504 15.472 108.284 15.132 107.988 14.852C107.7 14.572 107.336 14.36 106.896 14.216C106.456 14.064 105.948 13.988 105.372 13.988C104.948 13.988 104.512 14.024 104.064 14.096C103.624 14.168 103.176 14.28 102.72 14.432L101.112 13.976L102.528 5.72H110.892V6.836C110.892 7.204 110.776 7.504 110.544 7.736C110.312 7.968 109.924 8.084 109.38 8.084H104.316L103.62 12.104Z" fill="black"/>
<path d="M18.808 20.564C19.088 20.564 19.308 20.648 19.468 20.816C19.628 20.976 19.708 21.184 19.708 21.44V23H8.02V22.124C8.02 21.948 8.056 21.764 8.128 21.572C8.2 21.38 8.316 21.204 8.476 21.044L13.852 15.656C14.308 15.2 14.712 14.764 15.064 14.348C15.424 13.932 15.728 13.516 15.976 13.1C16.232 12.684 16.424 12.264 16.552 11.84C16.688 11.408 16.756 10.956 16.756 10.484C16.756 10.028 16.684 9.628 16.54 9.284C16.404 8.932 16.212 8.644 15.964 8.42C15.724 8.188 15.432 8.016 15.088 7.904C14.752 7.784 14.38 7.724 13.972 7.724C13.58 7.724 13.216 7.78 12.88 7.892C12.552 8.004 12.256 8.16 11.992 8.36C11.736 8.56 11.52 8.8 11.344 9.08C11.176 9.352 11.052 9.652 10.972 9.98C10.852 10.308 10.696 10.528 10.504 10.64C10.32 10.752 10.048 10.776 9.688 10.712L8.332 10.472C8.452 9.656 8.676 8.94 9.004 8.324C9.34 7.708 9.76 7.196 10.264 6.788C10.768 6.372 11.344 6.06 11.992 5.852C12.648 5.636 13.356 5.528 14.116 5.528C14.884 5.528 15.588 5.644 16.228 5.876C16.876 6.1 17.432 6.424 17.896 6.848C18.368 7.264 18.736 7.772 19 8.372C19.264 8.972 19.396 9.648 19.396 10.4C19.396 11.04 19.3 11.632 19.108 12.176C18.924 12.72 18.672 13.24 18.352 13.736C18.032 14.232 17.656 14.716 17.224 15.188C16.8 15.652 16.352 16.124 15.88 16.604L11.704 20.876C12.048 20.78 12.392 20.704 12.736 20.648C13.088 20.592 13.42 20.564 13.732 20.564H18.808Z" fill="black"/>
<path d="M18.808 52.564C19.088 52.564 19.308 52.648 19.468 52.816C19.628 52.976 19.708 53.184 19.708 53.44V55H8.02V54.124C8.02 53.948 8.056 53.764 8.128 53.572C8.2 53.38 8.316 53.204 8.476 53.044L13.852 47.656C14.308 47.2 14.712 46.764 15.064 46.348C15.424 45.932 15.728 45.516 15.976 45.1C16.232 44.684 16.424 44.264 16.552 43.84C16.688 43.408 16.756 42.956 16.756 42.484C16.756 42.028 16.684 41.628 16.54 41.284C16.404 40.932 16.212 40.644 15.964 40.42C15.724 40.188 15.432 40.016 15.088 39.904C14.752 39.784 14.38 39.724 13.972 39.724C13.58 39.724 13.216 39.78 12.88 39.892C12.552 40.004 12.256 40.16 11.992 40.36C11.736 40.56 11.52 40.8 11.344 41.08C11.176 41.352 11.052 41.652 10.972 41.98C10.852 42.308 10.696 42.528 10.504 42.64C10.32 42.752 10.048 42.776 9.688 42.712L8.332 42.472C8.452 41.656 8.676 40.94 9.004 40.324C9.34 39.708 9.76 39.196 10.264 38.788C10.768 38.372 11.344 38.06 11.992 37.852C12.648 37.636 13.356 37.528 14.116 37.528C14.884 37.528 15.588 37.644 16.228 37.876C16.876 38.1 17.432 38.424 17.896 38.848C18.368 39.264 18.736 39.772 19 40.372C19.264 40.972 19.396 41.648 19.396 42.4C19.396 43.04 19.3 43.632 19.108 44.176C18.924 44.72 18.672 45.24 18.352 45.736C18.032 46.232 17.656 46.716 17.224 47.188C16.8 47.652 16.352 48.124 15.88 48.604L11.704 52.876C12.048 52.78 12.392 52.704 12.736 52.648C13.088 52.592 13.42 52.564 13.732 52.564H18.808Z" fill="black"/>
<path d="M236.324 53.044V55H226.904V53.044H230.504V42.22C230.504 41.836 230.516 41.444 230.54 41.044L227.768 43.384C227.648 43.48 227.524 43.544 227.396 43.576C227.276 43.6 227.16 43.6 227.048 43.576C226.944 43.552 226.848 43.516 226.76 43.468C226.68 43.412 226.616 43.352 226.568 43.288L225.764 42.16L230.972 37.684H233.072V53.044H236.324Z" fill="black"/>
<path d="M111.324 88.044V90H101.904V88.044H105.504V77.22C105.504 76.836 105.516 76.444 105.54 76.044L102.768 78.384C102.648 78.48 102.524 78.544 102.396 78.576C102.276 78.6 102.16 78.6 102.048 78.576C101.944 78.552 101.848 78.516 101.76 78.468C101.68 78.412 101.616 78.352 101.568 78.288L100.764 77.16L105.972 72.684H108.072V88.044H111.324Z" fill="black"/>
<path d="M236.324 123.044V125H226.904V123.044H230.504V112.22C230.504 111.836 230.516 111.444 230.54 111.044L227.768 113.384C227.648 113.48 227.524 113.544 227.396 113.576C227.276 113.6 227.16 113.6 227.048 113.576C226.944 113.552 226.848 113.516 226.76 113.468C226.68 113.412 226.616 113.352 226.568 113.288L225.764 112.16L230.972 107.684H233.072V123.044H236.324Z" fill="black"/>
<path d="M112.26 116.36C112.26 117.872 112.096 119.18 111.768 120.284C111.448 121.388 111.004 122.304 110.436 123.032C109.868 123.76 109.2 124.3 108.432 124.652C107.664 125.004 106.836 125.18 105.948 125.18C105.06 125.18 104.232 125.004 103.464 124.652C102.696 124.3 102.028 123.76 101.46 123.032C100.9 122.304 100.46 121.388 100.14 120.284C99.82 119.18 99.66 117.872 99.66 116.36C99.66 114.848 99.82 113.54 100.14 112.436C100.46 111.324 100.9 110.408 101.46 109.688C102.028 108.96 102.696 108.42 103.464 108.068C104.232 107.708 105.06 107.528 105.948 107.528C106.836 107.528 107.664 107.708 108.432 108.068C109.2 108.42 109.868 108.96 110.436 109.688C111.004 110.408 111.448 111.324 111.768 112.436C112.096 113.54 112.26 114.848 112.26 116.36ZM109.596 116.36C109.596 115.08 109.492 114.016 109.284 113.168C109.084 112.312 108.816 111.628 108.48 111.116C108.144 110.604 107.756 110.24 107.316 110.024C106.876 109.808 106.42 109.7 105.948 109.7C105.468 109.7 105.008 109.808 104.568 110.024C104.136 110.24 103.752 110.604 103.416 111.116C103.08 111.628 102.812 112.312 102.612 113.168C102.412 114.016 102.312 115.08 102.312 116.36C102.312 117.64 102.412 118.708 102.612 119.564C102.812 120.412 103.08 121.092 103.416 121.604C103.752 122.116 104.136 122.48 104.568 122.696C105.008 122.912 105.468 123.02 105.948 123.02C106.42 123.02 106.876 122.912 107.316 122.696C107.756 122.48 108.144 122.116 108.48 121.604C108.816 121.092 109.084 120.412 109.284 119.564C109.492 118.708 109.596 117.64 109.596 116.36Z" fill="black"/>
<path d="M237.26 81.36C237.26 82.872 237.096 84.18 236.768 85.284C236.448 86.388 236.004 87.304 235.436 88.032C234.868 88.76 234.2 89.3 233.432 89.652C232.664 90.004 231.836 90.18 230.948 90.18C230.06 90.18 229.232 90.004 228.464 89.652C227.696 89.3 227.028 88.76 226.46 88.032C225.9 87.304 225.46 86.388 225.14 85.284C224.82 84.18 224.66 82.872 224.66 81.36C224.66 79.848 224.82 78.54 225.14 77.436C225.46 76.324 225.9 75.408 226.46 74.688C227.028 73.96 227.696 73.42 228.464 73.068C229.232 72.708 230.06 72.528 230.948 72.528C231.836 72.528 232.664 72.708 233.432 73.068C234.2 73.42 234.868 73.96 235.436 74.688C236.004 75.408 236.448 76.324 236.768 77.436C237.096 78.54 237.26 79.848 237.26 81.36ZM234.596 81.36C234.596 80.08 234.492 79.016 234.284 78.168C234.084 77.312 233.816 76.628 233.48 76.116C233.144 75.604 232.756 75.24 232.316 75.024C231.876 74.808 231.42 74.7 230.948 74.7C230.468 74.7 230.008 74.808 229.568 75.024C229.136 75.24 228.752 75.604 228.416 76.116C228.08 76.628 227.812 77.312 227.612 78.168C227.412 79.016 227.312 80.08 227.312 81.36C227.312 82.64 227.412 83.708 227.612 84.564C227.812 85.412 228.08 86.092 228.416 86.604C228.752 87.116 229.136 87.48 229.568 87.696C230.008 87.912 230.468 88.02 230.948 88.02C231.42 88.02 231.876 87.912 232.316 87.696C232.756 87.48 233.144 87.116 233.48 86.604C233.816 86.092 234.084 85.412 234.284 84.564C234.492 83.708 234.596 82.64 234.596 81.36Z" fill="black"/>
<line x1="33" y1="1" x2="33" y2="129" stroke="black" stroke-width="2" stroke-linecap="round"/>
<line x1="1" y1="31" x2="178" y2="31" stroke="black" stroke-width="2" stroke-linecap="round"/>
<line x1="1" y1="64" x2="178" y2="64" stroke="black" stroke-width="2" stroke-linecap="round"/>
<line x1="1" y1="97" x2="178" y2="97" stroke="black" stroke-width="2" stroke-linecap="round"/>
<path d="M268 130C268 130.552 268.448 131 269 131C269.552 131 270 130.552 270 130L268 130ZM269 35L263.227 45L274.774 45L269 35ZM270 130L270 44L268 44L268 130L270 130Z" fill="black"/>
</svg>
