<svg width="453" height="246" viewBox="0 0 453 246" fill="none" xmlns="http://www.w3.org/2000/svg">
<line x1="68" y1="18" x2="166" y2="18" stroke="black" stroke-width="2" stroke-linecap="round"/>
<line x1="68.4142" y1="19" x2="137.711" y2="88.2965" stroke="black" stroke-width="2" stroke-linecap="round"/>
<line x1="226" y1="89" x2="324" y2="89" stroke="black" stroke-width="2" stroke-linecap="round"/>
<line x1="330" y1="160" x2="428" y2="160" stroke="black" stroke-width="2" stroke-linecap="round"/>
<line x1="226.414" y1="90" x2="295.711" y2="159.296" stroke="black" stroke-width="2" stroke-linecap="round"/>
<line x1="330.414" y1="161" x2="399.711" y2="230.296" stroke="black" stroke-width="2" stroke-linecap="round"/>
<path d="M4.62 14.104C5.036 14.016 5.432 13.952 5.808 13.912C6.192 13.872 6.56 13.852 6.912 13.852C7.816 13.852 8.612 13.988 9.3 14.26C9.996 14.524 10.576 14.892 11.04 15.364C11.512 15.836 11.864 16.392 12.096 17.032C12.336 17.664 12.456 18.352 12.456 19.096C12.456 20.016 12.296 20.852 11.976 21.604C11.656 22.356 11.212 23 10.644 23.536C10.076 24.064 9.404 24.472 8.628 24.76C7.86 25.048 7.028 25.192 6.132 25.192C5.604 25.192 5.1 25.14 4.62 25.036C4.148 24.932 3.704 24.792 3.288 24.616C2.872 24.432 2.488 24.224 2.136 23.992C1.784 23.752 1.468 23.504 1.188 23.248L1.98 22.144C2.148 21.904 2.372 21.784 2.652 21.784C2.828 21.784 3.02 21.848 3.228 21.976C3.436 22.104 3.676 22.244 3.948 22.396C4.228 22.54 4.556 22.676 4.932 22.804C5.308 22.932 5.756 22.996 6.276 22.996C6.844 22.996 7.352 22.904 7.8 22.72C8.248 22.536 8.624 22.28 8.928 21.952C9.24 21.616 9.476 21.216 9.636 20.752C9.796 20.288 9.876 19.78 9.876 19.228C9.876 18.724 9.8 18.272 9.648 17.872C9.504 17.472 9.284 17.132 8.988 16.852C8.7 16.572 8.336 16.36 7.896 16.216C7.456 16.064 6.948 15.988 6.372 15.988C5.948 15.988 5.512 16.024 5.064 16.096C4.624 16.168 4.176 16.28 3.72 16.432L2.112 15.976L3.528 7.72H11.892V8.836C11.892 9.204 11.776 9.504 11.544 9.736C11.312 9.968 10.924 10.084 10.38 10.084H5.316L4.62 14.104ZM21.2904 15.976H32.8944V17.92H21.2904V15.976ZM25.4184 12.676C25.4184 12.444 25.4584 12.228 25.5384 12.028C25.6264 11.82 25.7464 11.644 25.8984 11.5C26.0504 11.348 26.2264 11.228 26.4264 11.14C26.6264 11.052 26.8464 11.008 27.0864 11.008C27.3184 11.008 27.5344 11.052 27.7344 11.14C27.9424 11.228 28.1184 11.348 28.2624 11.5C28.4144 11.644 28.5344 11.82 28.6224 12.028C28.7104 12.228 28.7544 12.444 28.7544 12.676C28.7544 12.916 28.7104 13.136 28.6224 13.336C28.5344 13.536 28.4144 13.712 28.2624 13.864C28.1184 14.016 27.9424 14.136 27.7344 14.224C27.5344 14.304 27.3184 14.344 27.0864 14.344C26.8464 14.344 26.6264 14.304 26.4264 14.224C26.2264 14.136 26.0504 14.016 25.8984 13.864C25.7464 13.712 25.6264 13.536 25.5384 13.336C25.4584 13.136 25.4184 12.916 25.4184 12.676ZM25.4184 21.22C25.4184 20.988 25.4584 20.772 25.5384 20.572C25.6264 20.364 25.7464 20.188 25.8984 20.044C26.0504 19.892 26.2264 19.772 26.4264 19.684C26.6264 19.596 26.8464 19.552 27.0864 19.552C27.3184 19.552 27.5344 19.596 27.7344 19.684C27.9424 19.772 28.1184 19.892 28.2624 20.044C28.4144 20.188 28.5344 20.364 28.6224 20.572C28.7104 20.772 28.7544 20.988 28.7544 21.22C28.7544 21.46 28.7104 21.68 28.6224 21.88C28.5344 22.08 28.4144 22.256 28.2624 22.408C28.1184 22.56 27.9424 22.68 27.7344 22.768C27.5344 22.848 27.3184 22.888 27.0864 22.888C26.8464 22.888 26.6264 22.848 26.4264 22.768C26.2264 22.68 26.0504 22.56 25.8984 22.408C25.7464 22.256 25.6264 22.08 25.5384 21.88C25.4584 21.68 25.4184 21.46 25.4184 21.22ZM52.0849 22.564C52.3649 22.564 52.5849 22.648 52.7449 22.816C52.9049 22.976 52.9849 23.184 52.9849 23.44V25H41.2969V24.124C41.2969 23.948 41.3329 23.764 41.4049 23.572C41.4769 23.38 41.5929 23.204 41.7529 23.044L47.1289 17.656C47.5849 17.2 47.9889 16.764 48.3409 16.348C48.7009 15.932 49.0049 15.516 49.2529 15.1C49.5089 14.684 49.7009 14.264 49.8289 13.84C49.9649 13.408 50.0329 12.956 50.0329 12.484C50.0329 12.028 49.9609 11.628 49.8169 11.284C49.6809 10.932 49.4889 10.644 49.2409 10.42C49.0009 10.188 48.7089 10.016 48.3649 9.904C48.0289 9.784 47.6569 9.724 47.2489 9.724C46.8569 9.724 46.4929 9.78 46.1569 9.892C45.8289 10.004 45.5329 10.16 45.2689 10.36C45.0129 10.56 44.7969 10.8 44.6209 11.08C44.4529 11.352 44.3289 11.652 44.2489 11.98C44.1289 12.308 43.9729 12.528 43.7809 12.64C43.5969 12.752 43.3249 12.776 42.9649 12.712L41.6089 12.472C41.7289 11.656 41.9529 10.94 42.2809 10.324C42.6169 9.708 43.0369 9.196 43.5409 8.788C44.0449 8.372 44.6209 8.06 45.2689 7.852C45.9249 7.636 46.6329 7.528 47.3929 7.528C48.1609 7.528 48.8649 7.644 49.5049 7.876C50.1529 8.1 50.7089 8.424 51.1729 8.848C51.6449 9.264 52.0129 9.772 52.2769 10.372C52.5409 10.972 52.6729 11.648 52.6729 12.4C52.6729 13.04 52.5769 13.632 52.3849 14.176C52.2009 14.72 51.9489 15.24 51.6289 15.736C51.3089 16.232 50.9329 16.716 50.5009 17.188C50.0769 17.652 49.6289 18.124 49.1569 18.604L44.9809 22.876C45.3249 22.78 45.6689 22.704 46.0129 22.648C46.3649 22.592 46.6969 22.564 47.0089 22.564H52.0849Z" fill="black"/>
<path d="M197.324 23.044V25H187.904V23.044H191.504V12.22C191.504 11.836 191.516 11.444 191.54 11.044L188.768 13.384C188.648 13.48 188.524 13.544 188.396 13.576C188.276 13.6 188.16 13.6 188.048 13.576C187.944 13.552 187.848 13.516 187.76 13.468C187.68 13.412 187.616 13.352 187.568 13.288L186.764 12.16L191.972 7.684H194.072V23.044H197.324Z" fill="black"/>
<path d="M165.808 96.564C166.088 96.564 166.308 96.648 166.468 96.816C166.628 96.976 166.708 97.184 166.708 97.44V99H155.02V98.124C155.02 97.948 155.056 97.764 155.128 97.572C155.2 97.38 155.316 97.204 155.476 97.044L160.852 91.656C161.308 91.2 161.712 90.764 162.064 90.348C162.424 89.932 162.728 89.516 162.976 89.1C163.232 88.684 163.424 88.264 163.552 87.84C163.688 87.408 163.756 86.956 163.756 86.484C163.756 86.028 163.684 85.628 163.54 85.284C163.404 84.932 163.212 84.644 162.964 84.42C162.724 84.188 162.432 84.016 162.088 83.904C161.752 83.784 161.38 83.724 160.972 83.724C160.58 83.724 160.216 83.78 159.88 83.892C159.552 84.004 159.256 84.16 158.992 84.36C158.736 84.56 158.52 84.8 158.344 85.08C158.176 85.352 158.052 85.652 157.972 85.98C157.852 86.308 157.696 86.528 157.504 86.64C157.32 86.752 157.048 86.776 156.688 86.712L155.332 86.472C155.452 85.656 155.676 84.94 156.004 84.324C156.34 83.708 156.76 83.196 157.264 82.788C157.768 82.372 158.344 82.06 158.992 81.852C159.648 81.636 160.356 81.528 161.116 81.528C161.884 81.528 162.588 81.644 163.228 81.876C163.876 82.1 164.432 82.424 164.896 82.848C165.368 83.264 165.736 83.772 166 84.372C166.264 84.972 166.396 85.648 166.396 86.4C166.396 87.04 166.3 87.632 166.108 88.176C165.924 88.72 165.672 89.24 165.352 89.736C165.032 90.232 164.656 90.716 164.224 91.188C163.8 91.652 163.352 92.124 162.88 92.604L158.704 96.876C159.048 96.78 159.392 96.704 159.736 96.648C160.088 96.592 160.42 96.564 160.732 96.564H165.808ZM175.29 89.976H186.894V91.92H175.29V89.976ZM179.418 86.676C179.418 86.444 179.458 86.228 179.538 86.028C179.626 85.82 179.746 85.644 179.898 85.5C180.05 85.348 180.226 85.228 180.426 85.14C180.626 85.052 180.846 85.008 181.086 85.008C181.318 85.008 181.534 85.052 181.734 85.14C181.942 85.228 182.118 85.348 182.262 85.5C182.414 85.644 182.534 85.82 182.622 86.028C182.71 86.228 182.754 86.444 182.754 86.676C182.754 86.916 182.71 87.136 182.622 87.336C182.534 87.536 182.414 87.712 182.262 87.864C182.118 88.016 181.942 88.136 181.734 88.224C181.534 88.304 181.318 88.344 181.086 88.344C180.846 88.344 180.626 88.304 180.426 88.224C180.226 88.136 180.05 88.016 179.898 87.864C179.746 87.712 179.626 87.536 179.538 87.336C179.458 87.136 179.418 86.916 179.418 86.676ZM179.418 95.22C179.418 94.988 179.458 94.772 179.538 94.572C179.626 94.364 179.746 94.188 179.898 94.044C180.05 93.892 180.226 93.772 180.426 93.684C180.626 93.596 180.846 93.552 181.086 93.552C181.318 93.552 181.534 93.596 181.734 93.684C181.942 93.772 182.118 93.892 182.262 94.044C182.414 94.188 182.534 94.364 182.622 94.572C182.71 94.772 182.754 94.988 182.754 95.22C182.754 95.46 182.71 95.68 182.622 95.88C182.534 96.08 182.414 96.256 182.262 96.408C182.118 96.56 181.942 96.68 181.734 96.768C181.534 96.848 181.318 96.888 181.086 96.888C180.846 96.888 180.626 96.848 180.426 96.768C180.226 96.68 180.05 96.56 179.898 96.408C179.746 96.256 179.626 96.08 179.538 95.88C179.458 95.68 179.418 95.46 179.418 95.22ZM206.085 96.564C206.365 96.564 206.585 96.648 206.745 96.816C206.905 96.976 206.985 97.184 206.985 97.44V99H195.297V98.124C195.297 97.948 195.333 97.764 195.405 97.572C195.477 97.38 195.593 97.204 195.753 97.044L201.129 91.656C201.585 91.2 201.989 90.764 202.341 90.348C202.701 89.932 203.005 89.516 203.253 89.1C203.509 88.684 203.701 88.264 203.829 87.84C203.965 87.408 204.033 86.956 204.033 86.484C204.033 86.028 203.961 85.628 203.817 85.284C203.681 84.932 203.489 84.644 203.241 84.42C203.001 84.188 202.709 84.016 202.365 83.904C202.029 83.784 201.657 83.724 201.249 83.724C200.857 83.724 200.493 83.78 200.157 83.892C199.829 84.004 199.533 84.16 199.269 84.36C199.013 84.56 198.797 84.8 198.621 85.08C198.453 85.352 198.329 85.652 198.249 85.98C198.129 86.308 197.973 86.528 197.781 86.64C197.597 86.752 197.325 86.776 196.965 86.712L195.609 86.472C195.729 85.656 195.953 84.94 196.281 84.324C196.617 83.708 197.037 83.196 197.541 82.788C198.045 82.372 198.621 82.06 199.269 81.852C199.925 81.636 200.633 81.528 201.393 81.528C202.161 81.528 202.865 81.644 203.505 81.876C204.153 82.1 204.709 82.424 205.173 82.848C205.645 83.264 206.013 83.772 206.277 84.372C206.541 84.972 206.673 85.648 206.673 86.4C206.673 87.04 206.577 87.632 206.385 88.176C206.201 88.72 205.949 89.24 205.629 89.736C205.309 90.232 204.933 90.716 204.501 91.188C204.077 91.652 203.629 92.124 203.157 92.604L198.981 96.876C199.325 96.78 199.669 96.704 200.013 96.648C200.365 96.592 200.697 96.564 201.009 96.564H206.085Z" fill="black"/>
<path d="M420.26 232.36C420.26 233.872 420.096 235.18 419.768 236.284C419.448 237.388 419.004 238.304 418.436 239.032C417.868 239.76 417.2 240.3 416.432 240.652C415.664 241.004 414.836 241.18 413.948 241.18C413.06 241.18 412.232 241.004 411.464 240.652C410.696 240.3 410.028 239.76 409.46 239.032C408.9 238.304 408.46 237.388 408.14 236.284C407.82 235.18 407.66 233.872 407.66 232.36C407.66 230.848 407.82 229.54 408.14 228.436C408.46 227.324 408.9 226.408 409.46 225.688C410.028 224.96 410.696 224.42 411.464 224.068C412.232 223.708 413.06 223.528 413.948 223.528C414.836 223.528 415.664 223.708 416.432 224.068C417.2 224.42 417.868 224.96 418.436 225.688C419.004 226.408 419.448 227.324 419.768 228.436C420.096 229.54 420.26 230.848 420.26 232.36ZM417.596 232.36C417.596 231.08 417.492 230.016 417.284 229.168C417.084 228.312 416.816 227.628 416.48 227.116C416.144 226.604 415.756 226.24 415.316 226.024C414.876 225.808 414.42 225.7 413.948 225.7C413.468 225.7 413.008 225.808 412.568 226.024C412.136 226.24 411.752 226.604 411.416 227.116C411.08 227.628 410.812 228.312 410.612 229.168C410.412 230.016 410.312 231.08 410.312 232.36C410.312 233.64 410.412 234.708 410.612 235.564C410.812 236.412 411.08 237.092 411.416 237.604C411.752 238.116 412.136 238.48 412.568 238.696C413.008 238.912 413.468 239.02 413.948 239.02C414.42 239.02 414.876 238.912 415.316 238.696C415.756 238.48 416.144 238.116 416.48 237.604C416.816 237.092 417.084 236.412 417.284 235.564C417.492 234.708 417.596 233.64 417.596 232.36Z" fill="black"/>
<path d="M451.324 168.044V170H441.904V168.044H445.504V157.22C445.504 156.836 445.516 156.444 445.54 156.044L442.768 158.384C442.648 158.48 442.524 158.544 442.396 158.576C442.276 158.6 442.16 158.6 442.048 158.576C441.944 158.552 441.848 158.516 441.76 158.468C441.68 158.412 441.616 158.352 441.568 158.288L440.764 157.16L445.972 152.684H448.072V168.044H451.324Z" fill="black"/>
<path d="M354.26 90.36C354.26 91.872 354.096 93.18 353.768 94.284C353.448 95.388 353.004 96.304 352.436 97.032C351.868 97.76 351.2 98.3 350.432 98.652C349.664 99.004 348.836 99.18 347.948 99.18C347.06 99.18 346.232 99.004 345.464 98.652C344.696 98.3 344.028 97.76 343.46 97.032C342.9 96.304 342.46 95.388 342.14 94.284C341.82 93.18 341.66 91.872 341.66 90.36C341.66 88.848 341.82 87.54 342.14 86.436C342.46 85.324 342.9 84.408 343.46 83.688C344.028 82.96 344.696 82.42 345.464 82.068C346.232 81.708 347.06 81.528 347.948 81.528C348.836 81.528 349.664 81.708 350.432 82.068C351.2 82.42 351.868 82.96 352.436 83.688C353.004 84.408 353.448 85.324 353.768 86.436C354.096 87.54 354.26 88.848 354.26 90.36ZM351.596 90.36C351.596 89.08 351.492 88.016 351.284 87.168C351.084 86.312 350.816 85.628 350.48 85.116C350.144 84.604 349.756 84.24 349.316 84.024C348.876 83.808 348.42 83.7 347.948 83.7C347.468 83.7 347.008 83.808 346.568 84.024C346.136 84.24 345.752 84.604 345.416 85.116C345.08 85.628 344.812 86.312 344.612 87.168C344.412 88.016 344.312 89.08 344.312 90.36C344.312 91.64 344.412 92.708 344.612 93.564C344.812 94.412 345.08 95.092 345.416 95.604C345.752 96.116 346.136 96.48 346.568 96.696C347.008 96.912 347.468 97.02 347.948 97.02C348.42 97.02 348.876 96.912 349.316 96.696C349.756 96.48 350.144 96.116 350.48 95.604C350.816 95.092 351.084 94.412 351.284 93.564C351.492 92.708 351.596 91.64 351.596 90.36Z" fill="black"/>
<path d="M316.324 168.044V170H306.904V168.044H310.504V157.22C310.504 156.836 310.516 156.444 310.54 156.044L307.768 158.384C307.648 158.48 307.524 158.544 307.396 158.576C307.276 158.6 307.16 158.6 307.048 158.576C306.944 158.552 306.848 158.516 306.76 158.468C306.68 158.412 306.616 158.352 306.568 158.288L305.764 157.16L310.972 152.684H313.072V168.044H316.324Z" fill="black"/>
<path opacity="0.6" d="M84.48 9.52C84.736 8.96533 85.0507 8.53333 85.424 8.224C85.7973 7.90933 86.2533 7.752 86.792 7.752C86.9627 7.752 87.1253 7.77067 87.28 7.808C87.44 7.84533 87.5813 7.904 87.704 7.984L87.6 9.048C87.568 9.18133 87.488 9.248 87.36 9.248C87.2853 9.248 87.176 9.232 87.032 9.2C86.888 9.168 86.7253 9.152 86.544 9.152C86.288 9.152 86.0587 9.18933 85.856 9.264C85.6587 9.33867 85.48 9.45067 85.32 9.6C85.1653 9.744 85.024 9.92533 84.896 10.144C84.7733 10.3573 84.6613 10.6027 84.56 10.88V16H83.128V7.896H83.944C84.0987 7.896 84.2053 7.92533 84.264 7.984C84.3227 8.04267 84.3627 8.144 84.384 8.288L84.48 9.52ZM94.132 11.064C94.132 10.7333 94.084 10.432 93.988 10.16C93.8973 9.88267 93.7613 9.64533 93.58 9.448C93.404 9.24533 93.188 9.09067 92.932 8.984C92.676 8.872 92.3853 8.816 92.06 8.816C91.3773 8.816 90.836 9.016 90.436 9.416C90.0413 9.81067 89.796 10.36 89.7 11.064H94.132ZM95.284 14.864C95.108 15.0773 94.8973 15.264 94.652 15.424C94.4067 15.5787 94.1427 15.7067 93.86 15.808C93.5827 15.9093 93.2947 15.984 92.996 16.032C92.6973 16.0853 92.4013 16.112 92.108 16.112C91.548 16.112 91.0307 16.0187 90.556 15.832C90.0867 15.64 89.6787 15.3627 89.332 15C88.9907 14.632 88.724 14.1787 88.532 13.64C88.34 13.1013 88.244 12.4827 88.244 11.784C88.244 11.2187 88.3293 10.6907 88.5 10.2C88.676 9.70933 88.9267 9.28533 89.252 8.928C89.5773 8.56533 89.9747 8.28267 90.444 8.08C90.9133 7.872 91.4413 7.768 92.028 7.768C92.5133 7.768 92.9613 7.85067 93.372 8.016C93.788 8.176 94.1453 8.41067 94.444 8.72C94.748 9.024 94.9853 9.40267 95.156 9.856C95.3267 10.304 95.412 10.816 95.412 11.392C95.412 11.616 95.388 11.7653 95.34 11.84C95.292 11.9147 95.2013 11.952 95.068 11.952H89.652C89.668 12.464 89.7373 12.9093 89.86 13.288C89.988 13.6667 90.164 13.984 90.388 14.24C90.612 14.4907 90.8787 14.68 91.188 14.808C91.4973 14.9307 91.844 14.992 92.228 14.992C92.5853 14.992 92.892 14.952 93.148 14.872C93.4093 14.7867 93.6333 14.696 93.82 14.6C94.0067 14.504 94.1613 14.416 94.284 14.336C94.412 14.2507 94.5213 14.208 94.612 14.208C94.7293 14.208 94.82 14.2533 94.884 14.344L95.284 14.864ZM97.2411 16V7.896H98.0971C98.2998 7.896 98.4251 7.99467 98.4731 8.192L98.5771 9.024C98.8758 8.656 99.2118 8.35467 99.5851 8.12C99.9585 7.88533 100.39 7.768 100.881 7.768C101.425 7.768 101.865 7.92 102.201 8.224C102.542 8.528 102.788 8.93867 102.937 9.456C103.054 9.16267 103.204 8.90933 103.385 8.696C103.572 8.48267 103.78 8.30667 104.009 8.168C104.238 8.02933 104.481 7.928 104.737 7.864C104.998 7.8 105.262 7.768 105.529 7.768C105.956 7.768 106.334 7.83733 106.665 7.976C107.001 8.10933 107.284 8.30667 107.513 8.568C107.748 8.82933 107.926 9.152 108.049 9.536C108.172 9.91467 108.233 10.3493 108.233 10.84V16H106.801V10.84C106.801 10.2053 106.662 9.72533 106.385 9.4C106.108 9.06933 105.708 8.904 105.185 8.904C104.95 8.904 104.726 8.94667 104.513 9.032C104.305 9.112 104.121 9.232 103.961 9.392C103.801 9.552 103.673 9.75467 103.577 10C103.486 10.24 103.441 10.52 103.441 10.84V16H102.009V10.84C102.009 10.1893 101.878 9.704 101.617 9.384C101.356 9.064 100.974 8.904 100.473 8.904C100.121 8.904 99.7958 9 99.4971 9.192C99.1985 9.37867 98.9238 9.63467 98.6731 9.96V16H97.2411ZM114.869 12.352C114.213 12.3733 113.653 12.4267 113.189 12.512C112.731 12.592 112.355 12.6987 112.061 12.832C111.773 12.9653 111.563 13.1227 111.429 13.304C111.301 13.4853 111.237 13.688 111.237 13.912C111.237 14.1253 111.272 14.3093 111.341 14.464C111.411 14.6187 111.504 14.7467 111.621 14.848C111.744 14.944 111.885 15.016 112.045 15.064C112.211 15.1067 112.387 15.128 112.573 15.128C112.824 15.128 113.053 15.104 113.261 15.056C113.469 15.0027 113.664 14.928 113.845 14.832C114.032 14.736 114.208 14.6213 114.373 14.488C114.544 14.3547 114.709 14.2027 114.869 14.032V12.352ZM110.269 9.04C110.717 8.608 111.2 8.28533 111.717 8.072C112.235 7.85867 112.808 7.752 113.437 7.752C113.891 7.752 114.293 7.82667 114.645 7.976C114.997 8.12533 115.293 8.33333 115.533 8.6C115.773 8.86667 115.955 9.18933 116.077 9.568C116.2 9.94667 116.261 10.3627 116.261 10.816V16H115.629C115.491 16 115.384 15.9787 115.309 15.936C115.235 15.888 115.176 15.7973 115.133 15.664L114.973 14.896C114.76 15.0933 114.552 15.2693 114.349 15.424C114.147 15.5733 113.933 15.7013 113.709 15.808C113.485 15.9093 113.245 15.9867 112.989 16.04C112.739 16.0987 112.459 16.128 112.149 16.128C111.835 16.128 111.539 16.0853 111.261 16C110.984 15.9093 110.741 15.776 110.533 15.6C110.331 15.424 110.168 15.2027 110.045 14.936C109.928 14.664 109.869 14.344 109.869 13.976C109.869 13.656 109.957 13.3493 110.133 13.056C110.309 12.7573 110.595 12.4933 110.989 12.264C111.384 12.0347 111.899 11.848 112.533 11.704C113.168 11.5547 113.947 11.4693 114.869 11.448V10.816C114.869 10.1867 114.733 9.712 114.461 9.392C114.189 9.06667 113.792 8.904 113.269 8.904C112.917 8.904 112.621 8.94933 112.381 9.04C112.147 9.12533 111.941 9.224 111.765 9.336C111.595 9.44267 111.445 9.54133 111.317 9.632C111.195 9.71733 111.072 9.76 110.949 9.76C110.853 9.76 110.771 9.736 110.701 9.688C110.632 9.63467 110.573 9.57067 110.525 9.496L110.269 9.04ZM120.014 7.896V16H118.59V7.896H120.014ZM120.318 5.352C120.318 5.49067 120.289 5.62133 120.23 5.744C120.177 5.86133 120.102 5.968 120.006 6.064C119.916 6.15467 119.806 6.22667 119.678 6.28C119.556 6.33333 119.425 6.36 119.286 6.36C119.148 6.36 119.017 6.33333 118.894 6.28C118.777 6.22667 118.673 6.15467 118.582 6.064C118.492 5.968 118.42 5.86133 118.366 5.744C118.313 5.62133 118.286 5.49067 118.286 5.352C118.286 5.21333 118.313 5.08267 118.366 4.96C118.42 4.832 118.492 4.72267 118.582 4.632C118.673 4.536 118.777 4.46133 118.894 4.408C119.017 4.35467 119.148 4.328 119.286 4.328C119.425 4.328 119.556 4.35467 119.678 4.408C119.806 4.46133 119.916 4.536 120.006 4.632C120.102 4.72267 120.177 4.832 120.23 4.96C120.289 5.08267 120.318 5.21333 120.318 5.352ZM123.778 9.072C123.954 8.87467 124.141 8.696 124.338 8.536C124.536 8.376 124.744 8.24 124.962 8.128C125.186 8.01067 125.421 7.92267 125.666 7.864C125.917 7.8 126.186 7.768 126.474 7.768C126.917 7.768 127.306 7.84267 127.642 7.992C127.984 8.136 128.266 8.344 128.49 8.616C128.72 8.88267 128.893 9.20533 129.01 9.584C129.128 9.96267 129.186 10.3813 129.186 10.84V16H127.754V10.84C127.754 10.2267 127.613 9.752 127.33 9.416C127.053 9.07467 126.629 8.904 126.058 8.904C125.637 8.904 125.242 9.00533 124.874 9.208C124.512 9.41067 124.176 9.68533 123.866 10.032V16H122.434V7.896H123.29C123.493 7.896 123.618 7.99467 123.666 8.192L123.778 9.072ZM136.716 9.824C136.449 9.46667 136.161 9.21867 135.852 9.08C135.543 8.936 135.196 8.864 134.812 8.864C134.06 8.864 133.481 9.13333 133.076 9.672C132.671 10.2107 132.468 10.9787 132.468 11.976C132.468 12.504 132.513 12.9573 132.604 13.336C132.695 13.7093 132.828 14.0187 133.004 14.264C133.18 14.504 133.396 14.68 133.652 14.792C133.908 14.904 134.199 14.96 134.524 14.96C134.993 14.96 135.401 14.8533 135.748 14.64C136.1 14.4267 136.423 14.1253 136.716 13.736V9.824ZM138.14 4.216V16H137.292C137.089 16 136.961 15.9013 136.908 15.704L136.78 14.72C136.433 15.136 136.039 15.472 135.596 15.728C135.153 15.984 134.641 16.112 134.06 16.112C133.596 16.112 133.175 16.024 132.796 15.848C132.417 15.6667 132.095 15.4027 131.828 15.056C131.561 14.7093 131.356 14.2773 131.212 13.76C131.068 13.2427 130.996 12.648 130.996 11.976C130.996 11.3787 131.076 10.824 131.236 10.312C131.396 9.79467 131.625 9.34667 131.924 8.968C132.223 8.58933 132.588 8.29333 133.02 8.08C133.457 7.86133 133.948 7.752 134.492 7.752C134.988 7.752 135.412 7.83733 135.764 8.008C136.121 8.17333 136.439 8.40533 136.716 8.704V4.216H138.14ZM145.893 11.064C145.893 10.7333 145.845 10.432 145.749 10.16C145.659 9.88267 145.523 9.64533 145.341 9.448C145.165 9.24533 144.949 9.09067 144.693 8.984C144.437 8.872 144.147 8.816 143.821 8.816C143.139 8.816 142.597 9.016 142.197 9.416C141.803 9.81067 141.557 10.36 141.461 11.064H145.893ZM147.045 14.864C146.869 15.0773 146.659 15.264 146.413 15.424C146.168 15.5787 145.904 15.7067 145.621 15.808C145.344 15.9093 145.056 15.984 144.757 16.032C144.459 16.0853 144.163 16.112 143.869 16.112C143.309 16.112 142.792 16.0187 142.317 15.832C141.848 15.64 141.44 15.3627 141.093 15C140.752 14.632 140.485 14.1787 140.293 13.64C140.101 13.1013 140.005 12.4827 140.005 11.784C140.005 11.2187 140.091 10.6907 140.261 10.2C140.437 9.70933 140.688 9.28533 141.013 8.928C141.339 8.56533 141.736 8.28267 142.205 8.08C142.675 7.872 143.203 7.768 143.789 7.768C144.275 7.768 144.723 7.85067 145.133 8.016C145.549 8.176 145.907 8.41067 146.205 8.72C146.509 9.024 146.747 9.40267 146.917 9.856C147.088 10.304 147.173 10.816 147.173 11.392C147.173 11.616 147.149 11.7653 147.101 11.84C147.053 11.9147 146.963 11.952 146.829 11.952H141.413C141.429 12.464 141.499 12.9093 141.621 13.288C141.749 13.6667 141.925 13.984 142.149 14.24C142.373 14.4907 142.64 14.68 142.949 14.808C143.259 14.9307 143.605 14.992 143.989 14.992C144.347 14.992 144.653 14.952 144.909 14.872C145.171 14.7867 145.395 14.696 145.581 14.6C145.768 14.504 145.923 14.416 146.045 14.336C146.173 14.2507 146.283 14.208 146.373 14.208C146.491 14.208 146.581 14.2533 146.645 14.344L147.045 14.864ZM150.354 9.52C150.61 8.96533 150.925 8.53333 151.298 8.224C151.672 7.90933 152.128 7.752 152.666 7.752C152.837 7.752 153 7.77067 153.154 7.808C153.314 7.84533 153.456 7.904 153.578 7.984L153.474 9.048C153.442 9.18133 153.362 9.248 153.234 9.248C153.16 9.248 153.05 9.232 152.906 9.2C152.762 9.168 152.6 9.152 152.418 9.152C152.162 9.152 151.933 9.18933 151.73 9.264C151.533 9.33867 151.354 9.45067 151.194 9.6C151.04 9.744 150.898 9.92533 150.77 10.144C150.648 10.3573 150.536 10.6027 150.434 10.88V16H149.002V7.896H149.818C149.973 7.896 150.08 7.92533 150.138 7.984C150.197 8.04267 150.237 8.144 150.258 8.288L150.354 9.52Z" fill="black"/>
<path opacity="0.6" d="M80.0252 39.4721C80.0856 39.0497 80.0554 38.6764 79.9347 38.352C79.8178 38.0239 79.6236 37.7241 79.3521 37.4526C78.8203 36.9209 78.2207 36.7021 77.5532 36.7964C76.8857 36.8907 76.1993 37.2904 75.4941 37.9957C75.1207 38.369 74.8322 38.7216 74.6286 39.0535C74.4287 39.3816 74.3043 39.6946 74.2552 39.9925C74.21 40.2867 74.2383 40.5639 74.3401 40.8241C74.4419 41.0843 74.6079 41.3294 74.8379 41.5595C75.1698 41.8913 75.5337 42.1044 75.9297 42.1987C76.3294 42.2968 76.7707 42.3118 77.2534 42.244L80.0252 39.4721ZM82.3898 39.1214L74.7191 46.7921L73.7122 45.7851L76.5067 42.9907C75.99 43.0321 75.4903 42.985 75.0076 42.8492C74.5287 42.7097 74.0912 42.4419 73.6952 42.046C73.3671 41.7179 73.1314 41.3577 72.9881 40.9655C72.8486 40.5695 72.8071 40.1547 72.8637 39.721C72.9202 39.2873 73.0805 38.8366 73.3445 38.369C73.6085 37.9014 73.9781 37.43 74.4532 36.9548C74.8756 36.5324 75.3244 36.1968 75.7996 35.9479C76.2785 35.6952 76.7575 35.5406 77.2364 35.484C77.7154 35.4274 78.183 35.4765 78.6393 35.6311C79.1032 35.7857 79.5274 36.0554 79.9121 36.44C80.2855 36.8134 80.5362 37.1962 80.6645 37.5884C80.7927 37.9806 80.8379 38.3954 80.8002 38.8329L81.3093 38.4595C81.4866 38.3577 81.6469 38.3784 81.7902 38.5217L82.3898 39.1214ZM88.7489 45.4805L83.0185 51.2109L82.4189 50.6112C82.2756 50.4679 82.2548 50.3077 82.3567 50.1304L82.8941 49.4346C82.3699 49.461 81.8683 49.4044 81.3893 49.2649C80.9142 49.1216 80.4767 48.8501 80.0769 48.4503C79.7639 48.1373 79.5377 47.8092 79.3981 47.466C79.2661 47.1228 79.2133 46.7759 79.2397 46.4252C79.2661 46.0744 79.3717 45.7237 79.5565 45.373C79.7451 45.026 80.0015 44.6904 80.3258 44.3661L83.9802 40.7117L84.9871 41.7187L81.3328 45.373C80.8991 45.8067 80.6615 46.2404 80.62 46.6741C80.5823 47.1115 80.7671 47.5339 81.1744 47.9412C81.4723 48.2391 81.8193 48.4466 82.2152 48.5635C82.6188 48.6804 83.0543 48.7237 83.522 48.6936L87.742 44.4736L88.7489 45.4805ZM92.908 49.4586C93.3266 49.8772 93.634 50.3241 93.8301 50.7992C94.0262 51.2744 94.1148 51.759 94.096 52.2531C94.0771 52.7471 93.947 53.2392 93.7056 53.7295C93.4718 54.2198 93.1305 54.6893 92.6817 55.1381C92.2292 55.5906 91.7578 55.9338 91.2675 56.1676C90.781 56.4052 90.2908 56.5334 89.7967 56.5523C89.3027 56.5711 88.8181 56.4825 88.3429 56.2864C87.8715 56.0865 87.4265 55.7773 87.0079 55.3587C86.5855 54.9363 86.2725 54.4875 86.0689 54.0123C85.8728 53.5372 85.7842 53.0526 85.803 52.5585C85.8219 52.0645 85.9482 51.5723 86.182 51.0821C86.4196 50.5956 86.7647 50.1261 87.2172 49.6735C87.666 49.2248 88.1336 48.8816 88.6201 48.644C89.1142 48.4064 89.6082 48.2782 90.1022 48.2593C90.5962 48.2405 91.0809 48.3291 91.556 48.5252C92.035 48.7251 92.4856 49.0362 92.908 49.4586ZM87.7942 54.5724C88.3599 55.1381 88.9708 55.3719 89.627 55.2738C90.287 55.172 90.9564 54.7817 91.6352 54.1028C92.3178 53.4203 92.71 52.749 92.8119 52.089C92.9137 51.429 92.6817 50.8162 92.1161 50.2505C91.8294 49.9639 91.5296 49.7622 91.2166 49.6452C90.9074 49.5321 90.5887 49.4963 90.2606 49.5378C89.9363 49.583 89.6025 49.7056 89.2593 49.9055C88.9237 50.1053 88.5862 50.375 88.2468 50.7144C87.5679 51.3932 87.1776 52.0626 87.0758 52.7226C86.9815 53.3825 87.221 53.9991 87.7942 54.5724ZM96.3654 64.5578L95.3585 63.5509L100.246 58.6633L97.2931 55.7105L93.8538 59.1498C93.6124 59.3912 93.4917 59.6288 93.4917 59.8626C93.4917 60.0964 93.5841 60.3057 93.7689 60.4905C93.8745 60.5961 93.9782 60.6734 94.08 60.7224C94.1894 60.7715 94.2894 60.8073 94.3799 60.8299C94.4704 60.8525 94.5477 60.8695 94.6118 60.8808C94.6834 60.8921 94.7344 60.9129 94.7645 60.943C94.8173 60.9958 94.8324 61.075 94.8098 61.1806L94.6231 61.9556C94.2875 61.9443 93.9499 61.8632 93.6105 61.7124C93.2749 61.5578 92.977 61.3503 92.7167 61.0901C92.2642 60.6376 92.0417 60.1624 92.0492 59.6646C92.0605 59.1706 92.3038 58.686 92.779 58.2108L96.2862 54.7035L95.5961 54.0134C95.5357 53.9531 95.5018 53.8852 95.4943 53.8098C95.4905 53.7306 95.5263 53.6532 95.6017 53.5778L96.0034 53.1762L97.0669 53.9908L99.0637 52.4578C99.1316 52.4125 99.2014 52.3918 99.273 52.3955C99.3522 52.3993 99.4239 52.4332 99.488 52.4974L99.9971 53.0065L98.0229 54.9807L101.983 58.9405L96.3654 64.5578ZM104.183 57.2378C104.085 57.3359 103.972 57.4075 103.844 57.4528C103.723 57.498 103.597 57.5188 103.465 57.515C103.337 57.515 103.21 57.4905 103.086 57.4415C102.961 57.3924 102.85 57.3189 102.752 57.2208C102.654 57.1228 102.58 57.0115 102.531 56.8871C102.486 56.7664 102.464 56.6419 102.464 56.5137C102.464 56.3855 102.486 56.2611 102.531 56.1404C102.58 56.0159 102.654 55.9047 102.752 55.8066C102.85 55.7086 102.961 55.635 103.086 55.586C103.214 55.5332 103.342 55.5068 103.47 55.5068C103.602 55.503 103.729 55.5238 103.849 55.569C103.974 55.6181 104.085 55.6916 104.183 55.7896C104.281 55.8877 104.355 55.999 104.404 56.1234C104.453 56.2479 104.475 56.3761 104.472 56.5081C104.475 56.6401 104.451 56.7702 104.398 56.8984C104.353 57.0266 104.281 57.1398 104.183 57.2378ZM105.402 66.6136C105.636 66.3798 105.815 66.1328 105.939 65.8726C106.071 65.6123 106.143 65.3483 106.154 65.0806C106.173 64.8128 106.13 64.5507 106.024 64.2943C105.922 64.0341 105.756 63.7889 105.526 63.5589C105.044 63.0762 104.519 62.8348 103.954 62.8348C103.396 62.8348 102.834 63.0498 102.268 63.4797L105.402 66.6136ZM103.529 70.1152C103.254 70.1416 102.973 70.1246 102.687 70.0643C102.404 70.0002 102.126 69.904 101.855 69.7758C101.587 69.6513 101.331 69.5005 101.086 69.3232C100.837 69.1498 100.609 68.9593 100.401 68.7519C100.005 68.3559 99.7053 67.9241 99.5017 67.4565C99.3056 66.9888 99.2132 66.5042 99.2245 66.0027C99.2434 65.5011 99.3754 64.992 99.6205 64.4753C99.8656 63.9586 100.235 63.4533 100.729 62.9593C101.129 62.5595 101.563 62.2465 102.03 62.0202C102.502 61.7977 102.979 61.6752 103.461 61.6525C103.948 61.6261 104.429 61.7072 104.904 61.8958C105.383 62.0806 105.83 62.3804 106.245 62.7952C106.588 63.1384 106.846 63.5136 107.02 63.9209C107.201 64.3282 107.287 64.7468 107.28 65.1768C107.28 65.6067 107.18 66.0423 106.98 66.4835C106.784 66.921 106.482 67.3433 106.075 67.7506C105.917 67.909 105.794 67.9976 105.707 68.0165C105.621 68.0354 105.53 67.9976 105.436 67.9034L101.606 64.0737C101.255 64.447 100.989 64.8109 100.808 65.1654C100.631 65.5237 100.531 65.8725 100.509 66.212C100.49 66.5476 100.544 66.87 100.673 67.1793C100.805 67.4848 101.006 67.7733 101.278 68.0448C101.531 68.2975 101.776 68.486 102.013 68.6105C102.258 68.7349 102.481 68.8292 102.681 68.8933C102.881 68.9574 103.052 69.0046 103.196 69.0347C103.346 69.0649 103.454 69.112 103.518 69.1762C103.601 69.2591 103.633 69.3553 103.614 69.4647L103.529 70.1152ZM109.959 68.3539C110.223 68.3388 110.482 68.3444 110.734 68.3708C110.987 68.3972 111.23 68.4482 111.464 68.5236C111.705 68.599 111.933 68.7027 112.148 68.8347C112.371 68.9667 112.584 69.1345 112.788 69.3382C113.101 69.6512 113.323 69.9793 113.455 70.3225C113.595 70.6656 113.647 71.0126 113.614 71.3633C113.587 71.714 113.482 72.0648 113.297 72.4155C113.112 72.7662 112.857 73.1037 112.533 73.4281L108.884 77.0767L107.872 76.0642L111.52 72.4155C111.954 71.9818 112.19 71.5462 112.228 71.1088C112.273 70.6713 112.094 70.2508 111.69 69.8473C111.392 69.5494 111.042 69.3419 110.638 69.225C110.238 69.1119 109.806 69.0685 109.343 69.0949L105.123 73.3149L104.11 72.3024L109.84 66.572L110.446 67.1773C110.589 67.3206 110.608 67.479 110.502 67.6524L109.959 68.3539ZM112.067 80.4401C111.614 79.9876 111.392 79.5124 111.399 79.0146C111.411 78.5205 111.654 78.0359 112.129 77.5608L115.636 74.0535L114.946 73.3634C114.886 73.303 114.852 73.2352 114.844 73.1597C114.84 73.0805 114.876 73.0032 114.952 72.9278L115.353 72.5262L116.411 73.3464L118.414 71.8077C118.482 71.7625 118.551 71.7417 118.623 71.7455C118.702 71.7493 118.774 71.7832 118.838 71.8473L119.347 72.3565L117.373 74.3307L119.03 75.9882L118.301 76.7179L116.643 75.0604L113.204 78.4998C112.962 78.7412 112.842 78.9787 112.842 79.2126C112.842 79.4464 112.934 79.6557 113.119 79.8405C113.224 79.9461 113.328 80.0234 113.43 80.0724C113.539 80.1214 113.639 80.1573 113.73 80.1799C113.82 80.2025 113.898 80.2195 113.962 80.2308C114.033 80.2421 114.084 80.2629 114.115 80.293C114.167 80.3458 114.182 80.425 114.16 80.5306L113.973 81.3056C113.637 81.2943 113.3 81.2132 112.961 81.0624C112.625 80.9077 112.327 80.7003 112.067 80.4401Z" fill="black"/>
<path opacity="0.6" d="M237.025 112.472C237.086 112.05 237.055 111.676 236.935 111.352C236.818 111.024 236.624 110.724 236.352 110.453C235.82 109.921 235.221 109.702 234.553 109.796C233.886 109.891 233.199 110.29 232.494 110.996C232.121 111.369 231.832 111.722 231.629 112.053C231.429 112.382 231.304 112.695 231.255 112.993C231.21 113.287 231.238 113.564 231.34 113.824C231.442 114.084 231.608 114.329 231.838 114.559C232.17 114.891 232.534 115.104 232.93 115.199C233.329 115.297 233.771 115.312 234.253 115.244L237.025 112.472ZM239.39 112.121L231.719 119.792L230.712 118.785L233.507 115.991C232.99 116.032 232.49 115.985 232.008 115.849C231.529 115.71 231.091 115.442 230.695 115.046C230.367 114.718 230.131 114.358 229.988 113.966C229.849 113.57 229.807 113.155 229.864 112.721C229.92 112.287 230.081 111.837 230.344 111.369C230.608 110.901 230.978 110.43 231.453 109.955C231.876 109.532 232.324 109.197 232.8 108.948C233.279 108.695 233.757 108.541 234.236 108.484C234.715 108.427 235.183 108.476 235.639 108.631C236.103 108.786 236.527 109.055 236.912 109.44C237.285 109.813 237.536 110.196 237.664 110.588C237.793 110.981 237.838 111.395 237.8 111.833L238.309 111.46C238.487 111.358 238.647 111.378 238.79 111.522L239.39 112.121ZM245.749 118.48L240.019 124.211L239.419 123.611C239.276 123.468 239.255 123.308 239.357 123.13L239.894 122.435C239.37 122.461 238.868 122.404 238.389 122.265C237.914 122.122 237.477 121.85 237.077 121.45C236.764 121.137 236.538 120.809 236.398 120.466C236.266 120.123 236.213 119.776 236.24 119.425C236.266 119.074 236.372 118.724 236.557 118.373C236.745 118.026 237.002 117.69 237.326 117.366L240.98 113.712L241.987 114.719L238.333 118.373C237.899 118.807 237.661 119.24 237.62 119.674C237.582 120.112 237.767 120.534 238.174 120.941C238.472 121.239 238.819 121.447 239.215 121.563C239.619 121.68 240.054 121.724 240.522 121.694L244.742 117.474L245.749 118.48ZM249.908 122.459C250.327 122.877 250.634 123.324 250.83 123.799C251.026 124.274 251.115 124.759 251.096 125.253C251.077 125.747 250.947 126.239 250.706 126.729C250.472 127.22 250.131 127.689 249.682 128.138C249.229 128.591 248.758 128.934 248.268 129.168C247.781 129.405 247.291 129.533 246.797 129.552C246.303 129.571 245.818 129.482 245.343 129.286C244.872 129.087 244.427 128.777 244.008 128.359C243.586 127.936 243.273 127.488 243.069 127.012C242.873 126.537 242.784 126.053 242.803 125.559C242.822 125.064 242.948 124.572 243.182 124.082C243.42 123.596 243.765 123.126 244.217 122.674C244.666 122.225 245.134 121.882 245.62 121.644C246.114 121.406 246.608 121.278 247.102 121.259C247.596 121.24 248.081 121.329 248.556 121.525C249.035 121.725 249.486 122.036 249.908 122.459ZM244.794 127.572C245.36 128.138 245.971 128.372 246.627 128.274C247.287 128.172 247.956 127.782 248.635 127.103C249.318 126.42 249.71 125.749 249.812 125.089C249.914 124.429 249.682 123.816 249.116 123.251C248.829 122.964 248.53 122.762 248.217 122.645C247.907 122.532 247.589 122.496 247.261 122.538C246.936 122.583 246.603 122.706 246.259 122.905C245.924 123.105 245.586 123.375 245.247 123.714C244.568 124.393 244.178 125.063 244.076 125.723C243.982 126.383 244.221 126.999 244.794 127.572ZM253.365 137.558L252.358 136.551L257.246 131.663L254.293 128.71L250.854 132.15C250.612 132.391 250.492 132.629 250.492 132.863C250.492 133.096 250.584 133.306 250.769 133.49C250.875 133.596 250.978 133.673 251.08 133.722C251.189 133.771 251.289 133.807 251.38 133.83C251.47 133.853 251.548 133.87 251.612 133.881C251.683 133.892 251.734 133.913 251.765 133.943C251.817 133.996 251.832 134.075 251.81 134.181L251.623 134.956C251.287 134.944 250.95 134.863 250.611 134.712C250.275 134.558 249.977 134.35 249.717 134.09C249.264 133.638 249.042 133.162 249.049 132.665C249.061 132.171 249.304 131.686 249.779 131.211L253.286 127.704L252.596 127.013C252.536 126.953 252.502 126.885 252.494 126.81C252.49 126.731 252.526 126.653 252.602 126.578L253.003 126.176L254.067 126.991L256.064 125.458C256.132 125.413 256.201 125.392 256.273 125.396C256.352 125.399 256.424 125.433 256.488 125.497L256.997 126.006L255.023 127.981L258.983 131.941L253.365 137.558ZM261.183 130.238C261.085 130.336 260.972 130.408 260.844 130.453C260.723 130.498 260.597 130.519 260.465 130.515C260.337 130.515 260.21 130.49 260.086 130.441C259.961 130.392 259.85 130.319 259.752 130.221C259.654 130.123 259.58 130.012 259.531 129.887C259.486 129.766 259.464 129.642 259.464 129.514C259.464 129.386 259.486 129.261 259.531 129.14C259.58 129.016 259.654 128.905 259.752 128.807C259.85 128.709 259.961 128.635 260.086 128.586C260.214 128.533 260.342 128.507 260.47 128.507C260.602 128.503 260.729 128.524 260.849 128.569C260.974 128.618 261.085 128.692 261.183 128.79C261.281 128.888 261.355 128.999 261.404 129.123C261.453 129.248 261.475 129.376 261.472 129.508C261.475 129.64 261.451 129.77 261.398 129.898C261.353 130.027 261.281 130.14 261.183 130.238ZM262.402 139.614C262.636 139.38 262.815 139.133 262.939 138.873C263.071 138.612 263.143 138.348 263.154 138.081C263.173 137.813 263.13 137.551 263.024 137.294C262.922 137.034 262.756 136.789 262.526 136.559C262.044 136.076 261.519 135.835 260.954 135.835C260.396 135.835 259.834 136.05 259.268 136.48L262.402 139.614ZM260.529 143.115C260.254 143.142 259.973 143.125 259.687 143.064C259.404 143 259.126 142.904 258.855 142.776C258.587 142.651 258.331 142.5 258.086 142.323C257.837 142.15 257.609 141.959 257.401 141.752C257.005 141.356 256.705 140.924 256.502 140.456C256.306 139.989 256.213 139.504 256.225 139.003C256.243 138.501 256.375 137.992 256.62 137.475C256.866 136.959 257.235 136.453 257.729 135.959C258.129 135.56 258.563 135.247 259.03 135.02C259.502 134.798 259.979 134.675 260.461 134.653C260.948 134.626 261.429 134.707 261.904 134.896C262.383 135.081 262.83 135.38 263.245 135.795C263.588 136.138 263.846 136.514 264.02 136.921C264.201 137.328 264.287 137.747 264.28 138.177C264.28 138.607 264.18 139.042 263.98 139.483C263.784 139.921 263.482 140.343 263.075 140.751C262.917 140.909 262.794 140.998 262.707 141.016C262.621 141.035 262.53 140.998 262.436 140.903L258.606 137.074C258.255 137.447 257.989 137.811 257.808 138.165C257.631 138.524 257.531 138.873 257.509 139.212C257.49 139.548 257.544 139.87 257.673 140.179C257.805 140.485 258.006 140.773 258.278 141.045C258.531 141.297 258.776 141.486 259.013 141.61C259.258 141.735 259.481 141.829 259.681 141.893C259.881 141.957 260.052 142.005 260.196 142.035C260.346 142.065 260.454 142.112 260.518 142.176C260.601 142.259 260.633 142.355 260.614 142.465L260.529 143.115ZM266.959 141.354C267.223 141.339 267.482 141.344 267.734 141.371C267.987 141.397 268.23 141.448 268.464 141.524C268.705 141.599 268.933 141.703 269.148 141.835C269.371 141.967 269.584 142.135 269.788 142.338C270.101 142.651 270.323 142.979 270.455 143.322C270.595 143.666 270.647 144.013 270.614 144.363C270.587 144.714 270.482 145.065 270.297 145.415C270.112 145.766 269.857 146.104 269.533 146.428L265.884 150.077L264.872 149.064L268.52 145.415C268.954 144.982 269.19 144.546 269.228 144.109C269.273 143.671 269.094 143.251 268.69 142.847C268.392 142.549 268.042 142.342 267.638 142.225C267.238 142.112 266.806 142.069 266.343 142.095L262.123 146.315L261.11 145.302L266.84 139.572L267.446 140.177C267.589 140.321 267.608 140.479 267.502 140.652L266.959 141.354ZM269.067 153.44C268.614 152.988 268.392 152.512 268.399 152.015C268.411 151.521 268.654 151.036 269.129 150.561L272.636 147.054L271.946 146.363C271.886 146.303 271.852 146.235 271.844 146.16C271.84 146.081 271.876 146.003 271.952 145.928L272.353 145.526L273.411 146.346L275.414 144.808C275.482 144.762 275.551 144.742 275.623 144.746C275.702 144.749 275.774 144.783 275.838 144.847L276.347 145.356L274.373 147.331L276.03 148.988L275.301 149.718L273.643 148.06L270.204 151.5C269.962 151.741 269.842 151.979 269.842 152.213C269.842 152.446 269.934 152.656 270.119 152.84C270.224 152.946 270.328 153.023 270.43 153.072C270.539 153.121 270.639 153.157 270.73 153.18C270.82 153.203 270.898 153.219 270.962 153.231C271.033 153.242 271.084 153.263 271.115 153.293C271.167 153.346 271.182 153.425 271.16 153.531L270.973 154.306C270.637 154.294 270.3 154.213 269.961 154.062C269.625 153.908 269.327 153.7 269.067 153.44Z" fill="black"/>
<path opacity="0.6" d="M347.025 186.472C347.086 186.05 347.055 185.676 346.935 185.352C346.818 185.024 346.624 184.724 346.352 184.453C345.82 183.921 345.221 183.702 344.553 183.796C343.886 183.891 343.199 184.29 342.494 184.996C342.121 185.369 341.832 185.722 341.629 186.053C341.429 186.382 341.304 186.695 341.255 186.993C341.21 187.287 341.238 187.564 341.34 187.824C341.442 188.084 341.608 188.329 341.838 188.559C342.17 188.891 342.534 189.104 342.93 189.199C343.329 189.297 343.771 189.312 344.253 189.244L347.025 186.472ZM349.39 186.121L341.719 193.792L340.712 192.785L343.507 189.991C342.99 190.032 342.49 189.985 342.008 189.849C341.529 189.71 341.091 189.442 340.695 189.046C340.367 188.718 340.131 188.358 339.988 187.966C339.849 187.57 339.807 187.155 339.864 186.721C339.92 186.287 340.081 185.837 340.344 185.369C340.608 184.901 340.978 184.43 341.453 183.955C341.876 183.532 342.324 183.197 342.8 182.948C343.279 182.695 343.757 182.541 344.236 182.484C344.715 182.427 345.183 182.476 345.639 182.631C346.103 182.786 346.527 183.055 346.912 183.44C347.285 183.813 347.536 184.196 347.664 184.588C347.793 184.981 347.838 185.395 347.8 185.833L348.309 185.46C348.487 185.358 348.647 185.378 348.79 185.522L349.39 186.121ZM355.749 192.48L350.019 198.211L349.419 197.611C349.276 197.468 349.255 197.308 349.357 197.13L349.894 196.435C349.37 196.461 348.868 196.404 348.389 196.265C347.914 196.122 347.477 195.85 347.077 195.45C346.764 195.137 346.538 194.809 346.398 194.466C346.266 194.123 346.213 193.776 346.24 193.425C346.266 193.074 346.372 192.724 346.557 192.373C346.745 192.026 347.002 191.69 347.326 191.366L350.98 187.712L351.987 188.719L348.333 192.373C347.899 192.807 347.661 193.24 347.62 193.674C347.582 194.112 347.767 194.534 348.174 194.941C348.472 195.239 348.819 195.447 349.215 195.563C349.619 195.68 350.054 195.724 350.522 195.694L354.742 191.474L355.749 192.48ZM359.908 196.459C360.327 196.877 360.634 197.324 360.83 197.799C361.026 198.274 361.115 198.759 361.096 199.253C361.077 199.747 360.947 200.239 360.706 200.729C360.472 201.22 360.131 201.689 359.682 202.138C359.229 202.591 358.758 202.934 358.268 203.168C357.781 203.405 357.291 203.533 356.797 203.552C356.303 203.571 355.818 203.482 355.343 203.286C354.872 203.087 354.427 202.777 354.008 202.359C353.586 201.936 353.273 201.488 353.069 201.012C352.873 200.537 352.784 200.053 352.803 199.559C352.822 199.064 352.948 198.572 353.182 198.082C353.42 197.596 353.765 197.126 354.217 196.674C354.666 196.225 355.134 195.882 355.62 195.644C356.114 195.406 356.608 195.278 357.102 195.259C357.596 195.24 358.081 195.329 358.556 195.525C359.035 195.725 359.486 196.036 359.908 196.459ZM354.794 201.572C355.36 202.138 355.971 202.372 356.627 202.274C357.287 202.172 357.956 201.782 358.635 201.103C359.318 200.42 359.71 199.749 359.812 199.089C359.914 198.429 359.682 197.816 359.116 197.251C358.829 196.964 358.53 196.762 358.217 196.645C357.907 196.532 357.589 196.496 357.261 196.538C356.936 196.583 356.603 196.706 356.259 196.905C355.924 197.105 355.586 197.375 355.247 197.714C354.568 198.393 354.178 199.063 354.076 199.723C353.982 200.383 354.221 200.999 354.794 201.572ZM363.365 211.558L362.358 210.551L367.246 205.663L364.293 202.71L360.854 206.15C360.612 206.391 360.492 206.629 360.492 206.863C360.492 207.096 360.584 207.306 360.769 207.49C360.875 207.596 360.978 207.673 361.08 207.722C361.189 207.771 361.289 207.807 361.38 207.83C361.47 207.853 361.548 207.87 361.612 207.881C361.683 207.892 361.734 207.913 361.765 207.943C361.817 207.996 361.832 208.075 361.81 208.181L361.623 208.956C361.287 208.944 360.95 208.863 360.611 208.712C360.275 208.558 359.977 208.35 359.717 208.09C359.264 207.638 359.042 207.162 359.049 206.665C359.061 206.171 359.304 205.686 359.779 205.211L363.286 201.704L362.596 201.013C362.536 200.953 362.502 200.885 362.494 200.81C362.49 200.731 362.526 200.653 362.602 200.578L363.003 200.176L364.067 200.991L366.064 199.458C366.132 199.413 366.201 199.392 366.273 199.396C366.352 199.399 366.424 199.433 366.488 199.497L366.997 200.006L365.023 201.981L368.983 205.941L363.365 211.558ZM371.183 204.238C371.085 204.336 370.972 204.408 370.844 204.453C370.723 204.498 370.597 204.519 370.465 204.515C370.337 204.515 370.21 204.49 370.086 204.441C369.961 204.392 369.85 204.319 369.752 204.221C369.654 204.123 369.58 204.012 369.531 203.887C369.486 203.766 369.464 203.642 369.464 203.514C369.464 203.386 369.486 203.261 369.531 203.14C369.58 203.016 369.654 202.905 369.752 202.807C369.85 202.709 369.961 202.635 370.086 202.586C370.214 202.533 370.342 202.507 370.47 202.507C370.602 202.503 370.729 202.524 370.849 202.569C370.974 202.618 371.085 202.692 371.183 202.79C371.281 202.888 371.355 202.999 371.404 203.123C371.453 203.248 371.475 203.376 371.472 203.508C371.475 203.64 371.451 203.77 371.398 203.898C371.353 204.027 371.281 204.14 371.183 204.238ZM372.402 213.614C372.636 213.38 372.815 213.133 372.939 212.873C373.071 212.612 373.143 212.348 373.154 212.081C373.173 211.813 373.13 211.551 373.024 211.294C372.922 211.034 372.756 210.789 372.526 210.559C372.044 210.076 371.519 209.835 370.954 209.835C370.396 209.835 369.834 210.05 369.268 210.48L372.402 213.614ZM370.529 217.115C370.254 217.142 369.973 217.125 369.687 217.064C369.404 217 369.126 216.904 368.855 216.776C368.587 216.651 368.331 216.5 368.086 216.323C367.837 216.15 367.609 215.959 367.401 215.752C367.005 215.356 366.705 214.924 366.502 214.456C366.306 213.989 366.213 213.504 366.225 213.003C366.243 212.501 366.375 211.992 366.62 211.475C366.866 210.959 367.235 210.453 367.729 209.959C368.129 209.56 368.563 209.247 369.03 209.02C369.502 208.798 369.979 208.675 370.461 208.653C370.948 208.626 371.429 208.707 371.904 208.896C372.383 209.081 372.83 209.38 373.245 209.795C373.588 210.138 373.846 210.514 374.02 210.921C374.201 211.328 374.287 211.747 374.28 212.177C374.28 212.607 374.18 213.042 373.98 213.483C373.784 213.921 373.482 214.343 373.075 214.751C372.917 214.909 372.794 214.998 372.707 215.016C372.621 215.035 372.53 214.998 372.436 214.903L368.606 211.074C368.255 211.447 367.989 211.811 367.808 212.165C367.631 212.524 367.531 212.873 367.509 213.212C367.49 213.548 367.544 213.87 367.673 214.179C367.805 214.485 368.006 214.773 368.278 215.045C368.531 215.297 368.776 215.486 369.013 215.61C369.258 215.735 369.481 215.829 369.681 215.893C369.881 215.957 370.052 216.005 370.196 216.035C370.346 216.065 370.454 216.112 370.518 216.176C370.601 216.259 370.633 216.355 370.614 216.465L370.529 217.115ZM376.959 215.354C377.223 215.339 377.482 215.344 377.734 215.371C377.987 215.397 378.23 215.448 378.464 215.524C378.705 215.599 378.933 215.703 379.148 215.835C379.371 215.967 379.584 216.135 379.788 216.338C380.101 216.651 380.323 216.979 380.455 217.322C380.595 217.666 380.647 218.013 380.614 218.363C380.587 218.714 380.482 219.065 380.297 219.415C380.112 219.766 379.857 220.104 379.533 220.428L375.884 224.077L374.872 223.064L378.52 219.415C378.954 218.982 379.19 218.546 379.228 218.109C379.273 217.671 379.094 217.251 378.69 216.847C378.392 216.549 378.042 216.342 377.638 216.225C377.238 216.112 376.806 216.069 376.343 216.095L372.123 220.315L371.11 219.302L376.84 213.572L377.446 214.177C377.589 214.321 377.608 214.479 377.502 214.652L376.959 215.354ZM379.067 227.44C378.614 226.988 378.392 226.512 378.399 226.015C378.411 225.521 378.654 225.036 379.129 224.561L382.636 221.054L381.946 220.363C381.886 220.303 381.852 220.235 381.844 220.16C381.84 220.081 381.876 220.003 381.952 219.928L382.353 219.526L383.411 220.346L385.414 218.808C385.482 218.762 385.551 218.742 385.623 218.746C385.702 218.749 385.774 218.783 385.838 218.847L386.347 219.356L384.373 221.331L386.03 222.988L385.301 223.718L383.643 222.06L380.204 225.5C379.962 225.741 379.842 225.979 379.842 226.213C379.842 226.446 379.934 226.656 380.119 226.84C380.224 226.946 380.328 227.023 380.43 227.072C380.539 227.121 380.639 227.157 380.73 227.18C380.82 227.203 380.898 227.219 380.962 227.231C381.033 227.242 381.084 227.263 381.115 227.293C381.167 227.346 381.182 227.425 381.16 227.531L380.973 228.306C380.637 228.294 380.3 228.213 379.961 228.062C379.625 227.908 379.327 227.7 379.067 227.44Z" fill="black"/>
<path opacity="0.6" d="M241.48 80.52C241.736 79.9653 242.051 79.5333 242.424 79.224C242.797 78.9093 243.253 78.752 243.792 78.752C243.963 78.752 244.125 78.7707 244.28 78.808C244.44 78.8453 244.581 78.904 244.704 78.984L244.6 80.048C244.568 80.1813 244.488 80.248 244.36 80.248C244.285 80.248 244.176 80.232 244.032 80.2C243.888 80.168 243.725 80.152 243.544 80.152C243.288 80.152 243.059 80.1893 242.856 80.264C242.659 80.3387 242.48 80.4507 242.32 80.6C242.165 80.744 242.024 80.9253 241.896 81.144C241.773 81.3573 241.661 81.6027 241.56 81.88V87H240.128V78.896H240.944C241.099 78.896 241.205 78.9253 241.264 78.984C241.323 79.0427 241.363 79.144 241.384 79.288L241.48 80.52ZM251.132 82.064C251.132 81.7333 251.084 81.432 250.988 81.16C250.897 80.8827 250.761 80.6453 250.58 80.448C250.404 80.2453 250.188 80.0907 249.932 79.984C249.676 79.872 249.385 79.816 249.06 79.816C248.377 79.816 247.836 80.016 247.436 80.416C247.041 80.8107 246.796 81.36 246.7 82.064H251.132ZM252.284 85.864C252.108 86.0773 251.897 86.264 251.652 86.424C251.407 86.5787 251.143 86.7067 250.86 86.808C250.583 86.9093 250.295 86.984 249.996 87.032C249.697 87.0853 249.401 87.112 249.108 87.112C248.548 87.112 248.031 87.0187 247.556 86.832C247.087 86.64 246.679 86.3627 246.332 86C245.991 85.632 245.724 85.1787 245.532 84.64C245.34 84.1013 245.244 83.4827 245.244 82.784C245.244 82.2187 245.329 81.6907 245.5 81.2C245.676 80.7093 245.927 80.2853 246.252 79.928C246.577 79.5653 246.975 79.2827 247.444 79.08C247.913 78.872 248.441 78.768 249.028 78.768C249.513 78.768 249.961 78.8507 250.372 79.016C250.788 79.176 251.145 79.4107 251.444 79.72C251.748 80.024 251.985 80.4027 252.156 80.856C252.327 81.304 252.412 81.816 252.412 82.392C252.412 82.616 252.388 82.7653 252.34 82.84C252.292 82.9147 252.201 82.952 252.068 82.952H246.652C246.668 83.464 246.737 83.9093 246.86 84.288C246.988 84.6667 247.164 84.984 247.388 85.24C247.612 85.4907 247.879 85.68 248.188 85.808C248.497 85.9307 248.844 85.992 249.228 85.992C249.585 85.992 249.892 85.952 250.148 85.872C250.409 85.7867 250.633 85.696 250.82 85.6C251.007 85.504 251.161 85.416 251.284 85.336C251.412 85.2507 251.521 85.208 251.612 85.208C251.729 85.208 251.82 85.2533 251.884 85.344L252.284 85.864ZM254.241 87V78.896H255.097C255.3 78.896 255.425 78.9947 255.473 79.192L255.577 80.024C255.876 79.656 256.212 79.3547 256.585 79.12C256.958 78.8853 257.39 78.768 257.881 78.768C258.425 78.768 258.865 78.92 259.201 79.224C259.542 79.528 259.788 79.9387 259.937 80.456C260.054 80.1627 260.204 79.9093 260.385 79.696C260.572 79.4827 260.78 79.3067 261.009 79.168C261.238 79.0293 261.481 78.928 261.737 78.864C261.998 78.8 262.262 78.768 262.529 78.768C262.956 78.768 263.334 78.8373 263.665 78.976C264.001 79.1093 264.284 79.3067 264.513 79.568C264.748 79.8293 264.926 80.152 265.049 80.536C265.172 80.9147 265.233 81.3493 265.233 81.84V87H263.801V81.84C263.801 81.2053 263.662 80.7253 263.385 80.4C263.108 80.0693 262.708 79.904 262.185 79.904C261.95 79.904 261.726 79.9467 261.513 80.032C261.305 80.112 261.121 80.232 260.961 80.392C260.801 80.552 260.673 80.7547 260.577 81C260.486 81.24 260.441 81.52 260.441 81.84V87H259.009V81.84C259.009 81.1893 258.878 80.704 258.617 80.384C258.356 80.064 257.974 79.904 257.473 79.904C257.121 79.904 256.796 80 256.497 80.192C256.198 80.3787 255.924 80.6347 255.673 80.96V87H254.241ZM271.869 83.352C271.213 83.3733 270.653 83.4267 270.189 83.512C269.731 83.592 269.355 83.6987 269.061 83.832C268.773 83.9653 268.563 84.1227 268.429 84.304C268.301 84.4853 268.237 84.688 268.237 84.912C268.237 85.1253 268.272 85.3093 268.341 85.464C268.411 85.6187 268.504 85.7467 268.621 85.848C268.744 85.944 268.885 86.016 269.045 86.064C269.211 86.1067 269.387 86.128 269.573 86.128C269.824 86.128 270.053 86.104 270.261 86.056C270.469 86.0027 270.664 85.928 270.845 85.832C271.032 85.736 271.208 85.6213 271.373 85.488C271.544 85.3547 271.709 85.2027 271.869 85.032V83.352ZM267.269 80.04C267.717 79.608 268.2 79.2853 268.717 79.072C269.235 78.8587 269.808 78.752 270.437 78.752C270.891 78.752 271.293 78.8267 271.645 78.976C271.997 79.1253 272.293 79.3333 272.533 79.6C272.773 79.8667 272.955 80.1893 273.077 80.568C273.2 80.9467 273.261 81.3627 273.261 81.816V87H272.629C272.491 87 272.384 86.9787 272.309 86.936C272.235 86.888 272.176 86.7973 272.133 86.664L271.973 85.896C271.76 86.0933 271.552 86.2693 271.349 86.424C271.147 86.5733 270.933 86.7013 270.709 86.808C270.485 86.9093 270.245 86.9867 269.989 87.04C269.739 87.0987 269.459 87.128 269.149 87.128C268.835 87.128 268.539 87.0853 268.261 87C267.984 86.9093 267.741 86.776 267.533 86.6C267.331 86.424 267.168 86.2027 267.045 85.936C266.928 85.664 266.869 85.344 266.869 84.976C266.869 84.656 266.957 84.3493 267.133 84.056C267.309 83.7573 267.595 83.4933 267.989 83.264C268.384 83.0347 268.899 82.848 269.533 82.704C270.168 82.5547 270.947 82.4693 271.869 82.448V81.816C271.869 81.1867 271.733 80.712 271.461 80.392C271.189 80.0667 270.792 79.904 270.269 79.904C269.917 79.904 269.621 79.9493 269.381 80.04C269.147 80.1253 268.941 80.224 268.765 80.336C268.595 80.4427 268.445 80.5413 268.317 80.632C268.195 80.7173 268.072 80.76 267.949 80.76C267.853 80.76 267.771 80.736 267.701 80.688C267.632 80.6347 267.573 80.5707 267.525 80.496L267.269 80.04ZM277.014 78.896V87H275.59V78.896H277.014ZM277.318 76.352C277.318 76.4907 277.289 76.6213 277.23 76.744C277.177 76.8613 277.102 76.968 277.006 77.064C276.916 77.1547 276.806 77.2267 276.678 77.28C276.556 77.3333 276.425 77.36 276.286 77.36C276.148 77.36 276.017 77.3333 275.894 77.28C275.777 77.2267 275.673 77.1547 275.582 77.064C275.492 76.968 275.42 76.8613 275.366 76.744C275.313 76.6213 275.286 76.4907 275.286 76.352C275.286 76.2133 275.313 76.0827 275.366 75.96C275.42 75.832 275.492 75.7227 275.582 75.632C275.673 75.536 275.777 75.4613 275.894 75.408C276.017 75.3547 276.148 75.328 276.286 75.328C276.425 75.328 276.556 75.3547 276.678 75.408C276.806 75.4613 276.916 75.536 277.006 75.632C277.102 75.7227 277.177 75.832 277.23 75.96C277.289 76.0827 277.318 76.2133 277.318 76.352ZM280.778 80.072C280.954 79.8747 281.141 79.696 281.338 79.536C281.536 79.376 281.744 79.24 281.962 79.128C282.186 79.0107 282.421 78.9227 282.666 78.864C282.917 78.8 283.186 78.768 283.474 78.768C283.917 78.768 284.306 78.8427 284.642 78.992C284.984 79.136 285.266 79.344 285.49 79.616C285.72 79.8827 285.893 80.2053 286.01 80.584C286.128 80.9627 286.186 81.3813 286.186 81.84V87H284.754V81.84C284.754 81.2267 284.613 80.752 284.33 80.416C284.053 80.0747 283.629 79.904 283.058 79.904C282.637 79.904 282.242 80.0053 281.874 80.208C281.512 80.4107 281.176 80.6853 280.866 81.032V87H279.434V78.896H280.29C280.493 78.896 280.618 78.9947 280.666 79.192L280.778 80.072ZM293.716 80.824C293.449 80.4667 293.161 80.2187 292.852 80.08C292.543 79.936 292.196 79.864 291.812 79.864C291.06 79.864 290.481 80.1333 290.076 80.672C289.671 81.2107 289.468 81.9787 289.468 82.976C289.468 83.504 289.513 83.9573 289.604 84.336C289.695 84.7093 289.828 85.0187 290.004 85.264C290.18 85.504 290.396 85.68 290.652 85.792C290.908 85.904 291.199 85.96 291.524 85.96C291.993 85.96 292.401 85.8533 292.748 85.64C293.1 85.4267 293.423 85.1253 293.716 84.736V80.824ZM295.14 75.216V87H294.292C294.089 87 293.961 86.9013 293.908 86.704L293.78 85.72C293.433 86.136 293.039 86.472 292.596 86.728C292.153 86.984 291.641 87.112 291.06 87.112C290.596 87.112 290.175 87.024 289.796 86.848C289.417 86.6667 289.095 86.4027 288.828 86.056C288.561 85.7093 288.356 85.2773 288.212 84.76C288.068 84.2427 287.996 83.648 287.996 82.976C287.996 82.3787 288.076 81.824 288.236 81.312C288.396 80.7947 288.625 80.3467 288.924 79.968C289.223 79.5893 289.588 79.2933 290.02 79.08C290.457 78.8613 290.948 78.752 291.492 78.752C291.988 78.752 292.412 78.8373 292.764 79.008C293.121 79.1733 293.439 79.4053 293.716 79.704V75.216H295.14ZM302.893 82.064C302.893 81.7333 302.845 81.432 302.749 81.16C302.659 80.8827 302.523 80.6453 302.341 80.448C302.165 80.2453 301.949 80.0907 301.693 79.984C301.437 79.872 301.147 79.816 300.821 79.816C300.139 79.816 299.597 80.016 299.197 80.416C298.803 80.8107 298.557 81.36 298.461 82.064H302.893ZM304.045 85.864C303.869 86.0773 303.659 86.264 303.413 86.424C303.168 86.5787 302.904 86.7067 302.621 86.808C302.344 86.9093 302.056 86.984 301.757 87.032C301.459 87.0853 301.163 87.112 300.869 87.112C300.309 87.112 299.792 87.0187 299.317 86.832C298.848 86.64 298.44 86.3627 298.093 86C297.752 85.632 297.485 85.1787 297.293 84.64C297.101 84.1013 297.005 83.4827 297.005 82.784C297.005 82.2187 297.091 81.6907 297.261 81.2C297.437 80.7093 297.688 80.2853 298.013 79.928C298.339 79.5653 298.736 79.2827 299.205 79.08C299.675 78.872 300.203 78.768 300.789 78.768C301.275 78.768 301.723 78.8507 302.133 79.016C302.549 79.176 302.907 79.4107 303.205 79.72C303.509 80.024 303.747 80.4027 303.917 80.856C304.088 81.304 304.173 81.816 304.173 82.392C304.173 82.616 304.149 82.7653 304.101 82.84C304.053 82.9147 303.963 82.952 303.829 82.952H298.413C298.429 83.464 298.499 83.9093 298.621 84.288C298.749 84.6667 298.925 84.984 299.149 85.24C299.373 85.4907 299.64 85.68 299.949 85.808C300.259 85.9307 300.605 85.992 300.989 85.992C301.347 85.992 301.653 85.952 301.909 85.872C302.171 85.7867 302.395 85.696 302.581 85.6C302.768 85.504 302.923 85.416 303.045 85.336C303.173 85.2507 303.283 85.208 303.373 85.208C303.491 85.208 303.581 85.2533 303.645 85.344L304.045 85.864ZM307.354 80.52C307.61 79.9653 307.925 79.5333 308.298 79.224C308.672 78.9093 309.128 78.752 309.666 78.752C309.837 78.752 310 78.7707 310.154 78.808C310.314 78.8453 310.456 78.904 310.578 78.984L310.474 80.048C310.442 80.1813 310.362 80.248 310.234 80.248C310.16 80.248 310.05 80.232 309.906 80.2C309.762 80.168 309.6 80.152 309.418 80.152C309.162 80.152 308.933 80.1893 308.73 80.264C308.533 80.3387 308.354 80.4507 308.194 80.6C308.04 80.744 307.898 80.9253 307.77 81.144C307.648 81.3573 307.536 81.6027 307.434 81.88V87H306.002V78.896H306.818C306.973 78.896 307.08 78.9253 307.138 78.984C307.197 79.0427 307.237 79.144 307.258 79.288L307.354 80.52Z" fill="black"/>
<path opacity="0.6" d="M345.48 151.52C345.736 150.965 346.051 150.533 346.424 150.224C346.797 149.909 347.253 149.752 347.792 149.752C347.963 149.752 348.125 149.771 348.28 149.808C348.44 149.845 348.581 149.904 348.704 149.984L348.6 151.048C348.568 151.181 348.488 151.248 348.36 151.248C348.285 151.248 348.176 151.232 348.032 151.2C347.888 151.168 347.725 151.152 347.544 151.152C347.288 151.152 347.059 151.189 346.856 151.264C346.659 151.339 346.48 151.451 346.32 151.6C346.165 151.744 346.024 151.925 345.896 152.144C345.773 152.357 345.661 152.603 345.56 152.88V158H344.128V149.896H344.944C345.099 149.896 345.205 149.925 345.264 149.984C345.323 150.043 345.363 150.144 345.384 150.288L345.48 151.52ZM355.132 153.064C355.132 152.733 355.084 152.432 354.988 152.16C354.897 151.883 354.761 151.645 354.58 151.448C354.404 151.245 354.188 151.091 353.932 150.984C353.676 150.872 353.385 150.816 353.06 150.816C352.377 150.816 351.836 151.016 351.436 151.416C351.041 151.811 350.796 152.36 350.7 153.064H355.132ZM356.284 156.864C356.108 157.077 355.897 157.264 355.652 157.424C355.407 157.579 355.143 157.707 354.86 157.808C354.583 157.909 354.295 157.984 353.996 158.032C353.697 158.085 353.401 158.112 353.108 158.112C352.548 158.112 352.031 158.019 351.556 157.832C351.087 157.64 350.679 157.363 350.332 157C349.991 156.632 349.724 156.179 349.532 155.64C349.34 155.101 349.244 154.483 349.244 153.784C349.244 153.219 349.329 152.691 349.5 152.2C349.676 151.709 349.927 151.285 350.252 150.928C350.577 150.565 350.975 150.283 351.444 150.08C351.913 149.872 352.441 149.768 353.028 149.768C353.513 149.768 353.961 149.851 354.372 150.016C354.788 150.176 355.145 150.411 355.444 150.72C355.748 151.024 355.985 151.403 356.156 151.856C356.327 152.304 356.412 152.816 356.412 153.392C356.412 153.616 356.388 153.765 356.34 153.84C356.292 153.915 356.201 153.952 356.068 153.952H350.652C350.668 154.464 350.737 154.909 350.86 155.288C350.988 155.667 351.164 155.984 351.388 156.24C351.612 156.491 351.879 156.68 352.188 156.808C352.497 156.931 352.844 156.992 353.228 156.992C353.585 156.992 353.892 156.952 354.148 156.872C354.409 156.787 354.633 156.696 354.82 156.6C355.007 156.504 355.161 156.416 355.284 156.336C355.412 156.251 355.521 156.208 355.612 156.208C355.729 156.208 355.82 156.253 355.884 156.344L356.284 156.864ZM358.241 158V149.896H359.097C359.3 149.896 359.425 149.995 359.473 150.192L359.577 151.024C359.876 150.656 360.212 150.355 360.585 150.12C360.958 149.885 361.39 149.768 361.881 149.768C362.425 149.768 362.865 149.92 363.201 150.224C363.542 150.528 363.788 150.939 363.937 151.456C364.054 151.163 364.204 150.909 364.385 150.696C364.572 150.483 364.78 150.307 365.009 150.168C365.238 150.029 365.481 149.928 365.737 149.864C365.998 149.8 366.262 149.768 366.529 149.768C366.956 149.768 367.334 149.837 367.665 149.976C368.001 150.109 368.284 150.307 368.513 150.568C368.748 150.829 368.926 151.152 369.049 151.536C369.172 151.915 369.233 152.349 369.233 152.84V158H367.801V152.84C367.801 152.205 367.662 151.725 367.385 151.4C367.108 151.069 366.708 150.904 366.185 150.904C365.95 150.904 365.726 150.947 365.513 151.032C365.305 151.112 365.121 151.232 364.961 151.392C364.801 151.552 364.673 151.755 364.577 152C364.486 152.24 364.441 152.52 364.441 152.84V158H363.009V152.84C363.009 152.189 362.878 151.704 362.617 151.384C362.356 151.064 361.974 150.904 361.473 150.904C361.121 150.904 360.796 151 360.497 151.192C360.198 151.379 359.924 151.635 359.673 151.96V158H358.241ZM375.869 154.352C375.213 154.373 374.653 154.427 374.189 154.512C373.731 154.592 373.355 154.699 373.061 154.832C372.773 154.965 372.563 155.123 372.429 155.304C372.301 155.485 372.237 155.688 372.237 155.912C372.237 156.125 372.272 156.309 372.341 156.464C372.411 156.619 372.504 156.747 372.621 156.848C372.744 156.944 372.885 157.016 373.045 157.064C373.211 157.107 373.387 157.128 373.573 157.128C373.824 157.128 374.053 157.104 374.261 157.056C374.469 157.003 374.664 156.928 374.845 156.832C375.032 156.736 375.208 156.621 375.373 156.488C375.544 156.355 375.709 156.203 375.869 156.032V154.352ZM371.269 151.04C371.717 150.608 372.2 150.285 372.717 150.072C373.235 149.859 373.808 149.752 374.437 149.752C374.891 149.752 375.293 149.827 375.645 149.976C375.997 150.125 376.293 150.333 376.533 150.6C376.773 150.867 376.955 151.189 377.077 151.568C377.2 151.947 377.261 152.363 377.261 152.816V158H376.629C376.491 158 376.384 157.979 376.309 157.936C376.235 157.888 376.176 157.797 376.133 157.664L375.973 156.896C375.76 157.093 375.552 157.269 375.349 157.424C375.147 157.573 374.933 157.701 374.709 157.808C374.485 157.909 374.245 157.987 373.989 158.04C373.739 158.099 373.459 158.128 373.149 158.128C372.835 158.128 372.539 158.085 372.261 158C371.984 157.909 371.741 157.776 371.533 157.6C371.331 157.424 371.168 157.203 371.045 156.936C370.928 156.664 370.869 156.344 370.869 155.976C370.869 155.656 370.957 155.349 371.133 155.056C371.309 154.757 371.595 154.493 371.989 154.264C372.384 154.035 372.899 153.848 373.533 153.704C374.168 153.555 374.947 153.469 375.869 153.448V152.816C375.869 152.187 375.733 151.712 375.461 151.392C375.189 151.067 374.792 150.904 374.269 150.904C373.917 150.904 373.621 150.949 373.381 151.04C373.147 151.125 372.941 151.224 372.765 151.336C372.595 151.443 372.445 151.541 372.317 151.632C372.195 151.717 372.072 151.76 371.949 151.76C371.853 151.76 371.771 151.736 371.701 151.688C371.632 151.635 371.573 151.571 371.525 151.496L371.269 151.04ZM381.014 149.896V158H379.59V149.896H381.014ZM381.318 147.352C381.318 147.491 381.289 147.621 381.23 147.744C381.177 147.861 381.102 147.968 381.006 148.064C380.916 148.155 380.806 148.227 380.678 148.28C380.556 148.333 380.425 148.36 380.286 148.36C380.148 148.36 380.017 148.333 379.894 148.28C379.777 148.227 379.673 148.155 379.582 148.064C379.492 147.968 379.42 147.861 379.366 147.744C379.313 147.621 379.286 147.491 379.286 147.352C379.286 147.213 379.313 147.083 379.366 146.96C379.42 146.832 379.492 146.723 379.582 146.632C379.673 146.536 379.777 146.461 379.894 146.408C380.017 146.355 380.148 146.328 380.286 146.328C380.425 146.328 380.556 146.355 380.678 146.408C380.806 146.461 380.916 146.536 381.006 146.632C381.102 146.723 381.177 146.832 381.23 146.96C381.289 147.083 381.318 147.213 381.318 147.352ZM384.778 151.072C384.954 150.875 385.141 150.696 385.338 150.536C385.536 150.376 385.744 150.24 385.962 150.128C386.186 150.011 386.421 149.923 386.666 149.864C386.917 149.8 387.186 149.768 387.474 149.768C387.917 149.768 388.306 149.843 388.642 149.992C388.984 150.136 389.266 150.344 389.49 150.616C389.72 150.883 389.893 151.205 390.01 151.584C390.128 151.963 390.186 152.381 390.186 152.84V158H388.754V152.84C388.754 152.227 388.613 151.752 388.33 151.416C388.053 151.075 387.629 150.904 387.058 150.904C386.637 150.904 386.242 151.005 385.874 151.208C385.512 151.411 385.176 151.685 384.866 152.032V158H383.434V149.896H384.29C384.493 149.896 384.618 149.995 384.666 150.192L384.778 151.072ZM397.716 151.824C397.449 151.467 397.161 151.219 396.852 151.08C396.543 150.936 396.196 150.864 395.812 150.864C395.06 150.864 394.481 151.133 394.076 151.672C393.671 152.211 393.468 152.979 393.468 153.976C393.468 154.504 393.513 154.957 393.604 155.336C393.695 155.709 393.828 156.019 394.004 156.264C394.18 156.504 394.396 156.68 394.652 156.792C394.908 156.904 395.199 156.96 395.524 156.96C395.993 156.96 396.401 156.853 396.748 156.64C397.1 156.427 397.423 156.125 397.716 155.736V151.824ZM399.14 146.216V158H398.292C398.089 158 397.961 157.901 397.908 157.704L397.78 156.72C397.433 157.136 397.039 157.472 396.596 157.728C396.153 157.984 395.641 158.112 395.06 158.112C394.596 158.112 394.175 158.024 393.796 157.848C393.417 157.667 393.095 157.403 392.828 157.056C392.561 156.709 392.356 156.277 392.212 155.76C392.068 155.243 391.996 154.648 391.996 153.976C391.996 153.379 392.076 152.824 392.236 152.312C392.396 151.795 392.625 151.347 392.924 150.968C393.223 150.589 393.588 150.293 394.02 150.08C394.457 149.861 394.948 149.752 395.492 149.752C395.988 149.752 396.412 149.837 396.764 150.008C397.121 150.173 397.439 150.405 397.716 150.704V146.216H399.14ZM406.893 153.064C406.893 152.733 406.845 152.432 406.749 152.16C406.659 151.883 406.523 151.645 406.341 151.448C406.165 151.245 405.949 151.091 405.693 150.984C405.437 150.872 405.147 150.816 404.821 150.816C404.139 150.816 403.597 151.016 403.197 151.416C402.803 151.811 402.557 152.36 402.461 153.064H406.893ZM408.045 156.864C407.869 157.077 407.659 157.264 407.413 157.424C407.168 157.579 406.904 157.707 406.621 157.808C406.344 157.909 406.056 157.984 405.757 158.032C405.459 158.085 405.163 158.112 404.869 158.112C404.309 158.112 403.792 158.019 403.317 157.832C402.848 157.64 402.44 157.363 402.093 157C401.752 156.632 401.485 156.179 401.293 155.64C401.101 155.101 401.005 154.483 401.005 153.784C401.005 153.219 401.091 152.691 401.261 152.2C401.437 151.709 401.688 151.285 402.013 150.928C402.339 150.565 402.736 150.283 403.205 150.08C403.675 149.872 404.203 149.768 404.789 149.768C405.275 149.768 405.723 149.851 406.133 150.016C406.549 150.176 406.907 150.411 407.205 150.72C407.509 151.024 407.747 151.403 407.917 151.856C408.088 152.304 408.173 152.816 408.173 153.392C408.173 153.616 408.149 153.765 408.101 153.84C408.053 153.915 407.963 153.952 407.829 153.952H402.413C402.429 154.464 402.499 154.909 402.621 155.288C402.749 155.667 402.925 155.984 403.149 156.24C403.373 156.491 403.64 156.68 403.949 156.808C404.259 156.931 404.605 156.992 404.989 156.992C405.347 156.992 405.653 156.952 405.909 156.872C406.171 156.787 406.395 156.696 406.581 156.6C406.768 156.504 406.923 156.416 407.045 156.336C407.173 156.251 407.283 156.208 407.373 156.208C407.491 156.208 407.581 156.253 407.645 156.344L408.045 156.864ZM411.354 151.52C411.61 150.965 411.925 150.533 412.298 150.224C412.672 149.909 413.128 149.752 413.666 149.752C413.837 149.752 414 149.771 414.154 149.808C414.314 149.845 414.456 149.904 414.578 149.984L414.474 151.048C414.442 151.181 414.362 151.248 414.234 151.248C414.16 151.248 414.05 151.232 413.906 151.2C413.762 151.168 413.6 151.152 413.418 151.152C413.162 151.152 412.933 151.189 412.73 151.264C412.533 151.339 412.354 151.451 412.194 151.6C412.04 151.744 411.898 151.925 411.77 152.144C411.648 152.357 411.536 152.603 411.434 152.88V158H410.002V149.896H410.818C410.973 149.896 411.08 149.925 411.138 149.984C411.197 150.043 411.237 150.144 411.258 150.288L411.354 151.52Z" fill="black"/>
</svg>
