<svg width="698" height="88" viewBox="0 0 698 88" fill="none" xmlns="http://www.w3.org/2000/svg">
<g filter="url(#filter0_d_83_79)">
<path d="M44.2401 20.8C44.2401 21.8667 44.0668 22.85 43.7201 23.75C43.3734 24.65 42.8834 25.4267 42.2501 26.08C41.6234 26.7267 40.8668 27.2333 39.9801 27.6C39.1001 27.9667 38.1201 28.15 37.0401 28.15C35.9668 28.15 34.9868 27.9667 34.1001 27.6C33.2201 27.2333 32.4634 26.7267 31.8301 26.08C31.1968 25.4267 30.7068 24.65 30.3601 23.75C30.0134 22.85 29.8401 21.8667 29.8401 20.8C29.8401 19.7333 30.0134 18.75 30.3601 17.85C30.7068 16.95 31.1968 16.1733 31.8301 15.52C32.4634 14.8667 33.2201 14.3567 34.1001 13.99C34.9868 13.6233 35.9668 13.44 37.0401 13.44C38.1201 13.44 39.1001 13.6233 39.9801 13.99C40.8668 14.3567 41.6234 14.8667 42.2501 15.52C42.8834 16.1733 43.3734 16.95 43.7201 17.85C44.0668 18.75 44.2401 19.7333 44.2401 20.8ZM41.8501 20.8C41.8501 19.9733 41.7368 19.23 41.5101 18.57C41.2901 17.91 40.9701 17.35 40.5501 16.89C40.1368 16.43 39.6334 16.0767 39.0401 15.83C38.4468 15.5833 37.7801 15.46 37.0401 15.46C36.3068 15.46 35.6434 15.5833 35.0501 15.83C34.4568 16.0767 33.9501 16.43 33.5301 16.89C33.1101 17.35 32.7868 17.91 32.5601 18.57C32.3334 19.23 32.2201 19.9733 32.2201 20.8C32.2201 21.6333 32.3334 22.38 32.5601 23.04C32.7868 23.7 33.1101 24.26 33.5301 24.72C33.9501 25.1733 34.4568 25.5233 35.0501 25.77C35.6434 26.01 36.3068 26.13 37.0401 26.13C37.7801 26.13 38.4468 26.01 39.0401 25.77C39.6334 25.5233 40.1368 25.1733 40.5501 24.72C40.9701 24.26 41.2901 23.7 41.5101 23.04C41.7368 22.38 41.8501 21.6333 41.8501 20.8Z" fill="black"/>
<path d="M53.5967 19.8C53.53 19.8867 53.4667 19.9533 53.4067 20C53.3467 20.0467 53.26 20.07 53.1467 20.07C53.0333 20.07 52.9133 20.03 52.7867 19.95C52.6667 19.87 52.52 19.7833 52.3467 19.69C52.18 19.59 51.9767 19.5 51.7367 19.42C51.4967 19.34 51.1967 19.3 50.8367 19.3C50.37 19.3 49.96 19.3833 49.6067 19.55C49.26 19.7167 48.9667 19.9567 48.7267 20.27C48.4933 20.5767 48.3167 20.9533 48.1967 21.4C48.0833 21.84 48.0267 22.3367 48.0267 22.89C48.0267 23.4633 48.09 23.9733 48.2167 24.42C48.3433 24.8667 48.5233 25.2433 48.7567 25.55C48.9967 25.8567 49.2833 26.09 49.6167 26.25C49.9567 26.41 50.3367 26.49 50.7567 26.49C51.17 26.49 51.5067 26.44 51.7667 26.34C52.0267 26.24 52.2433 26.13 52.4167 26.01C52.59 25.89 52.7367 25.78 52.8567 25.68C52.9833 25.58 53.1167 25.53 53.2567 25.53C53.43 25.53 53.5633 25.5967 53.6567 25.73L54.2667 26.52C54.02 26.82 53.7467 27.0733 53.4467 27.28C53.1467 27.4867 52.83 27.6567 52.4967 27.79C52.1633 27.9167 51.8166 28.0067 51.4566 28.06C51.0967 28.12 50.7333 28.15 50.3667 28.15C49.7333 28.15 49.14 28.0333 48.5867 27.8C48.04 27.56 47.56 27.2167 47.1467 26.77C46.74 26.3167 46.4167 25.7667 46.1767 25.12C45.9433 24.4667 45.8267 23.7233 45.8267 22.89C45.8267 22.1367 45.9333 21.44 46.1467 20.8C46.36 20.1533 46.67 19.5967 47.0767 19.13C47.49 18.6633 48 18.3 48.6067 18.04C49.2133 17.7733 49.9133 17.64 50.7067 17.64C51.4467 17.64 52.0967 17.76 52.6567 18C53.2233 18.24 53.7267 18.58 54.1667 19.02L53.5967 19.8Z" fill="black"/>
<path d="M59.366 28.16C58.5194 28.16 57.866 27.9233 57.406 27.45C56.9527 26.97 56.726 26.2967 56.726 25.43V19.49H55.606C55.486 19.49 55.3827 19.4533 55.296 19.38C55.2094 19.3 55.166 19.1833 55.166 19.03V18.16L56.816 17.92L57.286 14.97C57.3194 14.8567 57.376 14.7667 57.456 14.7C57.536 14.6267 57.6427 14.59 57.776 14.59H58.876V17.94H61.706V19.49H58.876V25.28C58.876 25.6467 58.966 25.9267 59.146 26.12C59.326 26.3133 59.566 26.41 59.866 26.41C60.0327 26.41 60.176 26.39 60.296 26.35C60.416 26.3033 60.5194 26.2567 60.606 26.21C60.6927 26.1567 60.766 26.11 60.826 26.07C60.8927 26.0233 60.956 26 61.016 26C61.136 26 61.2327 26.0667 61.306 26.2L61.946 27.25C61.6127 27.5433 61.2194 27.77 60.766 27.93C60.3127 28.0833 59.846 28.16 59.366 28.16Z" fill="black"/>
<path d="M68.9507 23.54C68.184 23.5667 67.5374 23.63 67.0107 23.73C66.484 23.8233 66.0574 23.9467 65.7307 24.1C65.404 24.2467 65.1674 24.4233 65.0207 24.63C64.8807 24.8367 64.8107 25.0633 64.8107 25.31C64.8107 25.55 64.8474 25.7567 64.9207 25.93C65.0007 26.0967 65.1074 26.2367 65.2407 26.35C65.3807 26.4567 65.5407 26.5367 65.7207 26.59C65.9074 26.6367 66.1107 26.66 66.3307 26.66C66.8907 26.66 67.3707 26.5567 67.7707 26.35C68.1774 26.1367 68.5707 25.83 68.9507 25.43V23.54ZM63.2507 19.22C64.404 18.1467 65.7774 17.61 67.3707 17.61C67.9574 17.61 68.4774 17.7067 68.9307 17.9C69.3907 18.0867 69.774 18.3533 70.0807 18.7C70.394 19.0467 70.6307 19.46 70.7907 19.94C70.9574 20.4133 71.0407 20.94 71.0407 21.52V28H70.0807C69.874 28 69.7174 27.97 69.6107 27.91C69.504 27.8433 69.414 27.7133 69.3407 27.52L69.1307 26.69C68.8707 26.9233 68.614 27.1333 68.3607 27.32C68.1074 27.5 67.844 27.6533 67.5707 27.78C67.304 27.9067 67.014 28 66.7007 28.06C66.394 28.1267 66.054 28.16 65.6807 28.16C65.2674 28.16 64.8807 28.1033 64.5207 27.99C64.1674 27.8767 63.8607 27.7067 63.6007 27.48C63.3407 27.2467 63.134 26.96 62.9807 26.62C62.834 26.28 62.7607 25.88 62.7607 25.42C62.7607 25.0267 62.864 24.6433 63.0707 24.27C63.284 23.8967 63.6307 23.5633 64.1107 23.27C64.5974 22.97 65.234 22.7233 66.0207 22.53C66.814 22.3367 67.7907 22.2267 68.9507 22.2V21.52C68.9507 20.7867 68.794 20.24 68.4807 19.88C68.1674 19.52 67.7074 19.34 67.1007 19.34C66.6874 19.34 66.3407 19.3933 66.0607 19.5C65.7807 19.6 65.5374 19.71 65.3307 19.83C65.124 19.95 64.9407 20.0633 64.7807 20.17C64.6207 20.27 64.4507 20.32 64.2707 20.32C64.124 20.32 63.9974 20.2833 63.8907 20.21C63.7907 20.13 63.7074 20.0333 63.6407 19.92L63.2507 19.22Z" fill="black"/>
<path d="M75.8493 13.2V28H73.6993V13.2H75.8493Z" fill="black"/>
<path d="M96.7235 20.8C96.7235 21.8667 96.5502 22.8433 96.2035 23.73C95.8569 24.61 95.3669 25.3667 94.7335 26C94.1069 26.6333 93.3502 27.1267 92.4635 27.48C91.5835 27.8267 90.6035 28 89.5235 28H84.0835V13.6H89.5235C90.6035 13.6 91.5835 13.7767 92.4635 14.13C93.3502 14.4767 94.1069 14.9667 94.7335 15.6C95.3669 16.2333 95.8569 16.9933 96.2035 17.88C96.5502 18.76 96.7235 19.7333 96.7235 20.8ZM94.3335 20.8C94.3335 19.9733 94.2202 19.23 93.9935 18.57C93.7735 17.91 93.4535 17.3533 93.0335 16.9C92.6202 16.4467 92.1169 16.1 91.5235 15.86C90.9302 15.6133 90.2635 15.49 89.5235 15.49H86.4335V26.11H89.5235C90.2635 26.11 90.9302 25.99 91.5235 25.75C92.1169 25.51 92.6202 25.1633 93.0335 24.71C93.4535 24.25 93.7735 23.6933 93.9935 23.04C94.2202 22.38 94.3335 21.6333 94.3335 20.8Z" fill="black"/>
<path d="M101.063 17.8V28H98.9126V17.8H101.063ZM101.423 14.72C101.423 14.9133 101.383 15.0967 101.303 15.27C101.229 15.4433 101.126 15.5967 100.993 15.73C100.859 15.8567 100.703 15.96 100.523 16.04C100.349 16.1133 100.163 16.15 99.9626 16.15C99.7693 16.15 99.5859 16.1133 99.4126 16.04C99.2459 15.96 99.0993 15.8567 98.9726 15.73C98.8459 15.5967 98.7426 15.4433 98.6626 15.27C98.5893 15.0967 98.5526 14.9133 98.5526 14.72C98.5526 14.52 98.5893 14.3333 98.6626 14.16C98.7426 13.9867 98.8459 13.8367 98.9726 13.71C99.0993 13.5767 99.2459 13.4733 99.4126 13.4C99.5859 13.32 99.7693 13.28 99.9626 13.28C100.163 13.28 100.349 13.32 100.523 13.4C100.703 13.4733 100.859 13.5767 100.993 13.71C101.126 13.8367 101.229 13.9867 101.303 14.16C101.383 14.3333 101.423 14.52 101.423 14.72Z" fill="black"/>
<path d="M107.504 22.81C108.171 22.81 108.671 22.64 109.004 22.3C109.337 21.96 109.504 21.5167 109.504 20.97C109.504 20.41 109.337 19.9667 109.004 19.64C108.671 19.3133 108.171 19.15 107.504 19.15C106.844 19.15 106.344 19.3133 106.004 19.64C105.671 19.9667 105.504 20.41 105.504 20.97C105.504 21.2367 105.547 21.4833 105.634 21.71C105.721 21.9367 105.847 22.1333 106.014 22.3C106.181 22.46 106.387 22.5867 106.634 22.68C106.887 22.7667 107.177 22.81 107.504 22.81ZM110.494 28.5C110.494 28.2733 110.427 28.0933 110.294 27.96C110.167 27.82 109.994 27.7133 109.774 27.64C109.554 27.56 109.297 27.5033 109.004 27.47C108.711 27.43 108.397 27.4033 108.064 27.39C107.737 27.37 107.401 27.3533 107.054 27.34C106.714 27.32 106.384 27.2867 106.064 27.24C105.744 27.4067 105.481 27.6067 105.274 27.84C105.074 28.0733 104.974 28.3433 104.974 28.65C104.974 28.85 105.024 29.0367 105.124 29.21C105.231 29.3833 105.391 29.5333 105.604 29.66C105.824 29.7867 106.101 29.8867 106.434 29.96C106.774 30.0333 107.181 30.07 107.654 30.07C108.601 30.07 109.311 29.9233 109.784 29.63C110.257 29.3367 110.494 28.96 110.494 28.5ZM112.654 18.17V18.97C112.654 19.2367 112.494 19.4 112.174 19.46L111.154 19.63C111.327 20.0167 111.414 20.4467 111.414 20.92C111.414 21.42 111.314 21.8733 111.114 22.28C110.921 22.6867 110.651 23.0333 110.304 23.32C109.957 23.6067 109.544 23.8267 109.064 23.98C108.584 24.1333 108.064 24.21 107.504 24.21C107.291 24.21 107.081 24.2 106.874 24.18C106.674 24.1533 106.477 24.12 106.284 24.08C106.091 24.1933 105.947 24.3133 105.854 24.44C105.761 24.5667 105.714 24.6967 105.714 24.83C105.714 25.05 105.811 25.2133 106.004 25.32C106.197 25.4267 106.451 25.5033 106.764 25.55C107.084 25.5967 107.447 25.6267 107.854 25.64C108.261 25.6533 108.674 25.6767 109.094 25.71C109.514 25.7433 109.927 25.8 110.334 25.88C110.741 25.9533 111.101 26.08 111.414 26.26C111.734 26.4333 111.991 26.67 112.184 26.97C112.377 27.27 112.474 27.66 112.474 28.14C112.474 28.58 112.364 29.01 112.144 29.43C111.924 29.85 111.604 30.2233 111.184 30.55C110.771 30.8767 110.264 31.1367 109.664 31.33C109.064 31.53 108.381 31.63 107.614 31.63C106.854 31.63 106.191 31.5567 105.624 31.41C105.064 31.2633 104.594 31.0633 104.214 30.81C103.841 30.5633 103.561 30.2767 103.374 29.95C103.194 29.6233 103.104 29.2833 103.104 28.93C103.104 28.45 103.254 28.04 103.554 27.7C103.861 27.36 104.274 27.0933 104.794 26.9C104.514 26.7667 104.287 26.5833 104.114 26.35C103.947 26.1167 103.864 25.81 103.864 25.43C103.864 25.13 103.974 24.8167 104.194 24.49C104.414 24.1633 104.744 23.8867 105.184 23.66C104.677 23.38 104.277 23.01 103.984 22.55C103.691 22.0833 103.544 21.54 103.544 20.92C103.544 20.4133 103.641 19.9567 103.834 19.55C104.034 19.1433 104.311 18.7967 104.664 18.51C105.017 18.2233 105.434 18.0033 105.914 17.85C106.401 17.6967 106.931 17.62 107.504 17.62C108.384 17.62 109.151 17.8033 109.804 18.17H112.654Z" fill="black"/>
<path d="M116.692 17.8V28H114.542V17.8H116.692ZM117.052 14.72C117.052 14.9133 117.012 15.0967 116.932 15.27C116.859 15.4433 116.756 15.5967 116.622 15.73C116.489 15.8567 116.332 15.96 116.152 16.04C115.979 16.1133 115.792 16.15 115.592 16.15C115.399 16.15 115.216 16.1133 115.042 16.04C114.876 15.96 114.729 15.8567 114.602 15.73C114.476 15.5967 114.372 15.4433 114.292 15.27C114.219 15.0967 114.182 14.9133 114.182 14.72C114.182 14.52 114.219 14.3333 114.292 14.16C114.372 13.9867 114.476 13.8367 114.602 13.71C114.729 13.5767 114.876 13.4733 115.042 13.4C115.216 13.32 115.399 13.28 115.592 13.28C115.792 13.28 115.979 13.32 116.152 13.4C116.332 13.4733 116.489 13.5767 116.622 13.71C116.756 13.8367 116.859 13.9867 116.932 14.16C117.012 14.3333 117.052 14.52 117.052 14.72Z" fill="black"/>
<path d="M122.764 28.16C121.917 28.16 121.264 27.9233 120.804 27.45C120.35 26.97 120.124 26.2967 120.124 25.43V19.49H119.004C118.884 19.49 118.78 19.4533 118.694 19.38C118.607 19.3 118.564 19.1833 118.564 19.03V18.16L120.214 17.92L120.684 14.97C120.717 14.8567 120.774 14.7667 120.854 14.7C120.934 14.6267 121.04 14.59 121.174 14.59H122.274V17.94H125.104V19.49H122.274V25.28C122.274 25.6467 122.364 25.9267 122.544 26.12C122.724 26.3133 122.964 26.41 123.264 26.41C123.43 26.41 123.574 26.39 123.694 26.35C123.814 26.3033 123.917 26.2567 124.004 26.21C124.09 26.1567 124.164 26.11 124.224 26.07C124.29 26.0233 124.354 26 124.414 26C124.534 26 124.63 26.0667 124.704 26.2L125.344 27.25C125.01 27.5433 124.617 27.77 124.164 27.93C123.71 28.0833 123.244 28.16 122.764 28.16Z" fill="black"/>
<path d="M4 0V-1H3V0H4ZM4 40H3V41H4V40ZM4 1H150V-1H4V1ZM150 39H4V41H150V39ZM5 40V0H3V40H5Z" fill="black" mask="url(#path-1-inside-1_83_79)"/>
<path d="M189.05 20.8C189.05 22.06 188.913 23.15 188.64 24.07C188.373 24.99 188.003 25.7533 187.53 26.36C187.057 26.9667 186.5 27.4167 185.86 27.71C185.22 28.0033 184.53 28.15 183.79 28.15C183.05 28.15 182.36 28.0033 181.72 27.71C181.08 27.4167 180.523 26.9667 180.05 26.36C179.583 25.7533 179.217 24.99 178.95 24.07C178.683 23.15 178.55 22.06 178.55 20.8C178.55 19.54 178.683 18.45 178.95 17.53C179.217 16.6033 179.583 15.84 180.05 15.24C180.523 14.6333 181.08 14.1833 181.72 13.89C182.36 13.59 183.05 13.44 183.79 13.44C184.53 13.44 185.22 13.59 185.86 13.89C186.5 14.1833 187.057 14.6333 187.53 15.24C188.003 15.84 188.373 16.6033 188.64 17.53C188.913 18.45 189.05 19.54 189.05 20.8ZM186.83 20.8C186.83 19.7333 186.743 18.8467 186.57 18.14C186.403 17.4267 186.18 16.8567 185.9 16.43C185.62 16.0033 185.297 15.7 184.93 15.52C184.563 15.34 184.183 15.25 183.79 15.25C183.39 15.25 183.007 15.34 182.64 15.52C182.28 15.7 181.96 16.0033 181.68 16.43C181.4 16.8567 181.177 17.4267 181.01 18.14C180.843 18.8467 180.76 19.7333 180.76 20.8C180.76 21.8667 180.843 22.7567 181.01 23.47C181.177 24.1767 181.4 24.7433 181.68 25.17C181.96 25.5967 182.28 25.9 182.64 26.08C183.007 26.26 183.39 26.35 183.79 26.35C184.183 26.35 184.563 26.26 184.93 26.08C185.297 25.9 185.62 25.5967 185.9 25.17C186.18 24.7433 186.403 24.1767 186.57 23.47C186.743 22.7567 186.83 21.8667 186.83 20.8Z" fill="black"/>
<path d="M217 0V40H219V0H217Z" fill="black" mask="url(#path-5-inside-2_83_79)"/>
<path d="M256.27 26.37V28H248.42V26.37H251.42V17.35C251.42 17.03 251.43 16.7033 251.45 16.37L249.14 18.32C249.04 18.4 248.937 18.4533 248.83 18.48C248.73 18.5 248.633 18.5 248.54 18.48C248.453 18.46 248.373 18.43 248.3 18.39C248.233 18.3433 248.18 18.2933 248.14 18.24L247.47 17.3L251.81 13.57H253.56V26.37H256.27Z" fill="black"/>
<path d="M285 0V40H287V0H285Z" fill="black" mask="url(#path-8-inside-3_83_79)"/>
<path d="M323.84 25.97C324.073 25.97 324.257 26.04 324.39 26.18C324.523 26.3133 324.59 26.4867 324.59 26.7V28H314.85V27.27C314.85 27.1233 314.88 26.97 314.94 26.81C315 26.65 315.097 26.5033 315.23 26.37L319.71 21.88C320.09 21.5 320.427 21.1367 320.72 20.79C321.02 20.4433 321.273 20.0967 321.48 19.75C321.693 19.4033 321.853 19.0533 321.96 18.7C322.073 18.34 322.13 17.9633 322.13 17.57C322.13 17.19 322.07 16.8567 321.95 16.57C321.837 16.2767 321.677 16.0367 321.47 15.85C321.27 15.6567 321.027 15.5133 320.74 15.42C320.46 15.32 320.15 15.27 319.81 15.27C319.483 15.27 319.18 15.3167 318.9 15.41C318.627 15.5033 318.38 15.6333 318.16 15.8C317.947 15.9667 317.767 16.1667 317.62 16.4C317.48 16.6267 317.377 16.8767 317.31 17.15C317.21 17.4233 317.08 17.6067 316.92 17.7C316.767 17.7933 316.54 17.8133 316.24 17.76L315.11 17.56C315.21 16.88 315.397 16.2833 315.67 15.77C315.95 15.2567 316.3 14.83 316.72 14.49C317.14 14.1433 317.62 13.8833 318.16 13.71C318.707 13.53 319.297 13.44 319.93 13.44C320.57 13.44 321.157 13.5367 321.69 13.73C322.23 13.9167 322.693 14.1867 323.08 14.54C323.473 14.8867 323.78 15.31 324 15.81C324.22 16.31 324.33 16.8733 324.33 17.5C324.33 18.0333 324.25 18.5267 324.09 18.98C323.937 19.4333 323.727 19.8667 323.46 20.28C323.193 20.6933 322.88 21.0967 322.52 21.49C322.167 21.8767 321.793 22.27 321.4 22.67L317.92 26.23C318.207 26.15 318.493 26.0867 318.78 26.04C319.073 25.9933 319.35 25.97 319.61 25.97H323.84Z" fill="black"/>
<path d="M353 0V40H355V0H353Z" fill="black" mask="url(#path-11-inside-4_83_79)"/>
<path d="M383.18 17.56C383.28 16.88 383.467 16.2833 383.74 15.77C384.02 15.2567 384.37 14.83 384.79 14.49C385.21 14.1433 385.69 13.8833 386.23 13.71C386.777 13.53 387.367 13.44 388 13.44C388.64 13.44 389.22 13.5333 389.74 13.72C390.267 13.9 390.717 14.1533 391.09 14.48C391.47 14.8067 391.76 15.1967 391.96 15.65C392.167 16.1033 392.27 16.6 392.27 17.14C392.27 17.6 392.213 18.0067 392.1 18.36C391.993 18.7067 391.837 19.0133 391.63 19.28C391.43 19.5467 391.183 19.77 390.89 19.95C390.597 20.13 390.267 20.28 389.9 20.4C390.793 20.66 391.463 21.0767 391.91 21.65C392.357 22.2167 392.58 22.93 392.58 23.79C392.58 24.4833 392.45 25.1 392.19 25.64C391.93 26.18 391.577 26.6367 391.13 27.01C390.69 27.3833 390.173 27.67 389.58 27.87C388.993 28.0633 388.37 28.16 387.71 28.16C386.97 28.16 386.33 28.0733 385.79 27.9C385.25 27.72 384.783 27.4667 384.39 27.14C384.003 26.8067 383.68 26.4067 383.42 25.94C383.16 25.4733 382.94 24.95 382.76 24.37L383.69 23.98C383.937 23.8733 384.17 23.8433 384.39 23.89C384.617 23.9367 384.78 24.06 384.88 24.26C384.987 24.4733 385.107 24.7033 385.24 24.95C385.373 25.19 385.543 25.4133 385.75 25.62C385.963 25.82 386.223 25.99 386.53 26.13C386.843 26.2633 387.227 26.33 387.68 26.33C388.14 26.33 388.54 26.2567 388.88 26.11C389.227 25.9567 389.513 25.7633 389.74 25.53C389.973 25.29 390.147 25.0233 390.26 24.73C390.373 24.4367 390.43 24.1467 390.43 23.86C390.43 23.5 390.387 23.17 390.3 22.87C390.213 22.5633 390.043 22.3033 389.79 22.09C389.543 21.8767 389.19 21.71 388.73 21.59C388.277 21.4633 387.68 21.4 386.94 21.4V19.85C387.547 19.8433 388.057 19.7833 388.47 19.67C388.89 19.55 389.223 19.39 389.47 19.19C389.723 18.9833 389.903 18.7367 390.01 18.45C390.123 18.1633 390.18 17.85 390.18 17.51C390.18 17.1433 390.123 16.82 390.01 16.54C389.897 16.26 389.737 16.0267 389.53 15.84C389.33 15.6467 389.09 15.5033 388.81 15.41C388.53 15.3167 388.22 15.27 387.88 15.27C387.553 15.27 387.25 15.3167 386.97 15.41C386.697 15.5033 386.45 15.6333 386.23 15.8C386.017 15.9667 385.837 16.1667 385.69 16.4C385.543 16.6267 385.437 16.8767 385.37 17.15C385.277 17.4233 385.15 17.6067 384.99 17.7C384.837 17.7933 384.61 17.8133 384.31 17.76L383.18 17.56Z" fill="black"/>
<path d="M421 0V40H423V0H421Z" fill="black" mask="url(#path-14-inside-5_83_79)"/>
<path d="M457.21 22.68V17.42C457.21 17 457.24 16.54 457.3 16.04L452.46 22.68H457.21ZM461.07 22.68V23.92C461.07 24.04 461.03 24.1434 460.95 24.23C460.877 24.3167 460.763 24.36 460.61 24.36H459.08V28H457.21V24.36H450.98C450.827 24.36 450.693 24.3167 450.58 24.23C450.473 24.1367 450.403 24.0234 450.37 23.89L450.15 22.79L457.06 13.59H459.08V22.68H461.07Z" fill="black"/>
<path d="M489 0V40H491V0H489Z" fill="black" mask="url(#path-17-inside-6_83_79)"/>
<path d="M521.85 18.92C522.197 18.8466 522.527 18.7933 522.84 18.76C523.16 18.7266 523.467 18.71 523.76 18.71C524.513 18.71 525.177 18.8233 525.75 19.05C526.33 19.27 526.813 19.5766 527.2 19.97C527.593 20.3633 527.887 20.8266 528.08 21.36C528.28 21.8866 528.38 22.46 528.38 23.08C528.38 23.8466 528.247 24.5433 527.98 25.17C527.713 25.7966 527.343 26.3333 526.87 26.78C526.397 27.22 525.837 27.56 525.19 27.8C524.55 28.04 523.857 28.16 523.11 28.16C522.67 28.16 522.25 28.1166 521.85 28.03C521.457 27.9433 521.087 27.8266 520.74 27.68C520.393 27.5266 520.073 27.3533 519.78 27.16C519.487 26.96 519.223 26.7533 518.99 26.54L519.65 25.62C519.79 25.42 519.977 25.32 520.21 25.32C520.357 25.32 520.517 25.3733 520.69 25.48C520.863 25.5866 521.063 25.7033 521.29 25.83C521.523 25.95 521.797 26.0633 522.11 26.17C522.423 26.2766 522.797 26.33 523.23 26.33C523.703 26.33 524.127 26.2533 524.5 26.1C524.873 25.9466 525.187 25.7333 525.44 25.46C525.7 25.18 525.897 24.8466 526.03 24.46C526.163 24.0733 526.23 23.65 526.23 23.19C526.23 22.77 526.167 22.3933 526.04 22.06C525.92 21.7266 525.737 21.4433 525.49 21.21C525.25 20.9766 524.947 20.8 524.58 20.68C524.213 20.5533 523.79 20.49 523.31 20.49C522.957 20.49 522.593 20.52 522.22 20.58C521.853 20.64 521.48 20.7333 521.1 20.86L519.76 20.48L520.94 13.6H527.91V14.53C527.91 14.8366 527.813 15.0866 527.62 15.28C527.427 15.4733 527.103 15.57 526.65 15.57H522.43L521.85 18.92Z" fill="black"/>
<path d="M557 0V40H559V0H557Z" fill="black" mask="url(#path-20-inside-7_83_79)"/>
<path d="M591.78 26.38C592.213 26.38 592.61 26.31 592.97 26.17C593.33 26.0233 593.637 25.8233 593.89 25.57C594.15 25.3166 594.35 25.0166 594.49 24.67C594.63 24.3233 594.7 23.9466 594.7 23.54C594.7 23.1 594.63 22.7066 594.49 22.36C594.357 22.0066 594.163 21.71 593.91 21.47C593.663 21.23 593.363 21.0466 593.01 20.92C592.663 20.7866 592.28 20.72 591.86 20.72C591.427 20.72 591.033 20.7933 590.68 20.94C590.333 21.0866 590.037 21.2866 589.79 21.54C589.543 21.7933 589.353 22.09 589.22 22.43C589.087 22.77 589.02 23.13 589.02 23.51C589.02 23.9366 589.08 24.3266 589.2 24.68C589.32 25.0333 589.497 25.3366 589.73 25.59C589.963 25.8366 590.25 26.03 590.59 26.17C590.937 26.31 591.333 26.38 591.78 26.38ZM590.99 18.9C590.883 19.0333 590.78 19.16 590.68 19.28C590.587 19.4 590.493 19.52 590.4 19.64C590.707 19.4666 591.043 19.33 591.41 19.23C591.777 19.13 592.17 19.08 592.59 19.08C593.15 19.08 593.687 19.1733 594.2 19.36C594.713 19.54 595.163 19.8133 595.55 20.18C595.943 20.54 596.257 20.99 596.49 21.53C596.723 22.0633 596.84 22.68 596.84 23.38C596.84 24.0466 596.717 24.67 596.47 25.25C596.23 25.83 595.89 26.3366 595.45 26.77C595.01 27.1966 594.48 27.5366 593.86 27.79C593.247 28.0366 592.567 28.16 591.82 28.16C591.073 28.16 590.4 28.04 589.8 27.8C589.2 27.56 588.687 27.2233 588.26 26.79C587.84 26.35 587.517 25.8233 587.29 25.21C587.063 24.5966 586.95 23.9133 586.95 23.16C586.95 22.5066 587.09 21.8233 587.37 21.11C587.65 20.3966 588.083 19.6466 588.67 18.86L592.21 14.11C592.317 13.97 592.47 13.85 592.67 13.75C592.877 13.65 593.107 13.6 593.36 13.6H595.26L590.99 18.9Z" fill="black"/>
<path d="M625 0V40H627V0H625Z" fill="black" mask="url(#path-23-inside-8_83_79)"/>
<path d="M664.87 13.6V14.55C664.87 14.83 664.84 15.0566 664.78 15.23C664.72 15.4033 664.66 15.55 664.6 15.67L658.91 27.25C658.81 27.4633 658.667 27.6433 658.48 27.79C658.3 27.93 658.06 28 657.76 28H656.21L662.01 16.61C662.117 16.4033 662.223 16.2166 662.33 16.05C662.437 15.8833 662.557 15.7233 662.69 15.57H655.5C655.367 15.57 655.25 15.52 655.15 15.42C655.05 15.3133 655 15.1933 655 15.06V13.6H664.87Z" fill="black"/>
<rect x="150.5" y="0.5" width="543" height="39" stroke="black"/>
<path d="M30.95 66.15C31.4766 66.15 31.92 66.09 32.28 65.97C32.6466 65.8434 32.9433 65.6734 33.17 65.46C33.4033 65.2467 33.57 64.9967 33.67 64.71C33.7766 64.4167 33.83 64.1034 33.83 63.77C33.83 63.09 33.5966 62.5567 33.13 62.17C32.67 61.7767 31.94 61.58 30.94 61.58H28.05V66.15H30.95ZM28.05 55.43V59.93H30.39C31.39 59.93 32.1366 59.7367 32.63 59.35C33.1233 58.9634 33.37 58.4067 33.37 57.68C33.37 56.8867 33.1366 56.3134 32.67 55.96C32.21 55.6067 31.4866 55.43 30.5 55.43H28.05ZM30.5 53.6C31.42 53.6 32.2066 53.69 32.86 53.87C33.5133 54.0434 34.05 54.2934 34.47 54.62C34.89 54.9467 35.1966 55.3467 35.39 55.82C35.59 56.2867 35.69 56.8134 35.69 57.4C35.69 57.74 35.6366 58.07 35.53 58.39C35.43 58.7034 35.27 59 35.05 59.28C34.8366 59.5534 34.5666 59.8 34.24 60.02C33.9133 60.24 33.5266 60.4234 33.08 60.57C35.12 61.0034 36.14 62.0867 36.14 63.82C36.14 64.4334 36.0233 64.9967 35.79 65.51C35.5633 66.0167 35.23 66.4567 34.79 66.83C34.3566 67.1967 33.82 67.4834 33.18 67.69C32.54 67.8967 31.81 68 30.99 68H25.71V53.6H30.5Z" fill="black"/>
<path d="M40.5211 57.8V68H38.3711V57.8H40.5211ZM40.8811 54.72C40.8811 54.9134 40.8411 55.0967 40.7611 55.27C40.6877 55.4434 40.5844 55.5967 40.4511 55.73C40.3177 55.8567 40.1611 55.96 39.9811 56.04C39.8077 56.1134 39.6211 56.15 39.4211 56.15C39.2277 56.15 39.0444 56.1134 38.8711 56.04C38.7044 55.96 38.5577 55.8567 38.4311 55.73C38.3044 55.5967 38.2011 55.4434 38.1211 55.27C38.0477 55.0967 38.0111 54.9134 38.0111 54.72C38.0111 54.52 38.0477 54.3334 38.1211 54.16C38.2011 53.9867 38.3044 53.8367 38.4311 53.71C38.5577 53.5767 38.7044 53.4734 38.8711 53.4C39.0444 53.32 39.2277 53.28 39.4211 53.28C39.6211 53.28 39.8077 53.32 39.9811 53.4C40.1611 53.4734 40.3177 53.5767 40.4511 53.71C40.5844 53.8367 40.6877 53.9867 40.7611 54.16C40.8411 54.3334 40.8811 54.52 40.8811 54.72Z" fill="black"/>
<path d="M45.3325 59.15C45.5525 58.9234 45.7791 58.72 46.0125 58.54C46.2525 58.3534 46.5058 58.1934 46.7725 58.06C47.0391 57.9267 47.3225 57.8234 47.6225 57.75C47.9225 57.6767 48.2491 57.64 48.6025 57.64C49.1625 57.64 49.6525 57.7334 50.0725 57.92C50.4991 58.1067 50.8558 58.37 51.1425 58.71C51.4358 59.05 51.6558 59.46 51.8025 59.94C51.9491 60.4134 52.0225 60.9367 52.0225 61.51V68H49.8825V61.51C49.8825 60.8234 49.7225 60.29 49.4025 59.91C49.0891 59.53 48.6091 59.34 47.9625 59.34C47.4825 59.34 47.0358 59.45 46.6225 59.67C46.2158 59.89 45.8325 60.19 45.4725 60.57V68H43.3225V57.8H44.6225C44.9158 57.8 45.1025 57.9367 45.1825 58.21L45.3325 59.15Z" fill="black"/>
<path d="M60.0834 63.54C59.3167 63.5667 58.6701 63.63 58.1434 63.73C57.6167 63.8234 57.1901 63.9467 56.8634 64.1C56.5367 64.2467 56.3001 64.4234 56.1534 64.63C56.0134 64.8367 55.9434 65.0634 55.9434 65.31C55.9434 65.55 55.9801 65.7567 56.0534 65.93C56.1334 66.0967 56.2401 66.2367 56.3734 66.35C56.5134 66.4567 56.6734 66.5367 56.8534 66.59C57.0401 66.6367 57.2434 66.66 57.4634 66.66C58.0234 66.66 58.5034 66.5567 58.9034 66.35C59.3101 66.1367 59.7034 65.83 60.0834 65.43V63.54ZM54.3834 59.22C55.5367 58.1467 56.9101 57.61 58.5034 57.61C59.0901 57.61 59.6101 57.7067 60.0634 57.9C60.5234 58.0867 60.9067 58.3534 61.2134 58.7C61.5267 59.0467 61.7634 59.46 61.9234 59.94C62.0901 60.4134 62.1734 60.94 62.1734 61.52V68H61.2134C61.0067 68 60.8501 67.97 60.7434 67.91C60.6367 67.8434 60.5467 67.7134 60.4734 67.52L60.2634 66.69C60.0034 66.9234 59.7467 67.1334 59.4934 67.32C59.2401 67.5 58.9767 67.6534 58.7034 67.78C58.4367 67.9067 58.1467 68 57.8334 68.06C57.5267 68.1267 57.1867 68.16 56.8134 68.16C56.4001 68.16 56.0134 68.1034 55.6534 67.99C55.3001 67.8767 54.9934 67.7067 54.7334 67.48C54.4734 67.2467 54.2667 66.96 54.1134 66.62C53.9667 66.28 53.8934 65.88 53.8934 65.42C53.8934 65.0267 53.9967 64.6434 54.2034 64.27C54.4167 63.8967 54.7634 63.5634 55.2434 63.27C55.7301 62.97 56.3667 62.7234 57.1534 62.53C57.9467 62.3367 58.9234 62.2267 60.0834 62.2V61.52C60.0834 60.7867 59.9267 60.24 59.6134 59.88C59.3001 59.52 58.8401 59.34 58.2334 59.34C57.8201 59.34 57.4734 59.3934 57.1934 59.5C56.9134 59.6 56.6701 59.71 56.4634 59.83C56.2567 59.95 56.0734 60.0634 55.9134 60.17C55.7534 60.27 55.5834 60.32 55.4034 60.32C55.2567 60.32 55.1301 60.2834 55.0234 60.21C54.9234 60.13 54.8401 60.0334 54.7734 59.92L54.3834 59.22Z" fill="black"/>
<path d="M66.822 59.69C67.142 59.0434 67.5287 58.5367 67.982 58.17C68.4353 57.7967 68.9787 57.61 69.612 57.61C69.832 57.61 70.0387 57.6367 70.232 57.69C70.4253 57.7367 70.5987 57.81 70.752 57.91L70.602 59.53C70.5753 59.6434 70.532 59.7234 70.472 59.77C70.4187 59.81 70.3453 59.83 70.252 59.83C70.152 59.83 70.0087 59.8134 69.822 59.78C69.6353 59.74 69.4387 59.72 69.232 59.72C68.932 59.72 68.6653 59.7634 68.432 59.85C68.2053 59.9367 67.9987 60.0634 67.812 60.23C67.632 60.3967 67.472 60.6 67.332 60.84C67.192 61.08 67.062 61.3534 66.942 61.66V68H64.792V57.8H66.042C66.2687 57.8 66.4253 57.8434 66.512 57.93C66.5987 58.01 66.6587 58.1534 66.692 58.36L66.822 59.69Z" fill="black"/>
<path d="M81.3248 57.8L75.7048 70.9C75.6315 71.0534 75.5415 71.1734 75.4348 71.26C75.3348 71.3467 75.1781 71.39 74.9648 71.39H73.3748L75.2548 67.31L71.0948 57.8H72.9648C73.1448 57.8 73.2815 57.8434 73.3748 57.93C73.4748 58.01 73.5481 58.1067 73.5948 58.22L76.0248 64.01C76.0848 64.1767 76.1381 64.3434 76.1848 64.51C76.2381 64.67 76.2881 64.8367 76.3348 65.01C76.3881 64.8367 76.4415 64.6667 76.4948 64.5C76.5481 64.3334 76.6081 64.1667 76.6748 64L79.0048 58.22C79.0515 58.1 79.1281 58 79.2348 57.92C79.3481 57.84 79.4715 57.8 79.6048 57.8H81.3248Z" fill="black"/>
<path d="M100.456 60.8C100.456 61.8667 100.283 62.8434 99.9362 63.73C99.5895 64.61 99.0995 65.3667 98.4662 66C97.8395 66.6334 97.0829 67.1267 96.1962 67.48C95.3162 67.8267 94.3362 68 93.2562 68H87.8162V53.6H93.2562C94.3362 53.6 95.3162 53.7767 96.1962 54.13C97.0829 54.4767 97.8395 54.9667 98.4662 55.6C99.0995 56.2334 99.5895 56.9934 99.9362 57.88C100.283 58.76 100.456 59.7334 100.456 60.8ZM98.0662 60.8C98.0662 59.9734 97.9529 59.23 97.7262 58.57C97.5062 57.91 97.1862 57.3534 96.7662 56.9C96.3529 56.4467 95.8495 56.1 95.2562 55.86C94.6629 55.6134 93.9962 55.49 93.2562 55.49H90.1662V66.11H93.2562C93.9962 66.11 94.6629 65.99 95.2562 65.75C95.8495 65.51 96.3529 65.1634 96.7662 64.71C97.1862 64.25 97.5062 63.6934 97.7262 63.04C97.9529 62.38 98.0662 61.6334 98.0662 60.8Z" fill="black"/>
<path d="M104.795 57.8V68H102.645V57.8H104.795ZM105.155 54.72C105.155 54.9134 105.115 55.0967 105.035 55.27C104.962 55.4434 104.859 55.5967 104.725 55.73C104.592 55.8567 104.435 55.96 104.255 56.04C104.082 56.1134 103.895 56.15 103.695 56.15C103.502 56.15 103.319 56.1134 103.145 56.04C102.979 55.96 102.832 55.8567 102.705 55.73C102.579 55.5967 102.475 55.4434 102.395 55.27C102.322 55.0967 102.285 54.9134 102.285 54.72C102.285 54.52 102.322 54.3334 102.395 54.16C102.475 53.9867 102.579 53.8367 102.705 53.71C102.832 53.5767 102.979 53.4734 103.145 53.4C103.319 53.32 103.502 53.28 103.695 53.28C103.895 53.28 104.082 53.32 104.255 53.4C104.435 53.4734 104.592 53.5767 104.725 53.71C104.859 53.8367 104.962 53.9867 105.035 54.16C105.115 54.3334 105.155 54.52 105.155 54.72Z" fill="black"/>
<path d="M111.237 62.81C111.903 62.81 112.403 62.64 112.737 62.3C113.07 61.96 113.237 61.5167 113.237 60.97C113.237 60.41 113.07 59.9667 112.737 59.64C112.403 59.3134 111.903 59.15 111.237 59.15C110.577 59.15 110.077 59.3134 109.737 59.64C109.403 59.9667 109.237 60.41 109.237 60.97C109.237 61.2367 109.28 61.4834 109.367 61.71C109.453 61.9367 109.58 62.1334 109.747 62.3C109.913 62.46 110.12 62.5867 110.367 62.68C110.62 62.7667 110.91 62.81 111.237 62.81ZM114.227 68.5C114.227 68.2734 114.16 68.0934 114.027 67.96C113.9 67.82 113.727 67.7134 113.507 67.64C113.287 67.56 113.03 67.5034 112.737 67.47C112.443 67.43 112.13 67.4034 111.797 67.39C111.47 67.37 111.133 67.3534 110.787 67.34C110.447 67.32 110.117 67.2867 109.797 67.24C109.477 67.4067 109.213 67.6067 109.007 67.84C108.807 68.0734 108.707 68.3434 108.707 68.65C108.707 68.85 108.757 69.0367 108.857 69.21C108.963 69.3834 109.123 69.5334 109.337 69.66C109.557 69.7867 109.833 69.8867 110.167 69.96C110.507 70.0334 110.913 70.07 111.387 70.07C112.333 70.07 113.043 69.9234 113.517 69.63C113.99 69.3367 114.227 68.96 114.227 68.5ZM116.387 58.17V58.97C116.387 59.2367 116.227 59.4 115.907 59.46L114.887 59.63C115.06 60.0167 115.147 60.4467 115.147 60.92C115.147 61.42 115.047 61.8734 114.847 62.28C114.653 62.6867 114.383 63.0334 114.037 63.32C113.69 63.6067 113.277 63.8267 112.797 63.98C112.317 64.1334 111.797 64.21 111.237 64.21C111.023 64.21 110.813 64.2 110.607 64.18C110.407 64.1534 110.21 64.12 110.017 64.08C109.823 64.1934 109.68 64.3134 109.587 64.44C109.493 64.5667 109.447 64.6967 109.447 64.83C109.447 65.05 109.543 65.2134 109.737 65.32C109.93 65.4267 110.183 65.5034 110.497 65.55C110.817 65.5967 111.18 65.6267 111.587 65.64C111.993 65.6534 112.407 65.6767 112.827 65.71C113.247 65.7434 113.66 65.8 114.067 65.88C114.473 65.9534 114.833 66.08 115.147 66.26C115.467 66.4334 115.723 66.67 115.917 66.97C116.11 67.27 116.207 67.66 116.207 68.14C116.207 68.58 116.097 69.01 115.877 69.43C115.657 69.85 115.337 70.2234 114.917 70.55C114.503 70.8767 113.997 71.1367 113.397 71.33C112.797 71.53 112.113 71.63 111.347 71.63C110.587 71.63 109.923 71.5567 109.357 71.41C108.797 71.2634 108.327 71.0634 107.947 70.81C107.573 70.5634 107.293 70.2767 107.107 69.95C106.927 69.6234 106.837 69.2834 106.837 68.93C106.837 68.45 106.987 68.04 107.287 67.7C107.593 67.36 108.007 67.0934 108.527 66.9C108.247 66.7667 108.02 66.5834 107.847 66.35C107.68 66.1167 107.597 65.81 107.597 65.43C107.597 65.13 107.707 64.8167 107.927 64.49C108.147 64.1634 108.477 63.8867 108.917 63.66C108.41 63.38 108.01 63.01 107.717 62.55C107.423 62.0834 107.277 61.54 107.277 60.92C107.277 60.4134 107.373 59.9567 107.567 59.55C107.767 59.1434 108.043 58.7967 108.397 58.51C108.75 58.2234 109.167 58.0034 109.647 57.85C110.133 57.6967 110.663 57.62 111.237 57.62C112.117 57.62 112.883 57.8034 113.537 58.17H116.387Z" fill="black"/>
<path d="M120.425 57.8V68H118.275V57.8H120.425ZM120.785 54.72C120.785 54.9134 120.745 55.0967 120.665 55.27C120.592 55.4434 120.488 55.5967 120.355 55.73C120.222 55.8567 120.065 55.96 119.885 56.04C119.712 56.1134 119.525 56.15 119.325 56.15C119.132 56.15 118.948 56.1134 118.775 56.04C118.608 55.96 118.462 55.8567 118.335 55.73C118.208 55.5967 118.105 55.4434 118.025 55.27C117.952 55.0967 117.915 54.9134 117.915 54.72C117.915 54.52 117.952 54.3334 118.025 54.16C118.105 53.9867 118.208 53.8367 118.335 53.71C118.462 53.5767 118.608 53.4734 118.775 53.4C118.948 53.32 119.132 53.28 119.325 53.28C119.525 53.28 119.712 53.32 119.885 53.4C120.065 53.4734 120.222 53.5767 120.355 53.71C120.488 53.8367 120.592 53.9867 120.665 54.16C120.745 54.3334 120.785 54.52 120.785 54.72Z" fill="black"/>
<path d="M126.496 68.16C125.65 68.16 124.996 67.9234 124.536 67.45C124.083 66.97 123.856 66.2967 123.856 65.43V59.49H122.736C122.616 59.49 122.513 59.4534 122.426 59.38C122.34 59.3 122.296 59.1834 122.296 59.03V58.16L123.946 57.92L124.416 54.97C124.45 54.8567 124.506 54.7667 124.586 54.7C124.666 54.6267 124.773 54.59 124.906 54.59H126.006V57.94H128.836V59.49H126.006V65.28C126.006 65.6467 126.096 65.9267 126.276 66.12C126.456 66.3134 126.696 66.41 126.996 66.41C127.163 66.41 127.306 66.39 127.426 66.35C127.546 66.3034 127.65 66.2567 127.736 66.21C127.823 66.1567 127.896 66.11 127.956 66.07C128.023 66.0234 128.086 66 128.146 66C128.266 66 128.363 66.0667 128.436 66.2L129.076 67.25C128.743 67.5434 128.35 67.77 127.896 67.93C127.443 68.0834 126.976 68.16 126.496 68.16Z" fill="black"/>
<path d="M4 80H3V81H4V80ZM150 79H4V81H150V79ZM5 80V40H3V80H5Z" fill="black" mask="url(#path-27-inside-9_83_79)"/>
<path d="M177.05 60.7999C177.05 62.0599 176.913 63.1499 176.64 64.0699C176.373 64.9899 176.003 65.7533 175.53 66.3599C175.057 66.9666 174.5 67.4166 173.86 67.7099C173.22 68.0033 172.53 68.1499 171.79 68.1499C171.05 68.1499 170.36 68.0033 169.72 67.7099C169.08 67.4166 168.523 66.9666 168.05 66.3599C167.583 65.7533 167.217 64.9899 166.95 64.0699C166.683 63.1499 166.55 62.0599 166.55 60.7999C166.55 59.5399 166.683 58.4499 166.95 57.5299C167.217 56.6033 167.583 55.8399 168.05 55.2399C168.523 54.6333 169.08 54.1833 169.72 53.8899C170.36 53.5899 171.05 53.4399 171.79 53.4399C172.53 53.4399 173.22 53.5899 173.86 53.8899C174.5 54.1833 175.057 54.6333 175.53 55.2399C176.003 55.8399 176.373 56.6033 176.64 57.5299C176.913 58.4499 177.05 59.5399 177.05 60.7999ZM174.83 60.7999C174.83 59.7333 174.743 58.8466 174.57 58.1399C174.403 57.4266 174.18 56.8566 173.9 56.4299C173.62 56.0033 173.297 55.6999 172.93 55.5199C172.563 55.3399 172.183 55.2499 171.79 55.2499C171.39 55.2499 171.007 55.3399 170.64 55.5199C170.28 55.6999 169.96 56.0033 169.68 56.4299C169.4 56.8566 169.177 57.4266 169.01 58.1399C168.843 58.8466 168.76 59.7333 168.76 60.7999C168.76 61.8666 168.843 62.7566 169.01 63.4699C169.177 64.1766 169.4 64.7433 169.68 65.1699C169.96 65.5966 170.28 65.8999 170.64 66.0799C171.007 66.2599 171.39 66.3499 171.79 66.3499C172.183 66.3499 172.563 66.2599 172.93 66.0799C173.297 65.8999 173.62 65.5966 173.9 65.1699C174.18 64.7433 174.403 64.1766 174.57 63.4699C174.743 62.7566 174.83 61.8666 174.83 60.7999Z" fill="black"/>
<path d="M188.752 60.7999C188.752 62.0599 188.615 63.1499 188.342 64.0699C188.075 64.9899 187.705 65.7533 187.232 66.3599C186.758 66.9666 186.202 67.4166 185.562 67.7099C184.922 68.0033 184.232 68.1499 183.492 68.1499C182.752 68.1499 182.062 68.0033 181.422 67.7099C180.782 67.4166 180.225 66.9666 179.752 66.3599C179.285 65.7533 178.918 64.9899 178.652 64.0699C178.385 63.1499 178.252 62.0599 178.252 60.7999C178.252 59.5399 178.385 58.4499 178.652 57.5299C178.918 56.6033 179.285 55.8399 179.752 55.2399C180.225 54.6333 180.782 54.1833 181.422 53.8899C182.062 53.5899 182.752 53.4399 183.492 53.4399C184.232 53.4399 184.922 53.5899 185.562 53.8899C186.202 54.1833 186.758 54.6333 187.232 55.2399C187.705 55.8399 188.075 56.6033 188.342 57.5299C188.615 58.4499 188.752 59.5399 188.752 60.7999ZM186.532 60.7999C186.532 59.7333 186.445 58.8466 186.272 58.1399C186.105 57.4266 185.882 56.8566 185.602 56.4299C185.322 56.0033 184.998 55.6999 184.632 55.5199C184.265 55.3399 183.885 55.2499 183.492 55.2499C183.092 55.2499 182.708 55.3399 182.342 55.5199C181.982 55.6999 181.662 56.0033 181.382 56.4299C181.102 56.8566 180.878 57.4266 180.712 58.1399C180.545 58.8466 180.462 59.7333 180.462 60.7999C180.462 61.8666 180.545 62.7566 180.712 63.4699C180.878 64.1766 181.102 64.7433 181.382 65.1699C181.662 65.5966 181.982 65.8999 182.342 66.0799C182.708 66.2599 183.092 66.3499 183.492 66.3499C183.885 66.3499 184.265 66.2599 184.632 66.0799C184.998 65.8999 185.322 65.5966 185.602 65.1699C185.882 64.7433 186.105 64.1766 186.272 63.4699C186.445 62.7566 186.532 61.8666 186.532 60.7999Z" fill="black"/>
<path d="M200.453 60.7999C200.453 62.0599 200.317 63.1499 200.043 64.0699C199.777 64.9899 199.407 65.7533 198.933 66.3599C198.46 66.9666 197.903 67.4166 197.263 67.7099C196.623 68.0033 195.933 68.1499 195.193 68.1499C194.453 68.1499 193.763 68.0033 193.123 67.7099C192.483 67.4166 191.927 66.9666 191.453 66.3599C190.987 65.7533 190.62 64.9899 190.353 64.0699C190.087 63.1499 189.953 62.0599 189.953 60.7999C189.953 59.5399 190.087 58.4499 190.353 57.5299C190.62 56.6033 190.987 55.8399 191.453 55.2399C191.927 54.6333 192.483 54.1833 193.123 53.8899C193.763 53.5899 194.453 53.4399 195.193 53.4399C195.933 53.4399 196.623 53.5899 197.263 53.8899C197.903 54.1833 198.46 54.6333 198.933 55.2399C199.407 55.8399 199.777 56.6033 200.043 57.5299C200.317 58.4499 200.453 59.5399 200.453 60.7999ZM198.233 60.7999C198.233 59.7333 198.147 58.8466 197.973 58.1399C197.807 57.4266 197.583 56.8566 197.303 56.4299C197.023 56.0033 196.7 55.6999 196.333 55.5199C195.967 55.3399 195.587 55.2499 195.193 55.2499C194.793 55.2499 194.41 55.3399 194.043 55.5199C193.683 55.6999 193.363 56.0033 193.083 56.4299C192.803 56.8566 192.58 57.4266 192.413 58.1399C192.247 58.8466 192.163 59.7333 192.163 60.7999C192.163 61.8666 192.247 62.7566 192.413 63.4699C192.58 64.1766 192.803 64.7433 193.083 65.1699C193.363 65.5966 193.683 65.8999 194.043 66.0799C194.41 66.2599 194.793 66.3499 195.193 66.3499C195.587 66.3499 195.967 66.2599 196.333 66.0799C196.7 65.8999 197.023 65.5966 197.303 65.1699C197.583 64.7433 197.807 64.1766 197.973 63.4699C198.147 62.7566 198.233 61.8666 198.233 60.7999Z" fill="black"/>
<path d="M217 40V80H219V40H217Z" fill="black" mask="url(#path-32-inside-11_83_79)"/>
<path d="M245.05 60.7999C245.05 62.0599 244.913 63.1499 244.64 64.0699C244.373 64.9899 244.003 65.7533 243.53 66.3599C243.057 66.9666 242.5 67.4166 241.86 67.7099C241.22 68.0033 240.53 68.1499 239.79 68.1499C239.05 68.1499 238.36 68.0033 237.72 67.7099C237.08 67.4166 236.523 66.9666 236.05 66.3599C235.583 65.7533 235.217 64.9899 234.95 64.0699C234.683 63.1499 234.55 62.0599 234.55 60.7999C234.55 59.5399 234.683 58.4499 234.95 57.5299C235.217 56.6033 235.583 55.8399 236.05 55.2399C236.523 54.6333 237.08 54.1833 237.72 53.8899C238.36 53.5899 239.05 53.4399 239.79 53.4399C240.53 53.4399 241.22 53.5899 241.86 53.8899C242.5 54.1833 243.057 54.6333 243.53 55.2399C244.003 55.8399 244.373 56.6033 244.64 57.5299C244.913 58.4499 245.05 59.5399 245.05 60.7999ZM242.83 60.7999C242.83 59.7333 242.743 58.8466 242.57 58.1399C242.403 57.4266 242.18 56.8566 241.9 56.4299C241.62 56.0033 241.297 55.6999 240.93 55.5199C240.563 55.3399 240.183 55.2499 239.79 55.2499C239.39 55.2499 239.007 55.3399 238.64 55.5199C238.28 55.6999 237.96 56.0033 237.68 56.4299C237.4 56.8566 237.177 57.4266 237.01 58.1399C236.843 58.8466 236.76 59.7333 236.76 60.7999C236.76 61.8666 236.843 62.7566 237.01 63.4699C237.177 64.1766 237.4 64.7433 237.68 65.1699C237.96 65.5966 238.28 65.8999 238.64 66.0799C239.007 66.2599 239.39 66.3499 239.79 66.3499C240.183 66.3499 240.563 66.2599 240.93 66.0799C241.297 65.8999 241.62 65.5966 241.9 65.1699C242.18 64.7433 242.403 64.1766 242.57 63.4699C242.743 62.7566 242.83 61.8666 242.83 60.7999Z" fill="black"/>
<path d="M256.752 60.7999C256.752 62.0599 256.615 63.1499 256.342 64.0699C256.075 64.9899 255.705 65.7533 255.232 66.3599C254.758 66.9666 254.202 67.4166 253.562 67.7099C252.922 68.0033 252.232 68.1499 251.492 68.1499C250.752 68.1499 250.062 68.0033 249.422 67.7099C248.782 67.4166 248.225 66.9666 247.752 66.3599C247.285 65.7533 246.918 64.9899 246.652 64.0699C246.385 63.1499 246.252 62.0599 246.252 60.7999C246.252 59.5399 246.385 58.4499 246.652 57.5299C246.918 56.6033 247.285 55.8399 247.752 55.2399C248.225 54.6333 248.782 54.1833 249.422 53.8899C250.062 53.5899 250.752 53.4399 251.492 53.4399C252.232 53.4399 252.922 53.5899 253.562 53.8899C254.202 54.1833 254.758 54.6333 255.232 55.2399C255.705 55.8399 256.075 56.6033 256.342 57.5299C256.615 58.4499 256.752 59.5399 256.752 60.7999ZM254.532 60.7999C254.532 59.7333 254.445 58.8466 254.272 58.1399C254.105 57.4266 253.882 56.8566 253.602 56.4299C253.322 56.0033 252.998 55.6999 252.632 55.5199C252.265 55.3399 251.885 55.2499 251.492 55.2499C251.092 55.2499 250.708 55.3399 250.342 55.5199C249.982 55.6999 249.662 56.0033 249.382 56.4299C249.102 56.8566 248.878 57.4266 248.712 58.1399C248.545 58.8466 248.462 59.7333 248.462 60.7999C248.462 61.8666 248.545 62.7566 248.712 63.4699C248.878 64.1766 249.102 64.7433 249.382 65.1699C249.662 65.5966 249.982 65.8999 250.342 66.0799C250.708 66.2599 251.092 66.3499 251.492 66.3499C251.885 66.3499 252.265 66.2599 252.632 66.0799C252.998 65.8999 253.322 65.5966 253.602 65.1699C253.882 64.7433 254.105 64.1766 254.272 63.4699C254.445 62.7566 254.532 61.8666 254.532 60.7999Z" fill="black"/>
<path d="M267.673 66.3699V67.9999H259.823V66.3699H262.823V57.3499C262.823 57.0299 262.833 56.7033 262.853 56.3699L260.543 58.3199C260.443 58.3999 260.34 58.4533 260.233 58.4799C260.133 58.4999 260.037 58.4999 259.943 58.4799C259.857 58.4599 259.777 58.4299 259.703 58.3899C259.637 58.3433 259.583 58.2933 259.543 58.2399L258.873 57.2999L263.213 53.5699H264.963V66.3699H267.673Z" fill="black"/>
<path d="M285 40V80H287V40H285Z" fill="black" mask="url(#path-35-inside-12_83_79)"/>
<path d="M313.05 60.7999C313.05 62.0599 312.913 63.1499 312.64 64.0699C312.373 64.9899 312.003 65.7533 311.53 66.3599C311.057 66.9666 310.5 67.4166 309.86 67.7099C309.22 68.0033 308.53 68.1499 307.79 68.1499C307.05 68.1499 306.36 68.0033 305.72 67.7099C305.08 67.4166 304.523 66.9666 304.05 66.3599C303.583 65.7533 303.217 64.9899 302.95 64.0699C302.683 63.1499 302.55 62.0599 302.55 60.7999C302.55 59.5399 302.683 58.4499 302.95 57.5299C303.217 56.6033 303.583 55.8399 304.05 55.2399C304.523 54.6333 305.08 54.1833 305.72 53.8899C306.36 53.5899 307.05 53.4399 307.79 53.4399C308.53 53.4399 309.22 53.5899 309.86 53.8899C310.5 54.1833 311.057 54.6333 311.53 55.2399C312.003 55.8399 312.373 56.6033 312.64 57.5299C312.913 58.4499 313.05 59.5399 313.05 60.7999ZM310.83 60.7999C310.83 59.7333 310.743 58.8466 310.57 58.1399C310.403 57.4266 310.18 56.8566 309.9 56.4299C309.62 56.0033 309.297 55.6999 308.93 55.5199C308.563 55.3399 308.183 55.2499 307.79 55.2499C307.39 55.2499 307.007 55.3399 306.64 55.5199C306.28 55.6999 305.96 56.0033 305.68 56.4299C305.4 56.8566 305.177 57.4266 305.01 58.1399C304.843 58.8466 304.76 59.7333 304.76 60.7999C304.76 61.8666 304.843 62.7566 305.01 63.4699C305.177 64.1766 305.4 64.7433 305.68 65.1699C305.96 65.5966 306.28 65.8999 306.64 66.0799C307.007 66.2599 307.39 66.3499 307.79 66.3499C308.183 66.3499 308.563 66.2599 308.93 66.0799C309.297 65.8999 309.62 65.5966 309.9 65.1699C310.18 64.7433 310.403 64.1766 310.57 63.4699C310.743 62.7566 310.83 61.8666 310.83 60.7999Z" fill="black"/>
<path d="M323.972 66.3699V67.9999H316.122V66.3699H319.122V57.3499C319.122 57.0299 319.132 56.7033 319.152 56.3699L316.842 58.3199C316.742 58.3999 316.638 58.4533 316.532 58.4799C316.432 58.4999 316.335 58.4999 316.242 58.4799C316.155 58.4599 316.075 58.4299 316.002 58.3899C315.935 58.3433 315.882 58.2933 315.842 58.2399L315.172 57.2999L319.512 53.5699H321.262V66.3699H323.972Z" fill="black"/>
<path d="M336.453 60.7999C336.453 62.0599 336.317 63.1499 336.043 64.0699C335.777 64.9899 335.407 65.7533 334.933 66.3599C334.46 66.9666 333.903 67.4166 333.263 67.7099C332.623 68.0033 331.933 68.1499 331.193 68.1499C330.453 68.1499 329.763 68.0033 329.123 67.7099C328.483 67.4166 327.927 66.9666 327.453 66.3599C326.987 65.7533 326.62 64.9899 326.353 64.0699C326.087 63.1499 325.953 62.0599 325.953 60.7999C325.953 59.5399 326.087 58.4499 326.353 57.5299C326.62 56.6033 326.987 55.8399 327.453 55.2399C327.927 54.6333 328.483 54.1833 329.123 53.8899C329.763 53.5899 330.453 53.4399 331.193 53.4399C331.933 53.4399 332.623 53.5899 333.263 53.8899C333.903 54.1833 334.46 54.6333 334.933 55.2399C335.407 55.8399 335.777 56.6033 336.043 57.5299C336.317 58.4499 336.453 59.5399 336.453 60.7999ZM334.233 60.7999C334.233 59.7333 334.147 58.8466 333.973 58.1399C333.807 57.4266 333.583 56.8566 333.303 56.4299C333.023 56.0033 332.7 55.6999 332.333 55.5199C331.967 55.3399 331.587 55.2499 331.193 55.2499C330.793 55.2499 330.41 55.3399 330.043 55.5199C329.683 55.6999 329.363 56.0033 329.083 56.4299C328.803 56.8566 328.58 57.4266 328.413 58.1399C328.247 58.8466 328.163 59.7333 328.163 60.7999C328.163 61.8666 328.247 62.7566 328.413 63.4699C328.58 64.1766 328.803 64.7433 329.083 65.1699C329.363 65.5966 329.683 65.8999 330.043 66.0799C330.41 66.2599 330.793 66.3499 331.193 66.3499C331.587 66.3499 331.967 66.2599 332.333 66.0799C332.7 65.8999 333.023 65.5966 333.303 65.1699C333.583 64.7433 333.807 64.1766 333.973 63.4699C334.147 62.7566 334.233 61.8666 334.233 60.7999Z" fill="black"/>
<path d="M353 40V80H355V40H353Z" fill="black" mask="url(#path-38-inside-13_83_79)"/>
<path d="M381.05 60.7999C381.05 62.0599 380.913 63.1499 380.64 64.0699C380.373 64.9899 380.003 65.7533 379.53 66.3599C379.057 66.9666 378.5 67.4166 377.86 67.7099C377.22 68.0033 376.53 68.1499 375.79 68.1499C375.05 68.1499 374.36 68.0033 373.72 67.7099C373.08 67.4166 372.523 66.9666 372.05 66.3599C371.583 65.7533 371.217 64.9899 370.95 64.0699C370.683 63.1499 370.55 62.0599 370.55 60.7999C370.55 59.5399 370.683 58.4499 370.95 57.5299C371.217 56.6033 371.583 55.8399 372.05 55.2399C372.523 54.6333 373.08 54.1833 373.72 53.8899C374.36 53.5899 375.05 53.4399 375.79 53.4399C376.53 53.4399 377.22 53.5899 377.86 53.8899C378.5 54.1833 379.057 54.6333 379.53 55.2399C380.003 55.8399 380.373 56.6033 380.64 57.5299C380.913 58.4499 381.05 59.5399 381.05 60.7999ZM378.83 60.7999C378.83 59.7333 378.743 58.8466 378.57 58.1399C378.403 57.4266 378.18 56.8566 377.9 56.4299C377.62 56.0033 377.297 55.6999 376.93 55.5199C376.563 55.3399 376.183 55.2499 375.79 55.2499C375.39 55.2499 375.007 55.3399 374.64 55.5199C374.28 55.6999 373.96 56.0033 373.68 56.4299C373.4 56.8566 373.177 57.4266 373.01 58.1399C372.843 58.8466 372.76 59.7333 372.76 60.7999C372.76 61.8666 372.843 62.7566 373.01 63.4699C373.177 64.1766 373.4 64.7433 373.68 65.1699C373.96 65.5966 374.28 65.8999 374.64 66.0799C375.007 66.2599 375.39 66.3499 375.79 66.3499C376.183 66.3499 376.563 66.2599 376.93 66.0799C377.297 65.8999 377.62 65.5966 377.9 65.1699C378.18 64.7433 378.403 64.1766 378.57 63.4699C378.743 62.7566 378.83 61.8666 378.83 60.7999Z" fill="black"/>
<path d="M391.972 66.3699V67.9999H384.122V66.3699H387.122V57.3499C387.122 57.0299 387.132 56.7033 387.152 56.3699L384.842 58.3199C384.742 58.3999 384.638 58.4533 384.532 58.4799C384.432 58.4999 384.335 58.4999 384.242 58.4799C384.155 58.4599 384.075 58.4299 384.002 58.3899C383.935 58.3433 383.882 58.2933 383.842 58.2399L383.172 57.2999L387.512 53.5699H389.262V66.3699H391.972Z" fill="black"/>
<path d="M403.673 66.3699V67.9999H395.823V66.3699H398.823V57.3499C398.823 57.0299 398.833 56.7033 398.853 56.3699L396.543 58.3199C396.443 58.3999 396.34 58.4533 396.233 58.4799C396.133 58.4999 396.037 58.4999 395.943 58.4799C395.857 58.4599 395.777 58.4299 395.703 58.3899C395.637 58.3433 395.583 58.2933 395.543 58.2399L394.873 57.2999L399.213 53.5699H400.963V66.3699H403.673Z" fill="black"/>
<path d="M421 40V80H423V40H421Z" fill="black" mask="url(#path-41-inside-14_83_79)"/>
<path d="M448.27 66.3699V67.9999H440.42V66.3699H443.42V57.3499C443.42 57.0299 443.43 56.7033 443.45 56.3699L441.14 58.3199C441.04 58.3999 440.937 58.4533 440.83 58.4799C440.73 58.4999 440.633 58.4999 440.54 58.4799C440.453 58.4599 440.373 58.4299 440.3 58.3899C440.233 58.3433 440.18 58.2933 440.14 58.2399L439.47 57.2999L443.81 53.5699H445.56V66.3699H448.27Z" fill="black"/>
<path d="M460.752 60.7999C460.752 62.0599 460.615 63.1499 460.342 64.0699C460.075 64.9899 459.705 65.7533 459.232 66.3599C458.758 66.9666 458.202 67.4166 457.562 67.7099C456.922 68.0033 456.232 68.1499 455.492 68.1499C454.752 68.1499 454.062 68.0033 453.422 67.7099C452.782 67.4166 452.225 66.9666 451.752 66.3599C451.285 65.7533 450.918 64.9899 450.652 64.0699C450.385 63.1499 450.252 62.0599 450.252 60.7999C450.252 59.5399 450.385 58.4499 450.652 57.5299C450.918 56.6033 451.285 55.8399 451.752 55.2399C452.225 54.6333 452.782 54.1833 453.422 53.8899C454.062 53.5899 454.752 53.4399 455.492 53.4399C456.232 53.4399 456.922 53.5899 457.562 53.8899C458.202 54.1833 458.758 54.6333 459.232 55.2399C459.705 55.8399 460.075 56.6033 460.342 57.5299C460.615 58.4499 460.752 59.5399 460.752 60.7999ZM458.532 60.7999C458.532 59.7333 458.445 58.8466 458.272 58.1399C458.105 57.4266 457.882 56.8566 457.602 56.4299C457.322 56.0033 456.998 55.6999 456.632 55.5199C456.265 55.3399 455.885 55.2499 455.492 55.2499C455.092 55.2499 454.708 55.3399 454.342 55.5199C453.982 55.6999 453.662 56.0033 453.382 56.4299C453.102 56.8566 452.878 57.4266 452.712 58.1399C452.545 58.8466 452.462 59.7333 452.462 60.7999C452.462 61.8666 452.545 62.7566 452.712 63.4699C452.878 64.1766 453.102 64.7433 453.382 65.1699C453.662 65.5966 453.982 65.8999 454.342 66.0799C454.708 66.2599 455.092 66.3499 455.492 66.3499C455.885 66.3499 456.265 66.2599 456.632 66.0799C456.998 65.8999 457.322 65.5966 457.602 65.1699C457.882 64.7433 458.105 64.1766 458.272 63.4699C458.445 62.7566 458.532 61.8666 458.532 60.7999Z" fill="black"/>
<path d="M472.453 60.7999C472.453 62.0599 472.316 63.1499 472.043 64.0699C471.776 64.9899 471.406 65.7533 470.933 66.3599C470.46 66.9666 469.903 67.4166 469.263 67.7099C468.623 68.0033 467.933 68.1499 467.193 68.1499C466.453 68.1499 465.763 68.0033 465.123 67.7099C464.483 67.4166 463.926 66.9666 463.453 66.3599C462.986 65.7533 462.62 64.9899 462.353 64.0699C462.086 63.1499 461.953 62.0599 461.953 60.7999C461.953 59.5399 462.086 58.4499 462.353 57.5299C462.62 56.6033 462.986 55.8399 463.453 55.2399C463.926 54.6333 464.483 54.1833 465.123 53.8899C465.763 53.5899 466.453 53.4399 467.193 53.4399C467.933 53.4399 468.623 53.5899 469.263 53.8899C469.903 54.1833 470.46 54.6333 470.933 55.2399C471.406 55.8399 471.776 56.6033 472.043 57.5299C472.316 58.4499 472.453 59.5399 472.453 60.7999ZM470.233 60.7999C470.233 59.7333 470.146 58.8466 469.973 58.1399C469.806 57.4266 469.583 56.8566 469.303 56.4299C469.023 56.0033 468.7 55.6999 468.333 55.5199C467.966 55.3399 467.586 55.2499 467.193 55.2499C466.793 55.2499 466.41 55.3399 466.043 55.5199C465.683 55.6999 465.363 56.0033 465.083 56.4299C464.803 56.8566 464.58 57.4266 464.413 58.1399C464.246 58.8466 464.163 59.7333 464.163 60.7999C464.163 61.8666 464.246 62.7566 464.413 63.4699C464.58 64.1766 464.803 64.7433 465.083 65.1699C465.363 65.5966 465.683 65.8999 466.043 66.0799C466.41 66.2599 466.793 66.3499 467.193 66.3499C467.586 66.3499 467.966 66.2599 468.333 66.0799C468.7 65.8999 469.023 65.5966 469.303 65.1699C469.583 64.7433 469.806 64.1766 469.973 63.4699C470.146 62.7566 470.233 61.8666 470.233 60.7999Z" fill="black"/>
<path d="M489 40V80H491V40H489Z" fill="black" mask="url(#path-44-inside-15_83_79)"/>
<path d="M516.27 66.3699V67.9999H508.42V66.3699H511.42V57.3499C511.42 57.0299 511.43 56.7033 511.45 56.3699L509.14 58.3199C509.04 58.3999 508.937 58.4533 508.83 58.4799C508.73 58.4999 508.633 58.4999 508.54 58.4799C508.453 58.4599 508.373 58.4299 508.3 58.3899C508.233 58.3433 508.18 58.2933 508.14 58.2399L507.47 57.2999L511.81 53.5699H513.56V66.3699H516.27Z" fill="black"/>
<path d="M528.752 60.7999C528.752 62.0599 528.615 63.1499 528.342 64.0699C528.075 64.9899 527.705 65.7533 527.232 66.3599C526.758 66.9666 526.202 67.4166 525.562 67.7099C524.922 68.0033 524.232 68.1499 523.492 68.1499C522.752 68.1499 522.062 68.0033 521.422 67.7099C520.782 67.4166 520.225 66.9666 519.752 66.3599C519.285 65.7533 518.918 64.9899 518.652 64.0699C518.385 63.1499 518.252 62.0599 518.252 60.7999C518.252 59.5399 518.385 58.4499 518.652 57.5299C518.918 56.6033 519.285 55.8399 519.752 55.2399C520.225 54.6333 520.782 54.1833 521.422 53.8899C522.062 53.5899 522.752 53.4399 523.492 53.4399C524.232 53.4399 524.922 53.5899 525.562 53.8899C526.202 54.1833 526.758 54.6333 527.232 55.2399C527.705 55.8399 528.075 56.6033 528.342 57.5299C528.615 58.4499 528.752 59.5399 528.752 60.7999ZM526.532 60.7999C526.532 59.7333 526.445 58.8466 526.272 58.1399C526.105 57.4266 525.882 56.8566 525.602 56.4299C525.322 56.0033 524.998 55.6999 524.632 55.5199C524.265 55.3399 523.885 55.2499 523.492 55.2499C523.092 55.2499 522.708 55.3399 522.342 55.5199C521.982 55.6999 521.662 56.0033 521.382 56.4299C521.102 56.8566 520.878 57.4266 520.712 58.1399C520.545 58.8466 520.462 59.7333 520.462 60.7999C520.462 61.8666 520.545 62.7566 520.712 63.4699C520.878 64.1766 521.102 64.7433 521.382 65.1699C521.662 65.5966 521.982 65.8999 522.342 66.0799C522.708 66.2599 523.092 66.3499 523.492 66.3499C523.885 66.3499 524.265 66.2599 524.632 66.0799C524.998 65.8999 525.322 65.5966 525.602 65.1699C525.882 64.7433 526.105 64.1766 526.272 63.4699C526.445 62.7566 526.532 61.8666 526.532 60.7999Z" fill="black"/>
<path d="M539.673 66.3699V67.9999H531.823V66.3699H534.823V57.3499C534.823 57.0299 534.833 56.7033 534.853 56.3699L532.543 58.3199C532.443 58.3999 532.34 58.4533 532.233 58.4799C532.133 58.4999 532.036 58.4999 531.943 58.4799C531.856 58.4599 531.776 58.4299 531.703 58.3899C531.636 58.3433 531.583 58.2933 531.543 58.2399L530.873 57.2999L535.213 53.5699H536.963V66.3699H539.673Z" fill="black"/>
<path d="M557 40V80H559V40H557Z" fill="black" mask="url(#path-47-inside-16_83_79)"/>
<path d="M584.27 66.3699V67.9999H576.42V66.3699H579.42V57.3499C579.42 57.0299 579.43 56.7033 579.45 56.3699L577.14 58.3199C577.04 58.3999 576.937 58.4533 576.83 58.4799C576.73 58.4999 576.633 58.4999 576.54 58.4799C576.453 58.4599 576.373 58.4299 576.3 58.3899C576.233 58.3433 576.18 58.2933 576.14 58.2399L575.47 57.2999L579.81 53.5699H581.56V66.3699H584.27Z" fill="black"/>
<path d="M595.972 66.3699V67.9999H588.122V66.3699H591.122V57.3499C591.122 57.0299 591.132 56.7033 591.152 56.3699L588.842 58.3199C588.742 58.3999 588.638 58.4533 588.532 58.4799C588.432 58.4999 588.335 58.4999 588.242 58.4799C588.155 58.4599 588.075 58.4299 588.002 58.3899C587.935 58.3433 587.882 58.2933 587.842 58.2399L587.172 57.2999L591.512 53.5699H593.262V66.3699H595.972Z" fill="black"/>
<path d="M608.453 60.7999C608.453 62.0599 608.316 63.1499 608.043 64.0699C607.776 64.9899 607.406 65.7533 606.933 66.3599C606.46 66.9666 605.903 67.4166 605.263 67.7099C604.623 68.0033 603.933 68.1499 603.193 68.1499C602.453 68.1499 601.763 68.0033 601.123 67.7099C600.483 67.4166 599.926 66.9666 599.453 66.3599C598.986 65.7533 598.62 64.9899 598.353 64.0699C598.086 63.1499 597.953 62.0599 597.953 60.7999C597.953 59.5399 598.086 58.4499 598.353 57.5299C598.62 56.6033 598.986 55.8399 599.453 55.2399C599.926 54.6333 600.483 54.1833 601.123 53.8899C601.763 53.5899 602.453 53.4399 603.193 53.4399C603.933 53.4399 604.623 53.5899 605.263 53.8899C605.903 54.1833 606.46 54.6333 606.933 55.2399C607.406 55.8399 607.776 56.6033 608.043 57.5299C608.316 58.4499 608.453 59.5399 608.453 60.7999ZM606.233 60.7999C606.233 59.7333 606.146 58.8466 605.973 58.1399C605.806 57.4266 605.583 56.8566 605.303 56.4299C605.023 56.0033 604.7 55.6999 604.333 55.5199C603.966 55.3399 603.586 55.2499 603.193 55.2499C602.793 55.2499 602.41 55.3399 602.043 55.5199C601.683 55.6999 601.363 56.0033 601.083 56.4299C600.803 56.8566 600.58 57.4266 600.413 58.1399C600.246 58.8466 600.163 59.7333 600.163 60.7999C600.163 61.8666 600.246 62.7566 600.413 63.4699C600.58 64.1766 600.803 64.7433 601.083 65.1699C601.363 65.5966 601.683 65.8999 602.043 66.0799C602.41 66.2599 602.793 66.3499 603.193 66.3499C603.586 66.3499 603.966 66.2599 604.333 66.0799C604.7 65.8999 605.023 65.5966 605.303 65.1699C605.583 64.7433 605.806 64.1766 605.973 63.4699C606.146 62.7566 606.233 61.8666 606.233 60.7999Z" fill="black"/>
<path d="M625 40V80H627V40H625Z" fill="black" mask="url(#path-50-inside-17_83_79)"/>
<path d="M652.27 66.3699V67.9999H644.42V66.3699H647.42V57.3499C647.42 57.0299 647.43 56.7033 647.45 56.3699L645.14 58.3199C645.04 58.3999 644.937 58.4533 644.83 58.4799C644.73 58.4999 644.633 58.4999 644.54 58.4799C644.453 58.4599 644.373 58.4299 644.3 58.3899C644.233 58.3433 644.18 58.2933 644.14 58.2399L643.47 57.2999L647.81 53.5699H649.56V66.3699H652.27Z" fill="black"/>
<path d="M663.972 66.3699V67.9999H656.122V66.3699H659.122V57.3499C659.122 57.0299 659.132 56.7033 659.152 56.3699L656.842 58.3199C656.742 58.3999 656.638 58.4533 656.532 58.4799C656.432 58.4999 656.335 58.4999 656.242 58.4799C656.155 58.4599 656.075 58.4299 656.002 58.3899C655.935 58.3433 655.882 58.2933 655.842 58.2399L655.172 57.2999L659.512 53.5699H661.262V66.3699H663.972Z" fill="black"/>
<path d="M675.673 66.3699V67.9999H667.823V66.3699H670.823V57.3499C670.823 57.0299 670.833 56.7033 670.853 56.3699L668.543 58.3199C668.443 58.3999 668.34 58.4533 668.233 58.4799C668.133 58.4999 668.036 58.4999 667.943 58.4799C667.856 58.4599 667.776 58.4299 667.703 58.3899C667.636 58.3433 667.583 58.2933 667.543 58.2399L666.873 57.2999L671.213 53.5699H672.963V66.3699H675.673Z" fill="black"/>
<path d="M694 80V81H695V80H694ZM150 80H149V81H150V80ZM693 40V80H695V40H693ZM694 79H150V81H694V79ZM151 80V40H149V80H151Z" fill="black" mask="url(#path-30-inside-10_83_79)"/>
</g>
<defs>
<filter id="filter0_d_83_79" x="0" y="0" width="698" height="88" filterUnits="userSpaceOnUse" color-interpolation-filters="sRGB">
<feFlood flood-opacity="0" result="BackgroundImageFix"/>
<feColorMatrix in="SourceAlpha" type="matrix" values="0 0 0 0 0 0 0 0 0 0 0 0 0 0 0 0 0 0 127 0" result="hardAlpha"/>
<feOffset dy="4"/>
<feGaussianBlur stdDeviation="2"/>
<feComposite in2="hardAlpha" operator="out"/>
<feColorMatrix type="matrix" values="0 0 0 0 0 0 0 0 0 0 0 0 0 0 0 0 0 0 0.25 0"/>
<feBlend mode="normal" in2="BackgroundImageFix" result="effect1_dropShadow_83_79"/>
<feBlend mode="normal" in="SourceGraphic" in2="effect1_dropShadow_83_79" result="shape"/>
</filter>
</defs>
</svg>
