<svg width="710" height="25" viewBox="0 0 710 25" fill="none" xmlns="http://www.w3.org/2000/svg">
<path d="M4.172 5.216V10.028H10.244V12.512H4.172V17.42H11.876V20H0.932V2.648H11.876V5.216H4.172ZM25.3807 20H22.5247C22.3087 20 22.1327 19.944 21.9967 19.832C21.8687 19.72 21.7607 19.592 21.6727 19.448L19.0687 15.164C19.0287 15.3 18.9807 15.428 18.9247 15.548C18.8767 15.668 18.8207 15.78 18.7567 15.884L16.4527 19.448C16.3647 19.584 16.2567 19.712 16.1287 19.832C16.0007 19.944 15.8407 20 15.6487 20H12.9967L17.2207 13.652L13.1647 7.688H16.0207C16.2367 7.688 16.3967 7.72 16.5007 7.784C16.6047 7.84 16.6967 7.936 16.7767 8.072L19.3567 12.176C19.4447 11.904 19.5687 11.636 19.7287 11.372L21.8047 8.132C21.9807 7.836 22.2087 7.688 22.4887 7.688H25.2127L21.1687 13.52L25.3807 20ZM33.5518 14.744C32.6958 14.784 31.9758 14.86 31.3918 14.972C30.8077 15.076 30.3397 15.212 29.9877 15.38C29.6357 15.548 29.3837 15.744 29.2318 15.968C29.0798 16.192 29.0038 16.436 29.0038 16.7C29.0038 17.22 29.1558 17.592 29.4597 17.816C29.7717 18.04 30.1758 18.152 30.6718 18.152C31.2797 18.152 31.8037 18.044 32.2437 17.828C32.6917 17.604 33.1277 17.268 33.5518 16.82V14.744ZM26.7597 9.404C28.1757 8.108 29.8798 7.46 31.8718 7.46C32.5918 7.46 33.2358 7.58 33.8038 7.82C34.3718 8.052 34.8518 8.38 35.2438 8.804C35.6358 9.22 35.9318 9.72 36.1318 10.304C36.3398 10.888 36.4438 11.528 36.4438 12.224V20H35.0998C34.8198 20 34.6037 19.96 34.4518 19.88C34.2998 19.792 34.1798 19.62 34.0918 19.364L33.8278 18.476C33.5157 18.756 33.2117 19.004 32.9157 19.22C32.6197 19.428 32.3117 19.604 31.9918 19.748C31.6718 19.892 31.3277 20 30.9597 20.072C30.5998 20.152 30.1998 20.192 29.7598 20.192C29.2398 20.192 28.7598 20.124 28.3197 19.988C27.8797 19.844 27.4997 19.632 27.1797 19.352C26.8597 19.072 26.6117 18.724 26.4357 18.308C26.2597 17.892 26.1717 17.408 26.1717 16.856C26.1717 16.544 26.2237 16.236 26.3277 15.932C26.4317 15.62 26.5997 15.324 26.8317 15.044C27.0717 14.764 27.3797 14.5 27.7557 14.252C28.1317 14.004 28.5917 13.788 29.1357 13.604C29.6877 13.42 30.3277 13.272 31.0558 13.16C31.7838 13.04 32.6158 12.968 33.5518 12.944V12.224C33.5518 11.4 33.3758 10.792 33.0237 10.4C32.6718 10 32.1638 9.8 31.4998 9.8C31.0198 9.8 30.6198 9.856 30.2997 9.968C29.9877 10.08 29.7117 10.208 29.4717 10.352C29.2317 10.488 29.0117 10.612 28.8118 10.724C28.6197 10.836 28.4037 10.892 28.1637 10.892C27.9557 10.892 27.7797 10.84 27.6357 10.736C27.4917 10.624 27.3757 10.496 27.2877 10.352L26.7597 9.404ZM39.3553 20V7.688H41.1673C41.5513 7.688 41.8033 7.868 41.9233 8.228L42.1153 9.14C42.3313 8.9 42.5553 8.68 42.7873 8.48C43.0273 8.28 43.2793 8.108 43.5433 7.964C43.8153 7.82 44.1033 7.708 44.4073 7.628C44.7193 7.54 45.0593 7.496 45.4273 7.496C46.2033 7.496 46.8393 7.708 47.3353 8.132C47.8393 8.548 48.2153 9.104 48.4633 9.8C48.6553 9.392 48.8953 9.044 49.1833 8.756C49.4713 8.46 49.7873 8.22 50.1313 8.036C50.4753 7.852 50.8393 7.716 51.2233 7.628C51.6153 7.54 52.0073 7.496 52.3993 7.496C53.0793 7.496 53.6833 7.6 54.2113 7.808C54.7393 8.016 55.1833 8.32 55.5433 8.72C55.9033 9.12 56.1753 9.608 56.3593 10.184C56.5513 10.76 56.6473 11.42 56.6473 12.164V20H53.6833V12.164C53.6833 11.38 53.5113 10.792 53.1673 10.4C52.8233 10 52.3193 9.8 51.6553 9.8C51.3513 9.8 51.0673 9.852 50.8033 9.956C50.5473 10.06 50.3193 10.212 50.1193 10.412C49.9273 10.604 49.7753 10.848 49.6633 11.144C49.5513 11.44 49.4953 11.78 49.4953 12.164V20H46.5193V12.164C46.5193 11.34 46.3513 10.74 46.0153 10.364C45.6873 9.988 45.2033 9.8 44.5633 9.8C44.1313 9.8 43.7273 9.908 43.3513 10.124C42.9833 10.332 42.6393 10.62 42.3193 10.988V20H39.3553ZM62.5486 16.808C62.8846 17.216 63.2486 17.504 63.6406 17.672C64.0406 17.84 64.4726 17.924 64.9366 17.924C65.3846 17.924 65.7886 17.84 66.1486 17.672C66.5086 17.504 66.8126 17.248 67.0606 16.904C67.3166 16.56 67.5126 16.128 67.6486 15.608C67.7846 15.08 67.8526 14.46 67.8526 13.748C67.8526 13.028 67.7926 12.42 67.6726 11.924C67.5606 11.42 67.3966 11.012 67.1806 10.7C66.9646 10.388 66.7006 10.16 66.3886 10.016C66.0846 9.872 65.7366 9.8 65.3446 9.8C64.7286 9.8 64.2046 9.932 63.7726 10.196C63.3406 10.452 62.9326 10.816 62.5486 11.288V16.808ZM62.3926 9.368C62.8966 8.8 63.4686 8.34 64.1086 7.988C64.7486 7.636 65.5006 7.46 66.3646 7.46C67.0366 7.46 67.6486 7.6 68.2006 7.88C68.7606 8.16 69.2406 8.568 69.6406 9.104C70.0486 9.632 70.3606 10.288 70.5766 11.072C70.8006 11.848 70.9126 12.74 70.9126 13.748C70.9126 14.668 70.7886 15.52 70.5406 16.304C70.2926 17.088 69.9366 17.768 69.4726 18.344C69.0166 18.92 68.4606 19.372 67.8046 19.7C67.1566 20.02 66.4286 20.18 65.6206 20.18C64.9326 20.18 64.3446 20.076 63.8566 19.868C63.3686 19.652 62.9326 19.356 62.5486 18.98V24.02H59.5846V7.688H61.3966C61.7806 7.688 62.0326 7.868 62.1526 8.228L62.3926 9.368ZM76.3452 2.168V20H73.3812V2.168H76.3452ZM87.3504 12.428C87.3504 12.044 87.2944 11.684 87.1824 11.348C87.0784 11.004 86.9184 10.704 86.7024 10.448C86.4864 10.192 86.2104 9.992 85.8744 9.848C85.5464 9.696 85.1624 9.62 84.7224 9.62C83.8664 9.62 83.1904 9.864 82.6944 10.352C82.2064 10.84 81.8944 11.532 81.7584 12.428H87.3504ZM81.6984 14.216C81.7464 14.848 81.8584 15.396 82.0344 15.86C82.2104 16.316 82.4424 16.696 82.7304 17C83.0184 17.296 83.3584 17.52 83.7504 17.672C84.1504 17.816 84.5904 17.888 85.0704 17.888C85.5504 17.888 85.9624 17.832 86.3064 17.72C86.6584 17.608 86.9624 17.484 87.2184 17.348C87.4824 17.212 87.7104 17.088 87.9024 16.976C88.1024 16.864 88.2944 16.808 88.4784 16.808C88.7264 16.808 88.9104 16.9 89.0304 17.084L89.8824 18.164C89.5544 18.548 89.1864 18.872 88.7784 19.136C88.3704 19.392 87.9424 19.6 87.4944 19.76C87.0544 19.912 86.6024 20.02 86.1384 20.084C85.6824 20.148 85.2384 20.18 84.8064 20.18C83.9504 20.18 83.1544 20.04 82.4184 19.76C81.6824 19.472 81.0424 19.052 80.4984 18.5C79.9544 17.94 79.5264 17.252 79.2144 16.436C78.9024 15.612 78.7464 14.66 78.7464 13.58C78.7464 12.74 78.8824 11.952 79.1544 11.216C79.4264 10.472 79.8144 9.828 80.3184 9.284C80.8304 8.732 81.4504 8.296 82.1784 7.976C82.9144 7.656 83.7424 7.496 84.6624 7.496C85.4384 7.496 86.1544 7.62 86.8104 7.868C87.4664 8.116 88.0304 8.48 88.5024 8.96C88.9744 9.432 89.3424 10.016 89.6064 10.712C89.8784 11.4 90.0144 12.188 90.0144 13.076C90.0144 13.524 89.9664 13.828 89.8704 13.988C89.7744 14.14 89.5904 14.216 89.3184 14.216H81.6984ZM92.3947 18.68C92.3947 18.472 92.4307 18.276 92.5027 18.092C92.5827 17.908 92.6867 17.748 92.8147 17.612C92.9507 17.476 93.1107 17.368 93.2947 17.288C93.4787 17.208 93.6747 17.168 93.8827 17.168C94.0907 17.168 94.2867 17.208 94.4707 17.288C94.6547 17.368 94.8147 17.476 94.9507 17.612C95.0867 17.748 95.1947 17.908 95.2747 18.092C95.3547 18.276 95.3947 18.472 95.3947 18.68C95.3947 18.896 95.3547 19.096 95.2747 19.28C95.1947 19.456 95.0867 19.612 94.9507 19.748C94.8147 19.884 94.6547 19.988 94.4707 20.06C94.2867 20.14 94.0907 20.18 93.8827 20.18C93.6747 20.18 93.4787 20.14 93.2947 20.06C93.1107 19.988 92.9507 19.884 92.8147 19.748C92.6867 19.612 92.5827 19.456 92.5027 19.28C92.4307 19.096 92.3947 18.896 92.3947 18.68ZM92.3947 9.68C92.3947 9.472 92.4307 9.276 92.5027 9.092C92.5827 8.908 92.6867 8.748 92.8147 8.612C92.9507 8.476 93.1107 8.368 93.2947 8.288C93.4787 8.208 93.6747 8.168 93.8827 8.168C94.0907 8.168 94.2867 8.208 94.4707 8.288C94.6547 8.368 94.8147 8.476 94.9507 8.612C95.0867 8.748 95.1947 8.908 95.2747 9.092C95.3547 9.276 95.3947 9.472 95.3947 9.68C95.3947 9.896 95.3547 10.096 95.2747 10.28C95.1947 10.456 95.0867 10.612 94.9507 10.748C94.8147 10.884 94.6547 10.992 94.4707 11.072C94.2867 11.144 94.0907 11.18 93.8827 11.18C93.6747 11.18 93.4787 11.144 93.2947 11.072C93.1107 10.992 92.9507 10.884 92.8147 10.748C92.6867 10.612 92.5827 10.456 92.5027 10.28C92.4307 10.096 92.3947 9.896 92.3947 9.68ZM104.835 7.46C104.947 6.676 105.163 5.984 105.483 5.384C105.803 4.776 106.207 4.268 106.695 3.86C107.191 3.452 107.755 3.144 108.387 2.936C109.027 2.72 109.715 2.612 110.451 2.612C111.179 2.612 111.851 2.716 112.467 2.924C113.083 3.132 113.611 3.428 114.051 3.812C114.499 4.196 114.847 4.66 115.095 5.204C115.343 5.748 115.467 6.352 115.467 7.016C115.467 7.56 115.395 8.048 115.251 8.48C115.115 8.904 114.915 9.276 114.651 9.596C114.395 9.916 114.083 10.188 113.715 10.412C113.347 10.636 112.935 10.82 112.479 10.964C113.599 11.252 114.439 11.748 114.999 12.452C115.567 13.148 115.851 14.02 115.851 15.068C115.851 15.86 115.699 16.572 115.395 17.204C115.099 17.836 114.691 18.376 114.171 18.824C113.651 19.264 113.043 19.604 112.347 19.844C111.659 20.076 110.919 20.192 110.127 20.192C109.215 20.192 108.435 20.08 107.787 19.856C107.139 19.624 106.591 19.308 106.143 18.908C105.695 18.508 105.327 18.036 105.039 17.492C104.751 16.94 104.507 16.344 104.307 15.704L105.231 15.32C105.471 15.216 105.703 15.188 105.927 15.236C106.159 15.284 106.327 15.416 106.431 15.632C106.535 15.856 106.663 16.124 106.815 16.436C106.975 16.748 107.191 17.048 107.463 17.336C107.735 17.624 108.079 17.868 108.495 18.068C108.919 18.268 109.455 18.368 110.103 18.368C110.703 18.368 111.227 18.272 111.675 18.08C112.131 17.88 112.507 17.624 112.803 17.312C113.107 17 113.335 16.652 113.487 16.268C113.639 15.884 113.715 15.504 113.715 15.128C113.715 14.664 113.655 14.24 113.535 13.856C113.415 13.472 113.191 13.14 112.863 12.86C112.535 12.58 112.083 12.36 111.507 12.2C110.939 12.04 110.207 11.96 109.311 11.96V10.412C110.047 10.404 110.671 10.324 111.183 10.172C111.703 10.02 112.123 9.812 112.443 9.548C112.771 9.284 113.007 8.968 113.151 8.6C113.303 8.232 113.379 7.824 113.379 7.376C113.379 6.88 113.299 6.448 113.139 6.08C112.987 5.712 112.775 5.408 112.503 5.168C112.231 4.928 111.907 4.748 111.531 4.628C111.163 4.508 110.763 4.448 110.331 4.448C109.899 4.448 109.495 4.512 109.119 4.64C108.751 4.768 108.423 4.948 108.135 5.18C107.855 5.404 107.619 5.672 107.427 5.984C107.235 6.296 107.099 6.64 107.019 7.016C106.915 7.296 106.783 7.484 106.623 7.58C106.471 7.668 106.247 7.692 105.951 7.652L104.835 7.46ZM130.289 2.804V3.764C130.289 4.036 130.257 4.26 130.193 4.436C130.137 4.612 130.081 4.76 130.025 4.88L122.897 19.244C122.793 19.452 122.649 19.632 122.465 19.784C122.281 19.928 122.037 20 121.733 20H120.197L127.421 5.816C127.525 5.616 127.633 5.432 127.745 5.264C127.857 5.096 127.977 4.936 128.105 4.784H119.129C118.993 4.784 118.873 4.732 118.769 4.628C118.665 4.516 118.613 4.392 118.613 4.256V2.804H130.289ZM143.203 17.972C143.435 17.972 143.619 18.04 143.755 18.176C143.891 18.312 143.959 18.488 143.959 18.704V20H132.487V19.268C132.487 19.116 132.519 18.96 132.583 18.8C132.647 18.64 132.747 18.492 132.883 18.356L138.391 12.824C138.847 12.36 139.263 11.916 139.639 11.492C140.015 11.06 140.335 10.628 140.599 10.196C140.863 9.764 141.067 9.328 141.211 8.888C141.355 8.44 141.427 7.964 141.427 7.46C141.427 6.956 141.347 6.516 141.187 6.14C141.027 5.756 140.807 5.44 140.527 5.192C140.255 4.944 139.931 4.76 139.555 4.64C139.179 4.512 138.775 4.448 138.343 4.448C137.903 4.448 137.499 4.512 137.131 4.64C136.763 4.768 136.435 4.948 136.147 5.18C135.867 5.404 135.631 5.672 135.439 5.984C135.247 6.296 135.111 6.64 135.031 7.016C134.935 7.296 134.803 7.484 134.635 7.58C134.475 7.668 134.247 7.692 133.951 7.652L132.835 7.46C132.947 6.676 133.163 5.984 133.483 5.384C133.811 4.776 134.219 4.268 134.707 3.86C135.203 3.452 135.767 3.144 136.399 2.936C137.031 2.72 137.715 2.612 138.451 2.612C139.179 2.612 139.859 2.72 140.491 2.936C141.123 3.152 141.671 3.468 142.135 3.884C142.599 4.292 142.963 4.792 143.227 5.384C143.491 5.976 143.623 6.648 143.623 7.4C143.623 8.04 143.527 8.636 143.335 9.188C143.143 9.732 142.883 10.252 142.555 10.748C142.227 11.244 141.847 11.728 141.415 12.2C140.991 12.672 140.539 13.148 140.059 13.628L135.523 18.26C135.843 18.172 136.167 18.104 136.495 18.056C136.823 18 137.139 17.972 137.443 17.972H143.203ZM149.409 21.62C149.905 21.62 150.277 21.488 150.525 21.224C150.773 20.96 150.897 20.624 150.897 20.216C150.897 19.952 150.857 19.732 150.777 19.556C150.697 19.372 150.589 19.224 150.453 19.112C150.317 18.992 150.157 18.908 149.973 18.86C149.797 18.812 149.609 18.788 149.409 18.788C149.209 18.788 149.021 18.812 148.845 18.86C148.669 18.908 148.513 18.992 148.377 19.112C148.241 19.224 148.133 19.372 148.053 19.556C147.973 19.732 147.933 19.952 147.933 20.216C147.933 20.624 148.057 20.96 148.305 21.224C148.553 21.488 148.921 21.62 149.409 21.62ZM149.409 15.02C149.193 15.02 149.001 15.056 148.833 15.128C148.673 15.192 148.537 15.28 148.425 15.392C148.321 15.504 148.241 15.636 148.185 15.788C148.129 15.932 148.101 16.084 148.101 16.244C148.101 16.652 148.205 16.98 148.413 17.228C148.629 17.468 148.961 17.588 149.409 17.588C149.865 17.588 150.201 17.468 150.417 17.228C150.633 16.98 150.741 16.652 150.741 16.244C150.741 16.084 150.713 15.932 150.657 15.788C150.601 15.636 150.517 15.504 150.405 15.392C150.293 15.28 150.153 15.192 149.985 15.128C149.817 15.056 149.625 15.02 149.409 15.02ZM150.909 18.152C151.437 18.328 151.825 18.596 152.073 18.956C152.329 19.308 152.457 19.74 152.457 20.252C152.457 20.636 152.381 20.984 152.229 21.296C152.085 21.616 151.877 21.888 151.605 22.112C151.341 22.336 151.021 22.508 150.645 22.628C150.277 22.748 149.865 22.808 149.409 22.808C148.961 22.808 148.549 22.748 148.173 22.628C147.797 22.508 147.473 22.336 147.201 22.112C146.937 21.888 146.729 21.616 146.577 21.296C146.433 20.984 146.361 20.636 146.361 20.252C146.361 19.74 146.485 19.308 146.733 18.956C146.989 18.596 147.381 18.328 147.909 18.152C147.077 17.784 146.661 17.136 146.661 16.208C146.661 15.872 146.729 15.564 146.865 15.284C147.001 14.996 147.189 14.748 147.429 14.54C147.677 14.332 147.969 14.168 148.305 14.048C148.641 13.928 149.009 13.868 149.409 13.868C149.817 13.868 150.189 13.928 150.525 14.048C150.861 14.168 151.149 14.332 151.389 14.54C151.629 14.748 151.817 14.996 151.953 15.284C152.089 15.564 152.157 15.872 152.157 16.208C152.157 16.664 152.053 17.056 151.845 17.384C151.637 17.712 151.325 17.968 150.909 18.152ZM161.597 13.112H171.917V14.732H161.597V13.112ZM161.597 9.092H171.917V10.712H161.597V9.092ZM181.66 7.46C181.772 6.676 181.988 5.984 182.308 5.384C182.628 4.776 183.032 4.268 183.52 3.86C184.016 3.452 184.58 3.144 185.212 2.936C185.852 2.72 186.54 2.612 187.276 2.612C188.004 2.612 188.676 2.716 189.292 2.924C189.908 3.132 190.436 3.428 190.876 3.812C191.324 4.196 191.672 4.66 191.92 5.204C192.168 5.748 192.292 6.352 192.292 7.016C192.292 7.56 192.22 8.048 192.076 8.48C191.94 8.904 191.74 9.276 191.476 9.596C191.22 9.916 190.908 10.188 190.54 10.412C190.172 10.636 189.76 10.82 189.304 10.964C190.424 11.252 191.264 11.748 191.824 12.452C192.392 13.148 192.676 14.02 192.676 15.068C192.676 15.86 192.524 16.572 192.22 17.204C191.924 17.836 191.516 18.376 190.996 18.824C190.476 19.264 189.868 19.604 189.172 19.844C188.484 20.076 187.744 20.192 186.952 20.192C186.04 20.192 185.26 20.08 184.612 19.856C183.964 19.624 183.416 19.308 182.968 18.908C182.52 18.508 182.152 18.036 181.864 17.492C181.576 16.94 181.332 16.344 181.132 15.704L182.056 15.32C182.296 15.216 182.528 15.188 182.752 15.236C182.984 15.284 183.152 15.416 183.256 15.632C183.36 15.856 183.488 16.124 183.64 16.436C183.8 16.748 184.016 17.048 184.288 17.336C184.56 17.624 184.904 17.868 185.32 18.068C185.744 18.268 186.28 18.368 186.928 18.368C187.528 18.368 188.052 18.272 188.5 18.08C188.956 17.88 189.332 17.624 189.628 17.312C189.932 17 190.16 16.652 190.312 16.268C190.464 15.884 190.54 15.504 190.54 15.128C190.54 14.664 190.48 14.24 190.36 13.856C190.24 13.472 190.016 13.14 189.688 12.86C189.36 12.58 188.908 12.36 188.332 12.2C187.764 12.04 187.032 11.96 186.136 11.96V10.412C186.872 10.404 187.496 10.324 188.008 10.172C188.528 10.02 188.948 9.812 189.268 9.548C189.596 9.284 189.832 8.968 189.976 8.6C190.128 8.232 190.204 7.824 190.204 7.376C190.204 6.88 190.124 6.448 189.964 6.08C189.812 5.712 189.6 5.408 189.328 5.168C189.056 4.928 188.732 4.748 188.356 4.628C187.988 4.508 187.588 4.448 187.156 4.448C186.724 4.448 186.32 4.512 185.944 4.64C185.576 4.768 185.248 4.948 184.96 5.18C184.68 5.404 184.444 5.672 184.252 5.984C184.06 6.296 183.924 6.64 183.844 7.016C183.74 7.296 183.608 7.484 183.448 7.58C183.296 7.668 183.072 7.692 182.776 7.652L181.66 7.46ZM205.818 20H203.766C203.59 20 203.45 19.956 203.346 19.868C203.25 19.772 203.17 19.668 203.106 19.556L200.046 14.792C200.014 14.904 199.978 15.016 199.938 15.128C199.906 15.232 199.858 15.328 199.794 15.416L196.962 19.556C196.882 19.668 196.794 19.772 196.698 19.868C196.61 19.956 196.486 20 196.326 20H194.418L198.678 13.76L194.586 7.844H196.638C196.814 7.844 196.942 7.872 197.022 7.928C197.102 7.984 197.174 8.064 197.238 8.168L200.226 12.728C200.29 12.496 200.39 12.272 200.526 12.056L203.142 8.216C203.214 8.104 203.29 8.016 203.37 7.952C203.458 7.88 203.562 7.844 203.682 7.844H205.65L201.558 13.652L205.818 20ZM209.155 12.452C209.155 14.164 209.371 15.828 209.803 17.444C210.243 19.06 210.883 20.596 211.723 22.052C211.851 22.3 211.883 22.488 211.819 22.616C211.755 22.752 211.663 22.86 211.543 22.94L210.595 23.516C209.995 22.596 209.483 21.684 209.059 20.78C208.643 19.876 208.303 18.968 208.039 18.056C207.783 17.144 207.595 16.228 207.475 15.308C207.355 14.38 207.295 13.428 207.295 12.452C207.295 11.484 207.355 10.536 207.475 9.608C207.595 8.68 207.783 7.764 208.039 6.86C208.303 5.948 208.643 5.04 209.059 4.136C209.483 3.232 209.995 2.316 210.595 1.388L211.543 1.976C211.663 2.056 211.755 2.164 211.819 2.3C211.883 2.428 211.851 2.612 211.723 2.852C210.883 4.308 210.243 5.844 209.803 7.46C209.371 9.076 209.155 10.74 209.155 12.452ZM219.693 18.488C220.253 18.488 220.753 18.412 221.193 18.26C221.641 18.1 222.017 17.88 222.321 17.6C222.633 17.312 222.869 16.972 223.029 16.58C223.197 16.18 223.281 15.74 223.281 15.26C223.281 14.668 223.181 14.164 222.981 13.748C222.789 13.324 222.525 12.98 222.189 12.716C221.861 12.452 221.481 12.26 221.049 12.14C220.617 12.012 220.165 11.948 219.693 11.948C219.221 11.948 218.769 12.012 218.337 12.14C217.905 12.26 217.521 12.452 217.185 12.716C216.857 12.98 216.593 13.324 216.393 13.748C216.201 14.164 216.105 14.668 216.105 15.26C216.105 15.74 216.185 16.18 216.345 16.58C216.513 16.972 216.749 17.312 217.053 17.6C217.365 17.88 217.741 18.1 218.181 18.26C218.629 18.412 219.133 18.488 219.693 18.488ZM219.693 4.268C219.181 4.268 218.729 4.344 218.337 4.496C217.953 4.648 217.629 4.856 217.365 5.12C217.109 5.384 216.913 5.692 216.777 6.044C216.649 6.396 216.585 6.772 216.585 7.172C216.585 7.564 216.641 7.944 216.753 8.312C216.865 8.68 217.045 9.008 217.293 9.296C217.541 9.576 217.861 9.804 218.253 9.98C218.653 10.148 219.133 10.232 219.693 10.232C220.253 10.232 220.729 10.148 221.121 9.98C221.521 9.804 221.845 9.576 222.093 9.296C222.341 9.008 222.521 8.68 222.633 8.312C222.745 7.944 222.801 7.564 222.801 7.172C222.801 6.772 222.733 6.396 222.597 6.044C222.469 5.692 222.273 5.384 222.009 5.12C221.753 4.856 221.429 4.648 221.037 4.496C220.653 4.344 220.205 4.268 219.693 4.268ZM222.153 11.036C223.225 11.34 224.049 11.848 224.625 12.56C225.201 13.272 225.489 14.184 225.489 15.296C225.489 16.048 225.345 16.728 225.057 17.336C224.777 17.936 224.381 18.448 223.869 18.872C223.365 19.296 222.757 19.624 222.045 19.856C221.333 20.08 220.549 20.192 219.693 20.192C218.837 20.192 218.053 20.08 217.341 19.856C216.629 19.624 216.017 19.296 215.505 18.872C214.993 18.448 214.597 17.936 214.317 17.336C214.037 16.728 213.897 16.048 213.897 15.296C213.897 14.184 214.185 13.272 214.761 12.56C215.337 11.848 216.161 11.34 217.233 11.036C216.329 10.7 215.645 10.2 215.181 9.536C214.725 8.864 214.497 8.064 214.497 7.136C214.497 6.504 214.621 5.912 214.869 5.36C215.117 4.808 215.469 4.328 215.925 3.92C216.381 3.512 216.925 3.192 217.557 2.96C218.197 2.728 218.909 2.612 219.693 2.612C220.469 2.612 221.177 2.728 221.817 2.96C222.457 3.192 223.005 3.512 223.461 3.92C223.917 4.328 224.269 4.808 224.517 5.36C224.765 5.912 224.889 6.504 224.889 7.136C224.889 8.064 224.657 8.864 224.193 9.536C223.737 10.2 223.057 10.7 222.153 11.036ZM233.279 7.772C233.439 7.772 233.563 7.816 233.651 7.904C233.747 7.992 233.795 8.116 233.795 8.276V9.2H227.663V8.684C227.663 8.58 227.683 8.472 227.723 8.36C227.771 8.248 227.843 8.144 227.939 8.048L230.591 5.42C230.991 5.02 231.327 4.608 231.599 4.184C231.879 3.76 232.019 3.332 232.019 2.9C232.019 2.492 231.899 2.18 231.659 1.964C231.419 1.74 231.123 1.628 230.771 1.628C230.395 1.628 230.095 1.724 229.871 1.916C229.647 2.108 229.479 2.372 229.367 2.708C229.287 2.852 229.195 2.952 229.091 3.008C228.987 3.064 228.831 3.076 228.623 3.044L227.771 2.9C227.891 2.052 228.227 1.416 228.779 0.991999C229.331 0.567999 230.019 0.355999 230.843 0.355999C231.259 0.355999 231.635 0.415999 231.971 0.535999C232.315 0.655999 232.607 0.823999 232.847 1.04C233.087 1.256 233.271 1.52 233.399 1.832C233.535 2.136 233.603 2.476 233.603 2.852C233.603 3.172 233.551 3.472 233.447 3.752C233.351 4.024 233.219 4.284 233.051 4.532C232.883 4.78 232.691 5.02 232.475 5.252C232.259 5.484 232.031 5.72 231.791 5.96L229.835 7.94C230.027 7.892 230.215 7.852 230.399 7.82C230.591 7.788 230.771 7.772 230.939 7.772H233.279ZM238.379 12.452C238.379 10.74 238.159 9.076 237.719 7.46C237.287 5.844 236.651 4.308 235.811 2.852C235.747 2.732 235.707 2.628 235.691 2.54C235.675 2.444 235.679 2.364 235.703 2.3C235.727 2.228 235.763 2.168 235.811 2.12C235.867 2.064 235.927 2.016 235.991 1.976L236.939 1.388C237.539 2.316 238.047 3.232 238.463 4.136C238.887 5.04 239.227 5.948 239.483 6.86C239.747 7.764 239.939 8.68 240.059 9.608C240.179 10.536 240.239 11.484 240.239 12.452C240.239 13.428 240.179 14.38 240.059 15.308C239.939 16.228 239.747 17.144 239.483 18.056C239.227 18.968 238.887 19.876 238.463 20.78C238.047 21.684 237.539 22.596 236.939 23.516L235.991 22.94C235.927 22.9 235.867 22.852 235.811 22.796C235.763 22.748 235.727 22.688 235.703 22.616C235.679 22.552 235.675 22.472 235.691 22.376C235.707 22.28 235.747 22.172 235.811 22.052C236.651 20.596 237.287 19.06 237.719 17.444C238.159 15.828 238.379 14.164 238.379 12.452ZM260.41 12.752H255.514V17.912H253.774V12.752H248.902V11.132H253.774V6.008H255.514V11.132H260.41V12.752ZM280.964 2.804V3.764C280.964 4.036 280.932 4.26 280.868 4.436C280.812 4.612 280.756 4.76 280.7 4.88L273.572 19.244C273.468 19.452 273.324 19.632 273.14 19.784C272.956 19.928 272.712 20 272.408 20H270.872L278.096 5.816C278.2 5.616 278.308 5.432 278.42 5.264C278.532 5.096 278.652 4.936 278.78 4.784H269.804C269.668 4.784 269.548 4.732 269.444 4.628C269.34 4.516 269.288 4.392 269.288 4.256V2.804H280.964ZM293.71 20H291.658C291.482 20 291.342 19.956 291.238 19.868C291.142 19.772 291.062 19.668 290.998 19.556L287.938 14.792C287.906 14.904 287.87 15.016 287.83 15.128C287.798 15.232 287.75 15.328 287.686 15.416L284.854 19.556C284.774 19.668 284.686 19.772 284.59 19.868C284.502 19.956 284.378 20 284.218 20H282.31L286.57 13.76L282.478 7.844H284.53C284.706 7.844 284.834 7.872 284.914 7.928C284.994 7.984 285.066 8.064 285.13 8.168L288.118 12.728C288.182 12.496 288.282 12.272 288.418 12.056L291.034 8.216C291.106 8.104 291.182 8.016 291.262 7.952C291.35 7.88 291.454 7.844 291.574 7.844H293.542L289.45 13.652L293.71 20ZM297.047 12.452C297.047 14.164 297.263 15.828 297.695 17.444C298.135 19.06 298.775 20.596 299.615 22.052C299.743 22.3 299.775 22.488 299.711 22.616C299.647 22.752 299.555 22.86 299.435 22.94L298.487 23.516C297.887 22.596 297.375 21.684 296.951 20.78C296.535 19.876 296.195 18.968 295.931 18.056C295.675 17.144 295.487 16.228 295.367 15.308C295.247 14.38 295.187 13.428 295.187 12.452C295.187 11.484 295.247 10.536 295.367 9.608C295.487 8.68 295.675 7.764 295.931 6.86C296.195 5.948 296.535 5.04 296.951 4.136C297.375 3.232 297.887 2.316 298.487 1.388L299.435 1.976C299.555 2.056 299.647 2.164 299.711 2.3C299.775 2.428 299.743 2.612 299.615 2.852C298.775 4.308 298.135 5.844 297.695 7.46C297.263 9.076 297.047 10.74 297.047 12.452ZM307.586 18.488C308.146 18.488 308.646 18.412 309.086 18.26C309.534 18.1 309.91 17.88 310.214 17.6C310.526 17.312 310.762 16.972 310.922 16.58C311.09 16.18 311.174 15.74 311.174 15.26C311.174 14.668 311.074 14.164 310.874 13.748C310.682 13.324 310.418 12.98 310.082 12.716C309.754 12.452 309.374 12.26 308.942 12.14C308.51 12.012 308.058 11.948 307.586 11.948C307.114 11.948 306.662 12.012 306.23 12.14C305.798 12.26 305.414 12.452 305.078 12.716C304.75 12.98 304.486 13.324 304.286 13.748C304.094 14.164 303.998 14.668 303.998 15.26C303.998 15.74 304.078 16.18 304.238 16.58C304.406 16.972 304.642 17.312 304.946 17.6C305.258 17.88 305.634 18.1 306.074 18.26C306.522 18.412 307.026 18.488 307.586 18.488ZM307.586 4.268C307.074 4.268 306.622 4.344 306.23 4.496C305.846 4.648 305.522 4.856 305.258 5.12C305.002 5.384 304.806 5.692 304.67 6.044C304.542 6.396 304.478 6.772 304.478 7.172C304.478 7.564 304.534 7.944 304.646 8.312C304.758 8.68 304.938 9.008 305.186 9.296C305.434 9.576 305.754 9.804 306.146 9.98C306.546 10.148 307.026 10.232 307.586 10.232C308.146 10.232 308.622 10.148 309.014 9.98C309.414 9.804 309.738 9.576 309.986 9.296C310.234 9.008 310.414 8.68 310.526 8.312C310.638 7.944 310.694 7.564 310.694 7.172C310.694 6.772 310.626 6.396 310.49 6.044C310.362 5.692 310.166 5.384 309.902 5.12C309.646 4.856 309.322 4.648 308.93 4.496C308.546 4.344 308.098 4.268 307.586 4.268ZM310.046 11.036C311.118 11.34 311.942 11.848 312.518 12.56C313.094 13.272 313.382 14.184 313.382 15.296C313.382 16.048 313.238 16.728 312.95 17.336C312.67 17.936 312.274 18.448 311.762 18.872C311.258 19.296 310.65 19.624 309.938 19.856C309.226 20.08 308.442 20.192 307.586 20.192C306.73 20.192 305.946 20.08 305.234 19.856C304.522 19.624 303.91 19.296 303.398 18.872C302.886 18.448 302.49 17.936 302.21 17.336C301.93 16.728 301.79 16.048 301.79 15.296C301.79 14.184 302.078 13.272 302.654 12.56C303.23 11.848 304.054 11.34 305.126 11.036C304.222 10.7 303.538 10.2 303.074 9.536C302.618 8.864 302.39 8.064 302.39 7.136C302.39 6.504 302.514 5.912 302.762 5.36C303.01 4.808 303.362 4.328 303.818 3.92C304.274 3.512 304.818 3.192 305.45 2.96C306.09 2.728 306.802 2.612 307.586 2.612C308.362 2.612 309.07 2.728 309.71 2.96C310.35 3.192 310.898 3.512 311.354 3.92C311.81 4.328 312.162 4.808 312.41 5.36C312.658 5.912 312.782 6.504 312.782 7.136C312.782 8.064 312.55 8.864 312.086 9.536C311.63 10.2 310.95 10.7 310.046 11.036ZM321.448 8.18V9.2H316.564V8.18H318.328V2.9L318.388 2.372L317.092 3.44C317.02 3.496 316.948 3.532 316.876 3.548C316.812 3.556 316.748 3.556 316.684 3.548C316.62 3.532 316.56 3.508 316.504 3.476C316.456 3.444 316.42 3.412 316.396 3.38L315.928 2.708L318.592 0.427999H319.888V8.18H321.448ZM326.271 12.452C326.271 10.74 326.051 9.076 325.611 7.46C325.179 5.844 324.543 4.308 323.703 2.852C323.639 2.732 323.599 2.628 323.583 2.54C323.567 2.444 323.571 2.364 323.595 2.3C323.619 2.228 323.655 2.168 323.703 2.12C323.759 2.064 323.819 2.016 323.883 1.976L324.831 1.388C325.431 2.316 325.939 3.232 326.355 4.136C326.779 5.04 327.119 5.948 327.375 6.86C327.639 7.764 327.831 8.68 327.951 9.608C328.071 10.536 328.131 11.484 328.131 12.452C328.131 13.428 328.071 14.38 327.951 15.308C327.831 16.228 327.639 17.144 327.375 18.056C327.119 18.968 326.779 19.876 326.355 20.78C325.939 21.684 325.431 22.596 324.831 23.516L323.883 22.94C323.819 22.9 323.759 22.852 323.703 22.796C323.655 22.748 323.619 22.688 323.595 22.616C323.571 22.552 323.567 22.472 323.583 22.376C323.599 22.28 323.639 22.172 323.703 22.052C324.543 20.596 325.179 19.06 325.611 17.444C326.051 15.828 326.271 14.164 326.271 12.452ZM348.302 12.752H343.406V17.912H341.666V12.752H336.794V11.132H341.666V6.008H343.406V11.132H348.302V12.752ZM367.729 17.972C367.961 17.972 368.145 18.04 368.281 18.176C368.417 18.312 368.485 18.488 368.485 18.704V20H357.013V19.268C357.013 19.116 357.045 18.96 357.109 18.8C357.173 18.64 357.273 18.492 357.409 18.356L362.917 12.824C363.373 12.36 363.789 11.916 364.165 11.492C364.541 11.06 364.861 10.628 365.125 10.196C365.389 9.764 365.593 9.328 365.737 8.888C365.881 8.44 365.953 7.964 365.953 7.46C365.953 6.956 365.873 6.516 365.713 6.14C365.553 5.756 365.333 5.44 365.053 5.192C364.781 4.944 364.457 4.76 364.081 4.64C363.705 4.512 363.301 4.448 362.869 4.448C362.429 4.448 362.025 4.512 361.657 4.64C361.289 4.768 360.961 4.948 360.673 5.18C360.393 5.404 360.157 5.672 359.965 5.984C359.773 6.296 359.637 6.64 359.557 7.016C359.461 7.296 359.329 7.484 359.161 7.58C359.001 7.668 358.773 7.692 358.477 7.652L357.361 7.46C357.473 6.676 357.689 5.984 358.009 5.384C358.337 4.776 358.745 4.268 359.233 3.86C359.729 3.452 360.293 3.144 360.925 2.936C361.557 2.72 362.241 2.612 362.977 2.612C363.705 2.612 364.385 2.72 365.017 2.936C365.649 3.152 366.197 3.468 366.661 3.884C367.125 4.292 367.489 4.792 367.753 5.384C368.017 5.976 368.149 6.648 368.149 7.4C368.149 8.04 368.053 8.636 367.861 9.188C367.669 9.732 367.409 10.252 367.081 10.748C366.753 11.244 366.373 11.728 365.941 12.2C365.517 12.672 365.065 13.148 364.585 13.628L360.049 18.26C360.369 18.172 360.693 18.104 361.021 18.056C361.349 18 361.665 17.972 361.969 17.972H367.729ZM381.603 20H379.551C379.375 20 379.235 19.956 379.131 19.868C379.035 19.772 378.955 19.668 378.891 19.556L375.831 14.792C375.799 14.904 375.763 15.016 375.723 15.128C375.691 15.232 375.643 15.328 375.579 15.416L372.747 19.556C372.667 19.668 372.579 19.772 372.483 19.868C372.395 19.956 372.271 20 372.111 20H370.203L374.463 13.76L370.371 7.844H372.423C372.599 7.844 372.727 7.872 372.807 7.928C372.887 7.984 372.959 8.064 373.023 8.168L376.011 12.728C376.075 12.496 376.175 12.272 376.311 12.056L378.927 8.216C378.999 8.104 379.075 8.016 379.155 7.952C379.243 7.88 379.347 7.844 379.467 7.844H381.435L377.343 13.652L381.603 20ZM384.94 12.452C384.94 14.164 385.156 15.828 385.588 17.444C386.028 19.06 386.668 20.596 387.508 22.052C387.636 22.3 387.668 22.488 387.604 22.616C387.54 22.752 387.448 22.86 387.328 22.94L386.38 23.516C385.78 22.596 385.268 21.684 384.844 20.78C384.428 19.876 384.088 18.968 383.824 18.056C383.568 17.144 383.38 16.228 383.26 15.308C383.14 14.38 383.08 13.428 383.08 12.452C383.08 11.484 383.14 10.536 383.26 9.608C383.38 8.68 383.568 7.764 383.824 6.86C384.088 5.948 384.428 5.04 384.844 4.136C385.268 3.232 385.78 2.316 386.38 1.388L387.328 1.976C387.448 2.056 387.54 2.164 387.604 2.3C387.668 2.428 387.636 2.612 387.508 2.852C386.668 4.308 386.028 5.844 385.588 7.46C385.156 9.076 384.94 10.74 384.94 12.452ZM395.478 18.488C396.038 18.488 396.538 18.412 396.978 18.26C397.426 18.1 397.802 17.88 398.106 17.6C398.418 17.312 398.654 16.972 398.814 16.58C398.982 16.18 399.066 15.74 399.066 15.26C399.066 14.668 398.966 14.164 398.766 13.748C398.574 13.324 398.31 12.98 397.974 12.716C397.646 12.452 397.266 12.26 396.834 12.14C396.402 12.012 395.95 11.948 395.478 11.948C395.006 11.948 394.554 12.012 394.122 12.14C393.69 12.26 393.306 12.452 392.97 12.716C392.642 12.98 392.378 13.324 392.178 13.748C391.986 14.164 391.89 14.668 391.89 15.26C391.89 15.74 391.97 16.18 392.13 16.58C392.298 16.972 392.534 17.312 392.838 17.6C393.15 17.88 393.526 18.1 393.966 18.26C394.414 18.412 394.918 18.488 395.478 18.488ZM395.478 4.268C394.966 4.268 394.514 4.344 394.122 4.496C393.738 4.648 393.414 4.856 393.15 5.12C392.894 5.384 392.698 5.692 392.562 6.044C392.434 6.396 392.37 6.772 392.37 7.172C392.37 7.564 392.426 7.944 392.538 8.312C392.65 8.68 392.83 9.008 393.078 9.296C393.326 9.576 393.646 9.804 394.038 9.98C394.438 10.148 394.918 10.232 395.478 10.232C396.038 10.232 396.514 10.148 396.906 9.98C397.306 9.804 397.63 9.576 397.878 9.296C398.126 9.008 398.306 8.68 398.418 8.312C398.53 7.944 398.586 7.564 398.586 7.172C398.586 6.772 398.518 6.396 398.382 6.044C398.254 5.692 398.058 5.384 397.794 5.12C397.538 4.856 397.214 4.648 396.822 4.496C396.438 4.344 395.99 4.268 395.478 4.268ZM397.938 11.036C399.01 11.34 399.834 11.848 400.41 12.56C400.986 13.272 401.274 14.184 401.274 15.296C401.274 16.048 401.13 16.728 400.842 17.336C400.562 17.936 400.166 18.448 399.654 18.872C399.15 19.296 398.542 19.624 397.83 19.856C397.118 20.08 396.334 20.192 395.478 20.192C394.622 20.192 393.838 20.08 393.126 19.856C392.414 19.624 391.802 19.296 391.29 18.872C390.778 18.448 390.382 17.936 390.102 17.336C389.822 16.728 389.682 16.048 389.682 15.296C389.682 14.184 389.97 13.272 390.546 12.56C391.122 11.848 391.946 11.34 393.018 11.036C392.114 10.7 391.43 10.2 390.966 9.536C390.51 8.864 390.282 8.064 390.282 7.136C390.282 6.504 390.406 5.912 390.654 5.36C390.902 4.808 391.254 4.328 391.71 3.92C392.166 3.512 392.71 3.192 393.342 2.96C393.982 2.728 394.694 2.612 395.478 2.612C396.254 2.612 396.962 2.728 397.602 2.96C398.242 3.192 398.79 3.512 399.246 3.92C399.702 4.328 400.054 4.808 400.302 5.36C400.55 5.912 400.674 6.504 400.674 7.136C400.674 8.064 400.442 8.864 399.978 9.536C399.522 10.2 398.842 10.7 397.938 11.036ZM409.844 4.832C409.844 5.6 409.756 6.264 409.58 6.824C409.412 7.384 409.18 7.848 408.884 8.216C408.588 8.576 408.236 8.848 407.828 9.032C407.428 9.208 407 9.296 406.544 9.296C406.088 9.296 405.66 9.208 405.26 9.032C404.868 8.848 404.524 8.576 404.228 8.216C403.94 7.848 403.712 7.384 403.544 6.824C403.376 6.264 403.292 5.6 403.292 4.832C403.292 4.064 403.376 3.4 403.544 2.84C403.712 2.272 403.94 1.808 404.228 1.448C404.524 1.08 404.868 0.807999 405.26 0.631999C405.66 0.447999 406.088 0.355999 406.544 0.355999C407 0.355999 407.428 0.447999 407.828 0.631999C408.236 0.807999 408.588 1.08 408.884 1.448C409.18 1.808 409.412 2.272 409.58 2.84C409.756 3.4 409.844 4.064 409.844 4.832ZM408.272 4.832C408.272 4.2 408.228 3.68 408.14 3.272C408.052 2.856 407.928 2.528 407.768 2.288C407.616 2.04 407.436 1.868 407.228 1.772C407.02 1.676 406.792 1.628 406.544 1.628C406.296 1.628 406.068 1.676 405.86 1.772C405.652 1.868 405.472 2.04 405.32 2.288C405.176 2.528 405.06 2.856 404.972 3.272C404.892 3.68 404.852 4.2 404.852 4.832C404.852 5.456 404.896 5.976 404.984 6.392C405.08 6.8 405.204 7.128 405.356 7.376C405.508 7.616 405.684 7.784 405.884 7.88C406.092 7.976 406.312 8.024 406.544 8.024C406.776 8.024 406.996 7.976 407.204 7.88C407.42 7.784 407.604 7.616 407.756 7.376C407.916 7.128 408.04 6.8 408.128 6.392C408.224 5.976 408.272 5.456 408.272 4.832ZM414.164 12.452C414.164 10.74 413.944 9.076 413.504 7.46C413.072 5.844 412.436 4.308 411.596 2.852C411.532 2.732 411.492 2.628 411.476 2.54C411.46 2.444 411.464 2.364 411.488 2.3C411.512 2.228 411.548 2.168 411.596 2.12C411.652 2.064 411.712 2.016 411.776 1.976L412.724 1.388C413.324 2.316 413.832 3.232 414.248 4.136C414.672 5.04 415.012 5.948 415.268 6.86C415.532 7.764 415.724 8.68 415.844 9.608C415.964 10.536 416.024 11.484 416.024 12.452C416.024 13.428 415.964 14.38 415.844 15.308C415.724 16.228 415.532 17.144 415.268 18.056C415.012 18.968 414.672 19.876 414.248 20.78C413.832 21.684 413.324 22.596 412.724 23.516L411.776 22.94C411.712 22.9 411.652 22.852 411.596 22.796C411.548 22.748 411.512 22.688 411.488 22.616C411.464 22.552 411.46 22.472 411.476 22.376C411.492 22.28 411.532 22.172 411.596 22.052C412.436 20.596 413.072 19.06 413.504 17.444C413.944 15.828 414.164 14.164 414.164 12.452ZM425.275 13.112H435.595V14.732H425.275V13.112ZM425.275 9.092H435.595V10.712H425.275V9.092ZM445.337 7.46C445.449 6.676 445.665 5.984 445.985 5.384C446.305 4.776 446.709 4.268 447.197 3.86C447.693 3.452 448.257 3.144 448.889 2.936C449.529 2.72 450.217 2.612 450.953 2.612C451.681 2.612 452.353 2.716 452.969 2.924C453.585 3.132 454.113 3.428 454.553 3.812C455.001 4.196 455.349 4.66 455.597 5.204C455.845 5.748 455.969 6.352 455.969 7.016C455.969 7.56 455.897 8.048 455.753 8.48C455.617 8.904 455.417 9.276 455.153 9.596C454.897 9.916 454.585 10.188 454.217 10.412C453.849 10.636 453.437 10.82 452.981 10.964C454.101 11.252 454.941 11.748 455.501 12.452C456.069 13.148 456.353 14.02 456.353 15.068C456.353 15.86 456.201 16.572 455.897 17.204C455.601 17.836 455.193 18.376 454.673 18.824C454.153 19.264 453.545 19.604 452.849 19.844C452.161 20.076 451.421 20.192 450.629 20.192C449.717 20.192 448.937 20.08 448.289 19.856C447.641 19.624 447.093 19.308 446.645 18.908C446.197 18.508 445.829 18.036 445.541 17.492C445.253 16.94 445.009 16.344 444.809 15.704L445.733 15.32C445.973 15.216 446.205 15.188 446.429 15.236C446.661 15.284 446.829 15.416 446.933 15.632C447.037 15.856 447.165 16.124 447.317 16.436C447.477 16.748 447.693 17.048 447.965 17.336C448.237 17.624 448.581 17.868 448.997 18.068C449.421 18.268 449.957 18.368 450.605 18.368C451.205 18.368 451.729 18.272 452.177 18.08C452.633 17.88 453.009 17.624 453.305 17.312C453.609 17 453.837 16.652 453.989 16.268C454.141 15.884 454.217 15.504 454.217 15.128C454.217 14.664 454.157 14.24 454.037 13.856C453.917 13.472 453.693 13.14 453.365 12.86C453.037 12.58 452.585 12.36 452.009 12.2C451.441 12.04 450.709 11.96 449.813 11.96V10.412C450.549 10.404 451.173 10.324 451.685 10.172C452.205 10.02 452.625 9.812 452.945 9.548C453.273 9.284 453.509 8.968 453.653 8.6C453.805 8.232 453.881 7.824 453.881 7.376C453.881 6.88 453.801 6.448 453.641 6.08C453.489 5.712 453.277 5.408 453.005 5.168C452.733 4.928 452.409 4.748 452.033 4.628C451.665 4.508 451.265 4.448 450.833 4.448C450.401 4.448 449.997 4.512 449.621 4.64C449.253 4.768 448.925 4.948 448.637 5.18C448.357 5.404 448.121 5.672 447.929 5.984C447.737 6.296 447.601 6.64 447.521 7.016C447.417 7.296 447.285 7.484 447.125 7.58C446.973 7.668 446.749 7.692 446.453 7.652L445.337 7.46ZM469.495 20H467.443C467.267 20 467.127 19.956 467.023 19.868C466.927 19.772 466.847 19.668 466.783 19.556L463.723 14.792C463.691 14.904 463.655 15.016 463.615 15.128C463.583 15.232 463.535 15.328 463.471 15.416L460.639 19.556C460.559 19.668 460.471 19.772 460.375 19.868C460.287 19.956 460.163 20 460.003 20H458.095L462.355 13.76L458.263 7.844H460.315C460.491 7.844 460.619 7.872 460.699 7.928C460.779 7.984 460.851 8.064 460.915 8.168L463.903 12.728C463.967 12.496 464.067 12.272 464.203 12.056L466.819 8.216C466.891 8.104 466.967 8.016 467.047 7.952C467.135 7.88 467.239 7.844 467.359 7.844H469.327L465.235 13.652L469.495 20ZM476.828 18.416C477.404 18.416 477.924 18.324 478.388 18.14C478.86 17.956 479.26 17.7 479.588 17.372C479.924 17.044 480.18 16.656 480.356 16.208C480.54 15.76 480.632 15.272 480.632 14.744C480.632 14.184 480.544 13.68 480.368 13.232C480.192 12.776 479.94 12.392 479.612 12.08C479.292 11.76 478.908 11.516 478.46 11.348C478.012 11.18 477.52 11.096 476.984 11.096C476.408 11.096 475.888 11.196 475.424 11.396C474.96 11.588 474.564 11.852 474.236 12.188C473.916 12.516 473.668 12.9 473.492 13.34C473.324 13.772 473.24 14.224 473.24 14.696C473.24 15.248 473.32 15.752 473.48 16.208C473.64 16.664 473.872 17.056 474.176 17.384C474.488 17.712 474.864 17.968 475.304 18.152C475.752 18.328 476.26 18.416 476.828 18.416ZM475.58 9.248C475.428 9.44 475.28 9.628 475.136 9.812C475 9.988 474.868 10.164 474.74 10.34C475.148 10.06 475.596 9.844 476.084 9.692C476.572 9.54 477.104 9.464 477.68 9.464C478.376 9.464 479.032 9.58 479.648 9.812C480.264 10.036 480.8 10.368 481.256 10.808C481.72 11.24 482.088 11.776 482.36 12.416C482.632 13.048 482.768 13.772 482.768 14.588C482.768 15.38 482.624 16.116 482.336 16.796C482.048 17.476 481.644 18.068 481.124 18.572C480.612 19.076 479.992 19.472 479.264 19.76C478.544 20.048 477.748 20.192 476.876 20.192C476.012 20.192 475.228 20.056 474.524 19.784C473.82 19.504 473.22 19.112 472.724 18.608C472.236 18.096 471.856 17.48 471.584 16.76C471.32 16.032 471.188 15.22 471.188 14.324C471.188 13.572 471.352 12.772 471.68 11.924C472.016 11.068 472.548 10.156 473.276 9.188L477.644 3.32C477.756 3.176 477.908 3.056 478.1 2.96C478.3 2.856 478.528 2.804 478.784 2.804H480.68L475.58 9.248ZM492.694 13.796V6.704C492.694 6.496 492.702 6.268 492.718 6.02C492.734 5.772 492.758 5.52 492.79 5.264L486.526 13.796H492.694ZM497.17 13.796V15.02C497.17 15.148 497.13 15.256 497.05 15.344C496.978 15.432 496.862 15.476 496.702 15.476H494.566V20H492.694V15.476H485.062C484.902 15.476 484.762 15.432 484.642 15.344C484.53 15.248 484.458 15.132 484.426 14.996L484.21 13.904L492.574 2.804H494.566V13.796H497.17ZM516.957 12.752H512.061V17.912H510.321V12.752H505.449V11.132H510.321V6.008H512.061V11.132H516.957V12.752ZM531.25 2.804V3.764C531.25 4.036 531.218 4.26 531.154 4.436C531.098 4.612 531.042 4.76 530.986 4.88L523.858 19.244C523.754 19.452 523.61 19.632 523.426 19.784C523.242 19.928 522.998 20 522.694 20H521.158L528.382 5.816C528.486 5.616 528.594 5.432 528.706 5.264C528.818 5.096 528.938 4.936 529.066 4.784H520.09C519.954 4.784 519.834 4.732 519.73 4.628C519.626 4.516 519.574 4.392 519.574 4.256V2.804H531.25ZM543.996 20H541.944C541.768 20 541.628 19.956 541.524 19.868C541.428 19.772 541.348 19.668 541.284 19.556L538.224 14.792C538.192 14.904 538.156 15.016 538.116 15.128C538.084 15.232 538.036 15.328 537.972 15.416L535.14 19.556C535.06 19.668 534.972 19.772 534.876 19.868C534.788 19.956 534.664 20 534.504 20H532.596L536.856 13.76L532.764 7.844H534.816C534.992 7.844 535.12 7.872 535.2 7.928C535.28 7.984 535.352 8.064 535.416 8.168L538.404 12.728C538.468 12.496 538.568 12.272 538.704 12.056L541.32 8.216C541.392 8.104 541.468 8.016 541.548 7.952C541.636 7.88 541.74 7.844 541.86 7.844H543.828L539.736 13.652L543.996 20ZM551.353 18.488C551.913 18.488 552.413 18.412 552.853 18.26C553.301 18.1 553.677 17.88 553.981 17.6C554.293 17.312 554.529 16.972 554.689 16.58C554.857 16.18 554.941 15.74 554.941 15.26C554.941 14.668 554.841 14.164 554.641 13.748C554.449 13.324 554.185 12.98 553.849 12.716C553.521 12.452 553.141 12.26 552.709 12.14C552.277 12.012 551.825 11.948 551.353 11.948C550.881 11.948 550.429 12.012 549.997 12.14C549.565 12.26 549.181 12.452 548.845 12.716C548.517 12.98 548.253 13.324 548.053 13.748C547.861 14.164 547.765 14.668 547.765 15.26C547.765 15.74 547.845 16.18 548.005 16.58C548.173 16.972 548.409 17.312 548.713 17.6C549.025 17.88 549.401 18.1 549.841 18.26C550.289 18.412 550.793 18.488 551.353 18.488ZM551.353 4.268C550.841 4.268 550.389 4.344 549.997 4.496C549.613 4.648 549.289 4.856 549.025 5.12C548.769 5.384 548.573 5.692 548.437 6.044C548.309 6.396 548.245 6.772 548.245 7.172C548.245 7.564 548.301 7.944 548.413 8.312C548.525 8.68 548.705 9.008 548.953 9.296C549.201 9.576 549.521 9.804 549.913 9.98C550.313 10.148 550.793 10.232 551.353 10.232C551.913 10.232 552.389 10.148 552.781 9.98C553.181 9.804 553.505 9.576 553.753 9.296C554.001 9.008 554.181 8.68 554.293 8.312C554.405 7.944 554.461 7.564 554.461 7.172C554.461 6.772 554.393 6.396 554.257 6.044C554.129 5.692 553.933 5.384 553.669 5.12C553.413 4.856 553.089 4.648 552.697 4.496C552.313 4.344 551.865 4.268 551.353 4.268ZM553.813 11.036C554.885 11.34 555.709 11.848 556.285 12.56C556.861 13.272 557.149 14.184 557.149 15.296C557.149 16.048 557.005 16.728 556.717 17.336C556.437 17.936 556.041 18.448 555.529 18.872C555.025 19.296 554.417 19.624 553.705 19.856C552.993 20.08 552.209 20.192 551.353 20.192C550.497 20.192 549.713 20.08 549.001 19.856C548.289 19.624 547.677 19.296 547.165 18.872C546.653 18.448 546.257 17.936 545.977 17.336C545.697 16.728 545.557 16.048 545.557 15.296C545.557 14.184 545.845 13.272 546.421 12.56C546.997 11.848 547.821 11.34 548.893 11.036C547.989 10.7 547.305 10.2 546.841 9.536C546.385 8.864 546.157 8.064 546.157 7.136C546.157 6.504 546.281 5.912 546.529 5.36C546.777 4.808 547.129 4.328 547.585 3.92C548.041 3.512 548.585 3.192 549.217 2.96C549.857 2.728 550.569 2.612 551.353 2.612C552.129 2.612 552.837 2.728 553.477 2.96C554.117 3.192 554.665 3.512 555.121 3.92C555.577 4.328 555.929 4.808 556.177 5.36C556.425 5.912 556.549 6.504 556.549 7.136C556.549 8.064 556.317 8.864 555.853 9.536C555.397 10.2 554.717 10.7 553.813 11.036ZM577.416 12.752H572.52V17.912H570.78V12.752H565.908V11.132H570.78V6.008H572.52V11.132H577.416V12.752ZM596.842 17.972C597.074 17.972 597.258 18.04 597.394 18.176C597.53 18.312 597.598 18.488 597.598 18.704V20H586.126V19.268C586.126 19.116 586.158 18.96 586.222 18.8C586.286 18.64 586.386 18.492 586.522 18.356L592.03 12.824C592.486 12.36 592.902 11.916 593.278 11.492C593.654 11.06 593.974 10.628 594.238 10.196C594.502 9.764 594.706 9.328 594.85 8.888C594.994 8.44 595.066 7.964 595.066 7.46C595.066 6.956 594.986 6.516 594.826 6.14C594.666 5.756 594.446 5.44 594.166 5.192C593.894 4.944 593.57 4.76 593.194 4.64C592.818 4.512 592.414 4.448 591.982 4.448C591.542 4.448 591.138 4.512 590.77 4.64C590.402 4.768 590.074 4.948 589.786 5.18C589.506 5.404 589.27 5.672 589.078 5.984C588.886 6.296 588.75 6.64 588.67 7.016C588.574 7.296 588.442 7.484 588.274 7.58C588.114 7.668 587.886 7.692 587.59 7.652L586.474 7.46C586.586 6.676 586.802 5.984 587.122 5.384C587.45 4.776 587.858 4.268 588.346 3.86C588.842 3.452 589.406 3.144 590.038 2.936C590.67 2.72 591.354 2.612 592.09 2.612C592.818 2.612 593.498 2.72 594.13 2.936C594.762 3.152 595.31 3.468 595.774 3.884C596.238 4.292 596.602 4.792 596.866 5.384C597.13 5.976 597.262 6.648 597.262 7.4C597.262 8.04 597.166 8.636 596.974 9.188C596.782 9.732 596.522 10.252 596.194 10.748C595.866 11.244 595.486 11.728 595.054 12.2C594.63 12.672 594.178 13.148 593.698 13.628L589.162 18.26C589.482 18.172 589.806 18.104 590.134 18.056C590.462 18 590.778 17.972 591.082 17.972H596.842ZM610.716 20H608.664C608.488 20 608.348 19.956 608.244 19.868C608.148 19.772 608.068 19.668 608.004 19.556L604.944 14.792C604.912 14.904 604.876 15.016 604.836 15.128C604.804 15.232 604.756 15.328 604.692 15.416L601.86 19.556C601.78 19.668 601.692 19.772 601.596 19.868C601.508 19.956 601.384 20 601.224 20H599.316L603.576 13.76L599.484 7.844H601.536C601.712 7.844 601.84 7.872 601.92 7.928C602 7.984 602.072 8.064 602.136 8.168L605.124 12.728C605.188 12.496 605.288 12.272 605.424 12.056L608.04 8.216C608.112 8.104 608.188 8.016 608.268 7.952C608.356 7.88 608.46 7.844 608.58 7.844H610.548L606.456 13.652L610.716 20ZM623.329 18.368V20H614.113V18.368H617.797V6.644C617.797 6.292 617.809 5.936 617.833 5.576L614.773 8.204C614.669 8.292 614.565 8.348 614.461 8.372C614.357 8.388 614.261 8.388 614.173 8.372C614.085 8.356 614.001 8.324 613.921 8.276C613.849 8.228 613.793 8.176 613.753 8.12L613.081 7.196L618.205 2.768H619.945V18.368H623.329ZM633.216 13.112H643.536V14.732H633.216V13.112ZM633.216 9.092H643.536V10.712H633.216V9.092ZM663.562 17.972C663.794 17.972 663.978 18.04 664.114 18.176C664.25 18.312 664.318 18.488 664.318 18.704V20H652.846V19.268C652.846 19.116 652.878 18.96 652.942 18.8C653.006 18.64 653.106 18.492 653.242 18.356L658.75 12.824C659.206 12.36 659.622 11.916 659.998 11.492C660.374 11.06 660.694 10.628 660.958 10.196C661.222 9.764 661.426 9.328 661.57 8.888C661.714 8.44 661.786 7.964 661.786 7.46C661.786 6.956 661.706 6.516 661.546 6.14C661.386 5.756 661.166 5.44 660.886 5.192C660.614 4.944 660.29 4.76 659.914 4.64C659.538 4.512 659.134 4.448 658.702 4.448C658.262 4.448 657.858 4.512 657.49 4.64C657.122 4.768 656.794 4.948 656.506 5.18C656.226 5.404 655.99 5.672 655.798 5.984C655.606 6.296 655.47 6.64 655.39 7.016C655.294 7.296 655.162 7.484 654.994 7.58C654.834 7.668 654.606 7.692 654.31 7.652L653.194 7.46C653.306 6.676 653.522 5.984 653.842 5.384C654.17 4.776 654.578 4.268 655.066 3.86C655.562 3.452 656.126 3.144 656.758 2.936C657.39 2.72 658.074 2.612 658.81 2.612C659.538 2.612 660.218 2.72 660.85 2.936C661.482 3.152 662.03 3.468 662.494 3.884C662.958 4.292 663.322 4.792 663.586 5.384C663.85 5.976 663.982 6.648 663.982 7.4C663.982 8.04 663.886 8.636 663.694 9.188C663.502 9.732 663.242 10.252 662.914 10.748C662.586 11.244 662.206 11.728 661.774 12.2C661.35 12.672 660.898 13.148 660.418 13.628L655.882 18.26C656.202 18.172 656.526 18.104 656.854 18.056C657.182 18 657.498 17.972 657.802 17.972H663.562ZM670.104 9.296C671 9.104 671.824 9.008 672.576 9.008C673.472 9.008 674.264 9.14 674.952 9.404C675.64 9.668 676.212 10.032 676.668 10.496C677.132 10.96 677.48 11.508 677.712 12.14C677.952 12.772 678.072 13.46 678.072 14.204C678.072 15.116 677.912 15.94 677.592 16.676C677.28 17.412 676.844 18.044 676.284 18.572C675.732 19.092 675.08 19.492 674.328 19.772C673.576 20.052 672.764 20.192 671.892 20.192C671.388 20.192 670.904 20.14 670.44 20.036C669.976 19.94 669.54 19.808 669.132 19.64C668.732 19.472 668.36 19.28 668.016 19.064C667.672 18.848 667.368 18.62 667.104 18.38L667.764 17.468C667.908 17.26 668.096 17.156 668.328 17.156C668.488 17.156 668.668 17.22 668.868 17.348C669.068 17.468 669.312 17.604 669.6 17.756C669.888 17.908 670.224 18.048 670.608 18.176C671 18.296 671.464 18.356 672 18.356C672.6 18.356 673.14 18.26 673.62 18.068C674.1 17.876 674.512 17.604 674.856 17.252C675.2 16.892 675.464 16.464 675.648 15.968C675.832 15.472 675.924 14.916 675.924 14.3C675.924 13.764 675.844 13.28 675.684 12.848C675.532 12.416 675.296 12.048 674.976 11.744C674.664 11.44 674.272 11.204 673.8 11.036C673.328 10.868 672.776 10.784 672.144 10.784C671.712 10.784 671.26 10.82 670.788 10.892C670.324 10.964 669.848 11.08 669.36 11.24L668.016 10.844L669.396 2.804H677.544V3.74C677.544 4.044 677.448 4.296 677.256 4.496C677.072 4.688 676.752 4.784 676.296 4.784H670.896L670.104 9.296ZM693.002 11.408C693.002 12.912 692.838 14.216 692.51 15.32C692.19 16.416 691.75 17.324 691.19 18.044C690.63 18.764 689.966 19.3 689.198 19.652C688.438 20.004 687.622 20.18 686.75 20.18C685.87 20.18 685.05 20.004 684.29 19.652C683.538 19.3 682.882 18.764 682.322 18.044C681.762 17.324 681.322 16.416 681.002 15.32C680.682 14.216 680.522 12.912 680.522 11.408C680.522 9.904 680.682 8.6 681.002 7.496C681.322 6.392 681.762 5.48 682.322 4.76C682.882 4.032 683.538 3.492 684.29 3.14C685.05 2.788 685.87 2.612 686.75 2.612C687.622 2.612 688.438 2.788 689.198 3.14C689.966 3.492 690.63 4.032 691.19 4.76C691.75 5.48 692.19 6.392 692.51 7.496C692.838 8.6 693.002 9.904 693.002 11.408ZM690.782 11.408C690.782 10.096 690.67 8.996 690.446 8.108C690.23 7.212 689.934 6.492 689.558 5.948C689.19 5.404 688.762 5.016 688.274 4.784C687.786 4.544 687.278 4.424 686.75 4.424C686.222 4.424 685.714 4.544 685.226 4.784C684.738 5.016 684.31 5.404 683.942 5.948C683.574 6.492 683.278 7.212 683.054 8.108C682.838 8.996 682.73 10.096 682.73 11.408C682.73 12.72 682.838 13.82 683.054 14.708C683.278 15.596 683.574 16.312 683.942 16.856C684.31 17.4 684.738 17.792 685.226 18.032C685.714 18.264 686.222 18.38 686.75 18.38C687.278 18.38 687.786 18.264 688.274 18.032C688.762 17.792 689.19 17.4 689.558 16.856C689.934 16.312 690.23 15.596 690.446 14.708C690.67 13.82 690.782 12.72 690.782 11.408ZM700.636 21.692V22.712H695.752V21.692H697.516V16.412L697.576 15.884L696.28 16.952C696.208 17.008 696.136 17.044 696.064 17.06C696 17.068 695.936 17.068 695.872 17.06C695.808 17.044 695.748 17.02 695.692 16.988C695.644 16.956 695.608 16.924 695.584 16.892L695.116 16.22L697.78 13.94H699.076V21.692H700.636ZM709.264 18.344C709.264 19.112 709.176 19.776 709 20.336C708.832 20.896 708.6 21.356 708.304 21.716C708.008 22.084 707.656 22.356 707.248 22.532C706.848 22.716 706.42 22.808 705.964 22.808C705.508 22.808 705.08 22.716 704.68 22.532C704.288 22.356 703.944 22.084 703.648 21.716C703.36 21.356 703.132 20.896 702.964 20.336C702.796 19.776 702.712 19.112 702.712 18.344C702.712 17.576 702.796 16.912 702.964 16.352C703.132 15.784 703.36 15.32 703.648 14.96C703.944 14.592 704.288 14.32 704.68 14.144C705.08 13.96 705.508 13.868 705.964 13.868C706.42 13.868 706.848 13.96 707.248 14.144C707.656 14.32 708.008 14.592 708.304 14.96C708.6 15.32 708.832 15.784 709 16.352C709.176 16.912 709.264 17.576 709.264 18.344ZM707.692 18.344C707.692 17.712 707.648 17.192 707.56 16.784C707.472 16.368 707.348 16.04 707.188 15.8C707.036 15.552 706.856 15.38 706.648 15.284C706.44 15.188 706.212 15.14 705.964 15.14C705.716 15.14 705.488 15.188 705.28 15.284C705.072 15.38 704.892 15.552 704.74 15.8C704.596 16.04 704.48 16.368 704.392 16.784C704.312 17.192 704.272 17.712 704.272 18.344C704.272 18.968 704.316 19.488 704.404 19.904C704.5 20.312 704.624 20.636 704.776 20.876C704.928 21.124 705.104 21.296 705.304 21.392C705.512 21.488 705.732 21.536 705.964 21.536C706.196 21.536 706.416 21.488 706.624 21.392C706.84 21.296 707.024 21.124 707.176 20.876C707.336 20.636 707.46 20.312 707.548 19.904C707.644 19.488 707.692 18.968 707.692 18.344Z" fill="black"/>
</svg>
